<?xml version="1.0" standalone="no"?>
<!DOCTYPE svg PUBLIC "-//W3C//DTD SVG 1.1//EN" "http://www.w3.org/Graphics/SVG/1.1/DTD/svg11.dtd" >
<svg>
<metadata>
Created by FontForge 20090914 at Sun Jul  5 09:50:29 2020
 By www-data
&#194;&#169; Copyright 2006, 2007 Berthold LLC. All Rights Reserved. This font software computer program is the property of Berthold. You may not reproduce, modify, adapt, translate, alter nor create derivative works of the font software. You may not reverse engineer, decompile, decrypt, disassemble, nor seek to discover the source code of the font software.
</metadata>
<defs>
<font id="AkzidenzGroteskPro-XBdCn" horiz-adv-x="500" >
  <font-face 
    font-family="Akzidenz-Grotesk Pro XBd Cnd"
    font-weight="800"
    font-stretch="condensed"
    units-per-em="1000"
    panose-1="2 0 5 6 6 0 0 2 0 4"
    ascent="750"
    descent="-250"
    x-height="531"
    cap-height="706"
    bbox="-262 -257.999 1098 994"
    underline-thickness="50"
    underline-position="-150"
    unicode-range="U+0020-U+FB02"
  />
<missing-glyph 
d="M0 0v706h500v-706h-500zM250 401l170 255h-340zM280 353l170 -258v516zM80 50h340l-170 258zM50 611v-516l170 258z" />
    <glyph glyph-name="fi" unicode="fi" horiz-adv-x="563" 
d="M517 584h-159v122h159v-122zM517 0h-159v531h159v-531zM304 432h-71v-432h-158v432h-70v99h70v60c0 43.333 9.16699 73.333 27.5 90s50.833 25 97.5 25h104v-100h-30c-15.333 0 -26 -3 -32 -9s-9 -16.667 -9 -32v-34h71v-99z" />
    <glyph glyph-name="fl" unicode="fl" horiz-adv-x="563" 
d="M517 0h-160v706h160v-706zM304 432h-71v-432h-158v432h-70v99h70v60c0 43.333 9.16699 73.333 27.5 90s50.833 25 97.5 25h104v-100h-30c-15.333 0 -26 -3 -32 -9s-9 -16.667 -9 -32v-34h71v-99z" />
    <glyph glyph-name=".notdef" 
d="M0 0v706h500v-706h-500zM250 401l170 255h-340zM280 353l170 -258v516zM80 50h340l-170 258zM50 611v-516l170 258z" />
    <glyph glyph-name="space" unicode=" " horiz-adv-x="271" 
 />
    <glyph glyph-name="exclam" unicode="!" horiz-adv-x="292" 
d="M92 706h147.999v-85c0 -51.333 -3.33301 -109.333 -10 -174c-2.66699 -25.333 -6.16699 -62.666 -10.5 -111.999l-9.5 -106h-92c-1.33301 26 -4.16602 65.667 -8.49902 119s-6.83301 84.666 -7.5 93.999c-6.66699 100 -10 159.667 -10 179v85zM238.999 0h-148v154h148
v-154z" />
    <glyph glyph-name="quotedbl" unicode="&#x22;" horiz-adv-x="313" 
d="M299 741l-43 -288h-36l-43 288h122zM136 741l-43 -288h-36l-43 288h122z" />
    <glyph glyph-name="numbersign" unicode="#" horiz-adv-x="561" 
d="M551 408h-112l-8 -100h109v-107h-119l-17 -201h-109l18 201h-91l-18 -201h-107l17 201h-105v107h114l8 100h-108v107h117l17 191h108l-16 -191h90l16 191h109l-16 -191h103v-107zM330 408h-90l-9 -100h91z" />
    <glyph glyph-name="dollar" unicode="$" 
d="M25 227h170v-50c0 -13.333 0.833008 -23.833 2.5 -31.5s6.66699 -15 15 -22s20.5 -10.5 36.5 -10.5c24 0 39.5 5 46.5 15s10.5 26.333 10.5 49c0 7.33301 -0.333008 13.833 -1 19.5s-2.66699 11.167 -6 16.5s-5.83301 9.66602 -7.5 12.999
s-5.83398 7.66602 -12.501 12.999s-11.5 9 -14.5 11l-20 13.5l-22.5 15.5l-88 61c-25.333 18 -43.833 32.5 -55.5 43.5s-21.834 27.833 -30.501 50.5s-13 51.334 -13 86.001c0 28.667 2.16699 53.5 6.5 74.5s12.333 41 24 60s29.5 33.833 53.5 44.5s54 16.667 90 18v117h83
v-117c67.333 -1.33301 112.166 -17.5 134.499 -48.5s33.5 -76.833 33.5 -137.5v-42h-162v57c0 20 -3.66699 33.833 -11 41.5s-21 11.5 -41 11.5c-8.66699 0 -16 -1.5 -22 -4.5s-10.5 -6.5 -13.5 -10.5s-5.16699 -9.66699 -6.5 -17s-2.16602 -13.5 -2.49902 -18.5
s-0.5 -11.833 -0.5 -20.5c0 -14 2.5 -26 7.5 -36s9.33301 -16.833 13 -20.5s14.5 -11 32.5 -22s31 -19.167 39 -24.5l104 -70c30 -20 50.833 -41 62.5 -63s17.5 -55.333 17.5 -100c0 -34 -3.16699 -63.333 -9.5 -88s-19.5 -46 -39.5 -64
c-27.333 -25.333 -72.666 -41.666 -135.999 -48.999v-128h-83v128c-33.333 3.33301 -60 8 -80 14s-38.667 15.833 -56 29.5s-29.666 33 -36.999 58s-11 56.833 -11 95.5v39z" />
    <glyph glyph-name="percent" unicode="%" horiz-adv-x="792" 
d="M545 706l-233 -706h-71l233 706h71zM27 383l-0.000976562 202.001c0 43.333 9.5 76 28.5 98s57.5 33 115.5 33c54.667 0 91.334 -10.167 110.001 -30.5s28 -48.5 28 -84.5v-211c0 -44.667 -10.5 -77.334 -31.5 -98.001s-55.167 -31 -102.5 -31
c-32 0 -58.5 3.5 -79.5 10.5s-36.167 17 -45.5 30s-15.5 25.667 -18.5 38s-4.5 26.833 -4.5 43.5zM204.999 375.001v229c0 13.333 -2.66699 22.333 -8 27s-15.333 7 -30 7c-22.667 0 -34 -11.333 -34 -34v-229c0 -11.333 2.16699 -19.5 6.5 -24.5s13.833 -7.5 28.5 -7.5
s24.5 2.66699 29.5 8s7.5 13.333 7.5 24zM481.999 118.001l-0.000976562 202.001c0 44 9.5 77 28.5 99s57.5 33 115.5 33c54.667 0 91.334 -10.333 110.001 -31s28 -49 28 -85v-211c0 -44.667 -10.5 -77.334 -31.5 -98.001s-55.167 -31 -102.5 -31
c-32 0 -58.5 3.5 -79.5 10.5s-36.167 17 -45.5 30s-15.5 25.667 -18.5 38s-4.5 26.833 -4.5 43.5zM660.998 110.002v229c0 13.333 -2.66699 22.5 -8 27.5s-15.333 7.5 -30 7.5c-22.667 0 -34 -11.667 -34 -35v-229c0 -11.333 2.16699 -19.5 6.5 -24.5s13.833 -7.5 28.5 -7.5
s24.5 2.66699 29.5 8s7.5 13.333 7.5 24z" />
    <glyph glyph-name="ampersand" unicode="&#x26;" horiz-adv-x="604" 
d="M592 0l-113.001 -0.00195312c-25.333 0 -43.333 2 -54 6s-22.667 12 -36 24c-44 -28 -92.333 -42 -145 -42c-8.66699 0 -17.5 0.5 -26.5 1.5s-23.167 3 -42.5 6s-37 8.83301 -53 17.5s-32.167 19.5 -48.5 32.5s-29.166 31 -38.499 54s-14 49.5 -14 79.5
c0 14.667 1 27.834 3 39.501s6 23.167 12 34.5s11.167 20.5 15.5 27.5s12.666 15.833 24.999 26.5l27.5 23.5c6 5 18 14.167 36 27.5s30.667 23 38 29l-27 42c-26 40 -39 78.333 -39 115c0 44.667 17.167 81.167 51.5 109.5s77.5 42.5 129.5 42.5c58.667 0 104 -14 136 -42
s48 -64.333 48 -109c0 -24.667 -5.66699 -48 -17 -70c-7.33301 -14.667 -17.666 -29 -30.999 -43s-25 -25 -35 -33s-24.333 -18.667 -43 -32l73 -122c7.33301 36 11 72 11 108h119c-1.33301 -43.333 -5.16602 -81.166 -11.499 -113.499s-12.833 -56 -19.5 -71
s-15.334 -31.5 -26.001 -49.5c10.667 -20 33.667 -30 69 -30h26v-89zM294.999 463.998c46.667 30.667 69.999 59.332 69.999 85.999c0 15.333 -6 28 -18 38s-26 15 -42 15c-15.333 0 -27.166 -5.16699 -35.499 -15.5s-12.5 -22.166 -12.5 -35.499
c0 -20 12.667 -49.333 38 -88zM329.998 125.996l-91.001 156.001c-14 -8.66699 -25 -15.834 -33 -21.501s-16.667 -15 -26 -28s-14 -26.5 -14 -40.5c0 -19.333 8.33301 -40.333 25 -63s37.334 -34 62.001 -34c21.333 0 47 10.333 77 31z" />
    <glyph glyph-name="quotesingle" unicode="'" horiz-adv-x="150" 
d="M136 741l-43 -288h-36l-43 288h122z" />
    <glyph glyph-name="parenleft" unicode="(" horiz-adv-x="354" 
d="M331 709v-61.999c-40.667 -4 -67.667 -13.167 -81 -27.5s-20 -41.5 -20 -81.5v-574c0 -36 7.66699 -61.333 23 -76s41.333 -22.667 78 -24v-60h-9c-69.333 0 -126.333 18.167 -171 54.5s-67 94.166 -67 173.499v450c0 38.667 4.5 71.167 13.5 97.5s26.5 50.5 52.5 72.5
c24.667 20.667 51 34.667 79 42s62 12.333 102 15z" />
    <glyph glyph-name="parenright" unicode=")" horiz-adv-x="354" 
d="M23 650v59.001h9c72 0 129.667 -18.5 173 -55.5s65 -95.5 65 -175.5v-447c0 -38.667 -4.5 -71.167 -13.5 -97.5s-26.5 -50.5 -52.5 -72.5c-38 -32.667 -98.333 -51.334 -181 -56.001v61c40.667 4 67.667 13.167 81 27.5s20 41.5 20 81.5v574c0 32 -7 56.333 -21 73
s-40.667 26 -80 28z" />
    <glyph glyph-name="asterisk" unicode="*" horiz-adv-x="411" 
d="M394 534l-99 -34l61 -78l-85 -67l-66 85l-61 -85l-87 64l57 79l-98 29l31 104l101 -30v105h108v-105l103 35z" />
    <glyph glyph-name="plus" unicode="+" horiz-adv-x="558" 
d="M477 237h-119v-146h-156v146h-121v126h121v146h156v-146h119v-126z" />
    <glyph glyph-name="comma" unicode="," horiz-adv-x="250" 
d="M199 0l-84 -152h-70l54 152h-47v153h147v-153z" />
    <glyph glyph-name="hyphen" unicode="-" horiz-adv-x="329" 
d="M301 235h-273v122h273v-122z" />
    <glyph glyph-name="period" unicode="." horiz-adv-x="250" 
d="M199 0h-148v152h148v-152z" />
    <glyph glyph-name="slash" unicode="/" horiz-adv-x="313" 
d="M305 706l-174 -706h-122l172 706h124z" />
    <glyph glyph-name="zero" unicode="0" 
d="M466 520v-333.997c0 -68.667 -16.667 -118.834 -50 -150.501s-88.666 -47.5 -165.999 -47.5c-68.667 0 -122 13.667 -160 41s-57 77.333 -57 150v339c0 39.333 5.5 72.666 16.5 99.999s26.833 48.166 47.5 62.499s43.167 24.333 67.5 30s52.166 8.5 83.499 8.5
c68 0 121.333 -14.667 160 -44s58 -81 58 -155zM303 171.003l-0.000976562 348.999c0 46 -18 69 -54 69s-54 -22.333 -54 -67v-349c0 -21.333 3.5 -37.5 10.5 -48.5s21.5 -16.5 43.5 -16.5c12.667 0 22.834 1.83301 30.501 5.5s13.167 9.16699 16.5 16.5
s5.33301 13.833 6 19.5s1 12.834 1 21.501z" />
    <glyph glyph-name="one" unicode="1" 
d="M343 0h-151.001v519c-38 -22 -73.667 -38.667 -107 -50v143c60.667 6.66699 103.334 38 128.001 94h130v-706z" />
    <glyph glyph-name="two" unicode="2" 
d="M458 134v-134.002h-420v61c0 39.333 5.66699 73.833 17 103.5s30 58.834 56 87.501l36.5 37c13 12.667 28.5 27 46.5 43l39 35c30 27.333 49.167 47.833 57.5 61.5s12.5 32.167 12.5 55.5v52c0 42 -18 63 -54 63c-38 0 -57 -21.333 -57 -64v-99h-148v100
c0 122 69.667 183 209 183c60 0 109.5 -13.667 148.5 -41s58.5 -69.333 58.5 -126v-61c0 -29.333 -3 -54.833 -9 -76.5s-19.333 -42.167 -40 -61.5l-108 -101c-30.667 -28.667 -51 -49.667 -61 -63s-18.333 -31.666 -25 -54.999h241z" />
    <glyph glyph-name="three" unicode="3" 
d="M181 429l64.9971 0.00390625c22.667 0 38.5 4.66699 47.5 14s13.5 26 13.5 50v31c0 13.333 -0.5 23.666 -1.5 30.999s-3.16699 15.166 -6.5 23.499s-9 14.5 -17 18.5s-18.667 6 -32 6c-36 0 -54 -18.667 -54 -56v-59h-149v75c0 104 66.333 156 199 156
c71.333 0 123.833 -13.5 157.5 -40.5s50.5 -67.5 50.5 -121.5v-38c0 -42.667 -4.33301 -71.667 -13 -87s-31 -35 -67 -59c18 -7.33301 32.167 -14.5 42.5 -21.5s20 -19.333 29 -37s13.5 -39.834 13.5 -66.501v-74c0 -69.333 -15.5 -117.833 -46.5 -145.5
s-86.833 -41.5 -167.5 -41.5c-67.333 0 -118.166 11 -152.499 33s-51.5 63 -51.5 123v101h155v-74c0 -24.667 4.33301 -42 13 -52s22.667 -15 42 -15c22 0 36.667 7 44 21s11 35 11 63v50c0 17.333 -0.666992 30.166 -2 38.499s-6.16602 15.833 -14.499 22.5
s-21.166 10 -38.499 10h-70v121z" />
    <glyph glyph-name="four" unicode="4" 
d="M479 155h-74v-155h-143v155h-228v129l202 422h169v-427h74v-124zM262 279v274l-120 -274h120z" />
    <glyph glyph-name="five" unicode="5" 
d="M45 323l0.000976562 383h396v-125h-250v-150c24 34.667 61 52 111 52c104 0 156 -58.667 156 -176v-132c0 -19.333 -0.833008 -36 -2.5 -50s-6.5 -30.167 -14.5 -48.5s-19.167 -33.333 -33.5 -45s-35 -21.667 -62 -30s-59.5 -12.5 -97.5 -12.5c-72 0 -125.333 13 -160 39
s-52 68 -52 126v76h155v-55c0 -24 4 -41 12 -51s22.333 -15 43 -15c16.667 0 29.167 4.16699 37.5 12.5s13.166 16.5 14.499 24.5s2 18.667 2 32v136c0 40 -18.667 60 -56 60c-35.333 0 -53 -17 -53 -51h-146z" />
    <glyph glyph-name="six" unicode="6" 
d="M454 494l-146.999 -0.000976562v37c0 40.667 -17 61 -51 61c-39.333 0 -59 -22.333 -59 -67v-131c9.33301 9.33301 17.166 16.5 23.499 21.5s17.166 10.333 32.499 16s32.666 8.5 51.999 8.5c39.333 0 70.833 -7.66699 94.5 -23s39.834 -33.333 48.501 -54
c6.66699 -17.333 10 -39 10 -65v-143c0 -58 -19.333 -100.333 -58 -127s-88 -40 -148 -40c-138.667 0 -208 64 -208 192v357c0 14.667 0.833008 28.334 2.5 41.001s6.33398 28.167 14.001 46.5s18.167 33.833 31.5 46.5s33.333 23.667 60 33s58 14 94 14
c138.667 0 208 -56.333 208 -169v-55zM308.001 206.999v45.001c0 34 -3.66699 57.667 -11 71s-22.333 20 -45 20c-23.333 0 -38.5 -6.5 -45.5 -19.5s-10.5 -35.833 -10.5 -68.5v-57c0 -32.667 3.33301 -55.167 10 -67.5s22 -18.5 46 -18.5c13.333 0 24 2 32 6
s13.667 11.167 17 21.5s5.33301 19.666 6 27.999s1 21.5 1 39.5z" />
    <glyph glyph-name="seven" unicode="7" 
d="M27 490v216h436v-128c-102.667 -167.333 -163 -360 -181 -578h-169c11.333 161.333 80 356 206 584h-152v-94h-140z" />
    <glyph glyph-name="eight" unicode="8" 
d="M39 160v88.002c0 35.333 5.66699 63.166 17 83.499s35.333 36.166 72 47.499c-54 9.33301 -81 51 -81 125v52c0 56 19 97.167 57 123.5s87.333 39.5 148 39.5s109.334 -13.333 146.001 -40s55 -68.667 55 -126v-50c0 -34 -6.33301 -61 -19 -81
s-33.334 -34.333 -62.001 -43c36 -14 59.333 -30.167 70 -48.5s16 -48.5 16 -90.5v-95c0 -103.333 -71 -155 -213 -155c-137.333 0 -206 56.667 -206 170zM304 481.002l-0.00195312 50c0 14.667 -0.833008 26.167 -2.5 34.5s-6.66699 15.833 -15 22.5s-20.166 10 -35.499 10
c-26 0 -42 -6.66699 -48 -20s-9 -36 -9 -68v-19c0 -24.667 3.16699 -42.5 9.5 -53.5s19.833 -16.5 40.5 -16.5s35.834 4 45.501 12s14.5 24 14.5 48zM301.998 187.002v55.9971c0 28.667 -3.33301 48.667 -10 60s-21 17 -43 17c-23.333 0 -38.5 -5.5 -45.5 -16.5
s-10.5 -29.167 -10.5 -54.5v-69c0 -13.333 0.333008 -23.666 1 -30.999s2.66699 -15.166 6 -23.499s8.83301 -14.166 16.5 -17.499s17.5 -5 29.5 -5c23.333 0 38.5 6 45.5 18s10.5 34 10.5 66z" />
    <glyph glyph-name="nine" unicode="9" 
d="M186 214l0.00292969 -49.999c0 -38.667 18.333 -58 55 -58c20.667 0 35.5 4.33301 44.5 13s13.5 24.667 13.5 48v148c-28.667 -28.667 -63.334 -43 -104.001 -43c-55.333 0 -95.5 17 -120.5 51s-37.5 76.667 -37.5 128v65c0 67.333 16.667 118.166 50 152.499
s87 51.5 161 51.5c73.333 0 125.5 -17.5 156.5 -52.5s46.5 -84.833 46.5 -149.5v-344c0 -53.333 -15.833 -97.333 -47.5 -132s-85.834 -52 -162.501 -52c-70.667 0 -122.834 15 -156.501 45s-50.5 69.667 -50.5 119v60h152zM187.003 513.001l-0.000976562 -62.001
c0 -17.333 0.833008 -31.166 2.5 -41.499s6.83398 -20 15.501 -29s21.334 -13.5 38.001 -13.5c23.333 0 38.833 7.16699 46.5 21.5s11.5 35.166 11.5 62.499v33c0 18.667 -0.166992 32.334 -0.5 41.001s-1.5 19.167 -3.5 31.5s-4.83301 21 -8.5 26
s-9.33398 9.5 -17.001 13.5s-17.167 6 -28.5 6c-13.333 0 -24 -2.33301 -32 -7s-13.667 -12.167 -17 -22.5s-5.33301 -19.333 -6 -27s-1 -18.5 -1 -32.5z" />
    <glyph glyph-name="colon" unicode=":" horiz-adv-x="292" 
d="M238 386h-147v152h147v-152zM238 0h-147v152h147v-152z" />
    <glyph glyph-name="semicolon" unicode=";" horiz-adv-x="292" 
d="M235 386h-147v153h147v-153zM235 0l-84 -152h-69l51 152h-45v153h147v-153z" />
    <glyph glyph-name="less" unicode="&#x3c;" horiz-adv-x="559" 
d="M444 76l-358 193v133l358 195v-141l-222 -116l222 -109v-155z" />
    <glyph glyph-name="equal" unicode="=" horiz-adv-x="559" 
d="M474 357h-389v122h389v-122zM474 145h-389v122h389v-122z" />
    <glyph glyph-name="greater" unicode="&#x3e;" horiz-adv-x="559" 
d="M473 271l-358 -195v141l222 116l-222 109v155l358 -193v-133z" />
    <glyph glyph-name="question" unicode="?" 
d="M82 502v72.9971c0 54.667 14.5 92.5 43.5 113.5s74.5 31.5 136.5 31.5c70.667 0 121.167 -11.667 151.5 -35s45.5 -65.333 45.5 -126c0 -45.333 -9 -76.666 -27 -93.999l-83 -80c-26.667 -25.333 -43.167 -43 -49.5 -53s-9.5 -25.333 -9.5 -46v-56h-146v50
c0 31.333 4 55.833 12 73.5s22.667 36.834 44 57.501l75 73c14 13.333 23.333 24.333 28 33s7 21.334 7 38.001c0 36.667 -14 55 -42 55c-28.667 0 -43 -16.333 -43 -49v-59h-143zM290 0.99707h-148v151h148v-151z" />
    <glyph glyph-name="at" unicode="@" horiz-adv-x="834" 
d="M531 504l92.999 -0.000976562l-35 -159c-3.33301 -16 -7.33301 -34 -12 -54s-7.66699 -33.333 -9 -40l-5 -24.5c-2 -9.66699 -3.16699 -17.167 -3.5 -22.5s-0.5 -11.666 -0.5 -18.999c0 -18 6.66699 -27 20 -27c28 0 55.833 30.5 83.5 91.5s41.5 118.5 41.5 172.5
c0 66.667 -19.167 118.667 -57.5 156s-91.833 56 -160.5 56c-96.667 0 -180.5 -39.167 -251.5 -117.5s-106.5 -171.166 -106.5 -278.499c0 -86.667 26.667 -154.5 80 -203.5s122.666 -73.5 207.999 -73.5c116.667 0 224.667 47 324 141l48 -66
c-45.333 -41.333 -87.666 -72.333 -126.999 -93c-82 -43.333 -166.667 -65 -254 -65c-110 0 -199.667 32 -269 96s-104 150.667 -104 260c0 88.667 20 169.667 60 243s95.167 131.166 165.5 173.499s147.5 63.5 231.5 63.5c90.667 0 164.167 -26.167 220.5 -78.5
s84.5 -120.166 84.5 -203.499c0 -94.667 -25 -179 -75 -253s-106.667 -111 -170 -111c-24 0 -43.833 6 -59.5 18s-25.5 28.667 -29.5 50c-37.333 -45.333 -79.333 -68 -126 -68c-41.333 0 -74.166 14.667 -98.499 44s-36.5 69.333 -36.5 120
c0 77.333 22.167 145.333 66.5 204s95.5 88 153.5 88c22.667 0 41.667 -4.33301 57 -13s29.333 -24.334 42 -47.001zM484.999 346.999c0 24.667 -5.66797 44.334 -17.001 59.001s-26.333 22 -45 22c-29.333 0 -55.666 -19 -78.999 -57s-35 -80.667 -35 -128
c0 -24.667 5.16699 -43.834 15.5 -57.501s24.5 -20.5 42.5 -20.5c29.333 0 56.333 19.333 81 58s37 80 37 124z" />
    <glyph glyph-name="A" unicode="A" horiz-adv-x="521" 
d="M518 0h-167l-24 161h-131l-25 -161h-167l143 706h228zM310 280l-47 314l-48 -314h95z" />
    <glyph glyph-name="B" unicode="B" horiz-adv-x="521" 
d="M51 706l252 -0.00195312c56.667 0 100.167 -12 130.5 -36s45.5 -58 45.5 -102v-48c0 -45.333 -7.16699 -78.166 -21.5 -98.499s-38.833 -36.166 -73.5 -47.499c40 -10 67.333 -26.333 82 -49s22 -56 22 -100v-32c0 -42 -4.33301 -76.5 -13 -103.5
s-21.834 -46.667 -39.501 -59s-35.667 -20.5 -54 -24.5s-41.166 -6 -68.499 -6h-262v706zM211 580.998v-151h70c20 0 32.833 5.66699 38.5 17s8.5 31.333 8.5 60s-3.5 48.167 -10.5 58.5s-20.833 15.5 -41.5 15.5h-65zM211 305.998l0.000976562 -179.001h66
c23.333 0 38.166 6 44.499 18s9.5 34.667 9.5 68c0 36.667 -3 61.334 -9 74.001s-21 19 -45 19h-66z" />
    <glyph glyph-name="C" unicode="C" horiz-adv-x="521" 
d="M494 269v-62.998c0 -80 -16.667 -135.833 -50 -167.5s-95.333 -47.5 -186 -47.5c-82 0 -138.833 14.667 -170.5 44s-47.5 72.666 -47.5 129.999v370c0 122.667 74.667 184 224 184c82 0 140.167 -15.833 174.5 -47.5s51.5 -78.834 51.5 -141.501v-85h-168v93
c0 21.333 -4.5 36.333 -13.5 45s-24.167 13 -45.5 13c-20.667 0 -34.667 -5.33301 -42 -16s-11 -26.667 -11 -48v-351c0 -25.333 3.5 -43.333 10.5 -54s22.5 -16 46.5 -16c22 0 36.667 5.33301 44 16s11 28.667 11 54v88h172z" />
    <glyph glyph-name="D" unicode="D" horiz-adv-x="542" 
d="M50 706h275.001c59.333 0 104 -13.667 134 -41s45 -71 45 -131v-364c0 -66.667 -15.333 -111.667 -46 -135s-78.334 -35 -143.001 -35h-265v706zM216.001 584l0.000976562 -461.999h53c23.333 0 39.666 4.16699 48.999 12.5s14 24.166 14 47.499v338
c0 23.333 -4.83301 39.833 -14.5 49.5s-26.167 14.5 -49.5 14.5h-52z" />
    <glyph glyph-name="E" unicode="E" horiz-adv-x="437" 
d="M416 0h-365v706h365v-124h-194v-163h183v-124h-183v-170h194v-125z" />
    <glyph glyph-name="F" unicode="F" horiz-adv-x="396" 
d="M396 585h-175v-158h161v-124h-161v-303h-172v706h347v-121z" />
    <glyph glyph-name="G" unicode="G" horiz-adv-x="521" 
d="M483 0h-164.999v65c-30.667 -44.667 -74 -67 -130 -67c-29.333 0 -54.166 5.33301 -74.499 16s-35.666 26 -45.999 46s-17.5 41.333 -21.5 64s-6 49 -6 79v290c0 83.333 15.667 141.833 47 175.5s88.666 50.5 171.999 50.5c24 0 45.167 -0.833008 63.5 -2.5
s38.166 -6 59.499 -13s38.833 -16.5 52.5 -28.5s25.167 -28.833 34.5 -50.5s14 -47.5 14 -77.5v-82h-165v67c0 21.333 -3.83301 37.333 -11.5 48s-21.834 16 -42.501 16c-22 0 -36.333 -5.5 -43 -16.5s-10 -27.833 -10 -50.5v-358c0 -41.333 18 -62 54 -62
c20.667 0 34.667 6 42 18s11 28.333 11 49v80h-65v118h230v-374z" />
    <glyph glyph-name="H" unicode="H" horiz-adv-x="562" 
d="M511 0h-171v296h-119v-296h-170v706h170v-285h119v285h171v-706z" />
    <glyph glyph-name="I" unicode="I" horiz-adv-x="271" 
d="M220 0h-171v706h171v-706z" />
    <glyph glyph-name="J" unicode="J" horiz-adv-x="333" 
d="M121 706h171v-543c0 -55.333 -11.333 -96.333 -34 -123s-66 -40 -130 -40h-112v122h59c18.667 0 31 4.16699 37 12.5s9 22.5 9 42.5v529z" />
    <glyph glyph-name="K" unicode="K" horiz-adv-x="521" 
d="M541 0h-179l-143 345v-345h-169v706h169v-320l130 320h174l-143 -334z" />
    <glyph glyph-name="L" unicode="L" horiz-adv-x="417" 
d="M398 0h-348v706h172v-581h176v-125z" />
    <glyph glyph-name="M" unicode="M" horiz-adv-x="771" 
d="M721 0h-152v508l-109 -508h-150l-109 508v-508h-149v706h228l105 -518l105 518h231v-706z" />
    <glyph glyph-name="N" unicode="N" horiz-adv-x="562" 
d="M512 0h-172l-147 460v-460h-144v706h169l148 -458v458h146v-706z" />
    <glyph glyph-name="O" unicode="O" horiz-adv-x="542" 
d="M499 500v-279c0 -25.333 -0.833008 -46.5 -2.5 -63.5s-6.66699 -37 -15 -60s-20 -41.5 -35 -55.5s-37.167 -26 -66.5 -36s-64.666 -15 -105.999 -15c-78.667 0 -137.334 16.333 -176.001 49s-58 88 -58 166v305c0 73.333 19.167 126.5 57.5 159.5s95.833 49.5 172.5 49.5
c80.667 0 139 -17.5 175 -52.5s54 -90.833 54 -167.5zM211 537v-362c0 -10.667 0.333008 -18.5 1 -23.5s2.66699 -10.833 6 -17.5s9.33301 -11.5 18 -14.5s20 -4.5 34 -4.5c22 0 37.333 4.66699 46 14s13 24.666 13 45.999v361c0 22.667 -4.5 38 -13.5 46
s-25.167 12 -48.5 12c-20.667 0 -35.167 -4.16699 -43.5 -12.5s-12.5 -23.166 -12.5 -44.499z" />
    <glyph glyph-name="P" unicode="P" horiz-adv-x="521" 
d="M50 706l304 0.000976562c56.667 0 95.167 -12.667 115.5 -38s30.5 -60 30.5 -104v-168c0 -50.667 -12.833 -86.334 -38.5 -107.001s-61.167 -31 -106.5 -31h-135v-258h-170v706zM220 586.001l-0.000976562 -204.001h64c17.333 0 30.333 3.33301 39 10
s13.667 13.834 15 21.501s2 19.5 2 35.5v90c0 18.667 -4.66699 31.167 -14 37.5s-23.666 9.5 -42.999 9.5h-63z" />
    <glyph glyph-name="Q" unicode="Q" horiz-adv-x="542" 
d="M453 -78v-107h-139c-43.333 0 -73.666 8.83301 -90.999 26.5s-26 46.5 -26 86.5v68c-58.667 12.667 -99.5 36 -122.5 70s-34.5 80.667 -34.5 140v312c0 134.667 76.667 202 230 202c77.333 0 134.833 -16.833 172.5 -50.5s56.5 -88.5 56.5 -164.5v-297
c0 -71.333 -13.833 -122.166 -41.5 -152.499s-67.834 -50.5 -120.501 -60.5v-37c0 -12.667 2.66699 -21.834 8 -27.501s17 -8.5 35 -8.5h73zM211 537v-362c0 -10 0.333008 -17.667 1 -23s2.66699 -11.333 6 -18s9.33301 -11.334 18 -14.001s20 -4 34 -4
c22.667 0 38.167 4.5 46.5 13.5s12.5 24.167 12.5 45.5v361c0 22.667 -4.5 38 -13.5 46s-25.167 12 -48.5 12c-20.667 0 -35.167 -4.16699 -43.5 -12.5s-12.5 -23.166 -12.5 -44.499z" />
    <glyph glyph-name="R" unicode="R" horiz-adv-x="521" 
d="M499 0l-156.999 0.00195312c-14 22 -21 57 -21 105v114c0 35.333 -4.33301 57.833 -13 67.5s-31 14.5 -67 14.5h-31v-301h-160v706h241c63.333 0 108.333 -11 135 -33c32 -26 48 -75.333 48 -148c0 -46 -6.33301 -78.833 -19 -98.5s-36 -38.834 -70 -57.501
c35.333 -10 58.666 -22.333 69.999 -37c8.66699 -10.667 14.167 -23.334 16.5 -38.001s3.5 -37 3.5 -67v-150c0 -33.333 8 -59 24 -77zM210.001 584.002v-162h53c26 0 42.167 5.83301 48.5 17.5s9.5 35.5 9.5 71.5c0 32 -3.83301 52.167 -11.5 60.5s-23.5 12.5 -47.5 12.5
h-52z" />
    <glyph glyph-name="S" unicode="S" horiz-adv-x="479" 
d="M446 489l-161.002 -0.000976562v50c0 20.667 -3 35.667 -9 45s-19 14 -39 14c-28 0 -42 -17.333 -42 -52v-26c0 -23.333 10.667 -42.333 32 -57l145 -101c37.333 -25.333 61.833 -48.666 73.5 -69.999s17.5 -56 17.5 -104c0 -14.667 -0.5 -27.667 -1.5 -39
s-3.16699 -24.333 -6.5 -39s-8 -27.167 -14 -37.5s-14.5 -21 -25.5 -32s-24.167 -20 -39.5 -27s-34.666 -12.667 -57.999 -17s-49.333 -6.5 -78 -6.5c-105.333 0 -172.666 26.333 -201.999 79c-12.667 24 -19 62.333 -19 115v42h169v-56c0 -37.333 16.667 -56 50 -56
c36 0 54 16.333 54 49c0 28.667 -3 47.834 -9 57.501s-24.333 25.5 -55 47.5l-102 74c-3.33301 2.66699 -9.66602 7.16699 -18.999 13.5s-15.833 10.833 -19.5 13.5s-9.16699 7.16699 -16.5 13.5s-12.333 11.833 -15 16.5l-11.5 19.5c-5 8.33301 -8.33301 16.833 -10 25.5
s-3.33398 19 -5.00098 31s-2.5 25.333 -2.5 40c0 75.333 15.833 128.166 47.5 158.499s89.167 45.5 172.5 45.5c36.667 0 67.667 -3.33301 93 -10s44.833 -15 58.5 -25s24.167 -24.167 31.5 -42.5s11.833 -35.5 13.5 -51.5s2.5 -37.333 2.5 -64v-37z" />
    <glyph glyph-name="T" unicode="T" horiz-adv-x="479" 
d="M467 583h-141v-583h-173v583h-140v123h454v-123z" />
    <glyph glyph-name="U" unicode="U" horiz-adv-x="542" 
d="M48 706l170 -0.000976562v-532c0 -42 18 -63 54 -63c18.667 0 31.667 5.33301 39 16s11 26.334 11 47.001v532h171v-508c0 -34 -2.5 -62.333 -7.5 -85s-14.833 -44.167 -29.5 -64.5s-37 -35.333 -67 -45s-68 -14.5 -114 -14.5c-84.667 0 -143.667 15.833 -177 47.5
s-50 78.5 -50 140.5v529z" />
    <glyph glyph-name="V" unicode="V" 
d="M498 706l-126 -706h-243l-132 706h173l79 -569l77 569h172z" />
    <glyph glyph-name="W" unicode="W" horiz-adv-x="812" 
d="M808 706l-85 -706h-221l-96 552l-92 -552h-222l-90 706h162l55 -562l86 562h197l101 -560l41 560h164z" />
    <glyph glyph-name="X" unicode="X" horiz-adv-x="479" 
d="M479 0h-174l-64 270l-65 -270h-172l122 374l-127 332h172l70 -227l68 227h170l-125 -332z" />
    <glyph glyph-name="Y" unicode="Y" horiz-adv-x="521" 
d="M515 706l-176 -458v-248h-167v248l-168 458h168l86 -312l86 312h171z" />
    <glyph glyph-name="Z" unicode="Z" horiz-adv-x="437" 
d="M427 0h-428v138l245 444h-214v124h391v-139l-245 -442h251v-125z" />
    <glyph glyph-name="bracketleft" unicode="[" horiz-adv-x="354" 
d="M341 -206h-254v912h254v-64h-107v-781h107v-67z" />
    <glyph glyph-name="backslash" unicode="\" horiz-adv-x="313" 
d="M305 0h-124l-172 706h122z" />
    <glyph glyph-name="bracketright" unicode="]" horiz-adv-x="354" 
d="M268 -208h-254v67h106v781h-106v66h254v-914z" />
    <glyph glyph-name="asciicircum" unicode="^" horiz-adv-x="559" 
d="M518 359h-152l-84 215l-88 -215h-154l172 347h137z" />
    <glyph glyph-name="underscore" unicode="_" 
d="M510 -230h-520v109h520v-109z" />
    <glyph glyph-name="grave" unicode="`" horiz-adv-x="271" 
d="M270 609h-128l-141 127h174z" />
    <glyph glyph-name="a" unicode="a" 
d="M473 0l-182.002 0.000976562v45c-3.33301 -2 -9.66602 -6.83301 -18.999 -14.5s-16.666 -13.334 -21.999 -17.001s-13 -8.16699 -23 -13.5s-20.667 -9.16602 -32 -11.499s-23.666 -3.5 -36.999 -3.5c-84.667 0 -127 46.333 -127 139c0 45.333 7 80.5 21 105.5
s39 44.5 75 58.5c92 36 146.667 58.333 164 67v32c0 17.333 -3.33301 30.166 -10 38.499s-19.334 12.5 -38.001 12.5c-29.333 0 -44 -18.667 -44 -56v-27h-153v26c0 56 15 97.5 45 124.5s80.333 40.5 151 40.5c64.667 0 115.5 -11.5 152.5 -34.5s55.5 -63.833 55.5 -122.5
v-306c0 -24 1.5 -40.833 4.5 -50.5s9.16699 -20.5 18.5 -32.5zM290.998 147.001v119.999l-49 -26c-21.333 -11.333 -34.5 -22.166 -39.5 -32.499s-7.5 -26.833 -7.5 -49.5v-14c0 -13.333 0.666992 -23.5 2 -30.5s5 -13.333 11 -19s15 -8.5 27 -8.5c37.333 0 56 20 56 60z
" />
    <glyph glyph-name="b" unicode="b" 
d="M45 706l159 0.000976562v-217c12.667 12 23.167 21.333 31.5 28s20.833 13.167 37.5 19.5s34.667 9.5 54 9.5c49.333 0 83.833 -13.833 103.5 -41.5s29.5 -66.834 29.5 -117.501v-252c0 -40.667 -10.333 -75.667 -31 -105s-53.334 -44 -98.001 -44
c-45.333 0 -87.666 19.667 -126.999 59v-45h-159v706zM302 160.001l-0.00195312 217.002c0 38.667 -15.333 58 -46 58c-16 0 -28.167 -3.83301 -36.5 -11.5s-13 -14.667 -14 -21s-1.5 -14.833 -1.5 -25.5v-218c0 -12 0.5 -21.667 1.5 -29s5.16699 -15.333 12.5 -24
s18.333 -13 33 -13c12 0 21.833 2 29.5 6s12.834 10.167 15.501 18.5s4.33398 15.166 5.00098 20.499s1 12.666 1 21.999z" />
    <glyph glyph-name="c" unicode="c" horiz-adv-x="465" 
d="M439 187l0.000976562 -59.998c0 -10 -0.833008 -19.833 -2.5 -29.5s-6.16699 -21.834 -13.5 -36.501s-17.5 -27.167 -30.5 -37.5s-32.167 -19.333 -57.5 -27s-55 -11.5 -89 -11.5c-30 0 -56.667 2.33301 -80 7s-45.333 12.5 -66 23.5s-36.5 27.167 -47.5 48.5
s-16.5 47.666 -16.5 78.999v225c0 32 3.16699 58.5 9.5 79.5s19.5 39.833 39.5 56.5c33.333 27.333 83.666 41 150.999 41c65.333 0 115.5 -12.833 150.5 -38.5s52.5 -61.167 52.5 -106.5v-72h-158v60c0 33.333 -13.667 50 -41 50c-30 0 -45 -16.667 -45 -50v-251
c0 -32.667 15.333 -49 46 -49c26.667 0 40 14.667 40 44v55h158z" />
    <glyph glyph-name="d" unicode="d" 
d="M454 0l-158.999 -0.000976562v57c-27.333 -48 -70 -72 -128 -72c-22 0 -41.167 3.5 -57.5 10.5s-29 15.833 -38 26.5s-16.167 24.334 -21.5 41.001s-8.83301 32.667 -10.5 48s-2.5 33 -2.5 53v225c0 12 0.5 23.5 1.5 34.5s4 24.5 9 40.5s11.667 29.5 20 40.5
s20.666 20.667 36.999 29s35.5 12.5 57.5 12.5c56 0 100.333 -24 133 -72v232h159v-706zM295.001 165.999l-0.000976562 214c0 37.333 -17.333 56 -52 56c-32 0 -48 -19 -48 -57v-217c0 -8.66699 0.333008 -15.5 1 -20.5s2.5 -11 5.5 -18s8.33301 -12.333 16 -16
s17.5 -5.5 29.5 -5.5c14.667 0 25.834 4 33.501 12s12 15.667 13 23s1.5 17 1.5 29z" />
    <glyph glyph-name="e" unicode="e" horiz-adv-x="479" 
d="M446 176v-36.002c0 -103.333 -67.667 -155 -203 -155c-42 0 -77 4.83301 -105 14.5s-49.167 24 -63.5 43s-24.166 39.167 -29.499 60.5s-8 47 -8 77v159c0 74 14.5 127 43.5 159s82.5 48 160.5 48c29.333 0 55 -2.33301 77 -7s42.667 -12.667 62 -24
s34.166 -28.166 44.499 -50.499s15.5 -50.166 15.5 -83.499v-151h-242v-87c0 -34 15 -51 45 -51c17.333 0 30 4.16699 38 12.5s12 21.833 12 40.5v31h153zM198 330.998h92v55c0 38.667 -14.667 58 -44 58c-32 0 -48 -19.333 -48 -58v-55z" />
    <glyph glyph-name="f" unicode="f" horiz-adv-x="313" 
d="M304 432h-71v-432h-158v432h-70v99h70v60c0 43.333 9.16699 73.333 27.5 90s50.833 25 97.5 25h104v-100h-30c-15.333 0 -26 -3 -32 -9s-9 -16.667 -9 -32v-34h71v-99z" />
    <glyph glyph-name="g" unicode="g" 
d="M454 531l-0.00195312 -587c0 -68 -16.167 -116.167 -48.5 -144.5s-86.166 -42.5 -161.499 -42.5c-67.333 0 -118.833 11.333 -154.5 34s-53.5 61 -53.5 115v38h160v-32c0 -19.333 3.5 -33.333 10.5 -42s18.833 -13 35.5 -13c34 0 51 20 51 60v127
c-20 -38.667 -59 -58 -117 -58c-92.667 0 -139 51.667 -139 155v244c0 52 9.83301 91.833 29.5 119.5s55.167 41.5 106.5 41.5c32.667 0 57.334 -5.16699 74.001 -15.5s32 -26.833 46 -49.5v50h161zM292.998 154v224c0 38 -15.667 57 -47 57c-33.333 0 -50 -20.333 -50 -61
v-231c0 -34 15.667 -51 47 -51c33.333 0 50 20.667 50 62z" />
    <glyph glyph-name="h" unicode="h" 
d="M454 0l-159 -0.000976562v368c0 42 -15.333 63 -46 63c-31.333 0 -47 -20 -47 -60v-371h-158v706h158v-223c9.33301 12.667 17 22.334 23 29.001s17.5 14.167 34.5 22.5s36.5 12.5 58.5 12.5c46 0 80.167 -13 102.5 -39s33.5 -62.333 33.5 -109v-399z" />
    <glyph glyph-name="i" unicode="i" horiz-adv-x="250" 
d="M204 584h-159v122h159v-122zM204 0h-159v531h159v-531z" />
    <glyph glyph-name="j" unicode="j" horiz-adv-x="250" 
d="M200 585h-159v121h159v-121zM200 531v-596.001c0 -46 -10.667 -78.333 -32 -97s-57 -28 -107 -28h-91v106c30 0 49.333 2.83301 58 8.5s13 19.834 13 42.501v564h159z" />
    <glyph glyph-name="k" unicode="k" 
d="M503 0h-178l-122 271v-271h-158v706h158v-376l111 201h178l-143 -228z" />
    <glyph glyph-name="l" unicode="l" horiz-adv-x="250" 
d="M205 0h-160v706h160v-706z" />
    <glyph glyph-name="m" unicode="m" horiz-adv-x="750" 
d="M701 0h-159v383c0 35.333 -14.667 53 -44 53c-30 0 -45 -17 -45 -51v-385h-160v391c0 14.667 -4 26 -12 34s-18.667 12 -32 12c-10.667 0 -20.667 -3.5 -30 -10.5s-14 -18.5 -14 -34.5v-392h-159v531h159v-56c24 47.333 63.667 71 119 71c56 0 97.667 -23.667 125 -71
c27.333 47.333 68 71 122 71c86.667 0 130 -49.667 130 -149v-397z" />
    <glyph glyph-name="n" unicode="n" 
d="M457 0h-158v381c0 36.667 -15.667 55 -47 55c-32 0 -48 -16.667 -48 -50v-386h-159v531h159v-50c35.333 43.333 75 65 119 65c40 0 72.333 -13 97 -39s37 -62.667 37 -110v-397z" />
    <glyph glyph-name="o" unicode="o" horiz-adv-x="479" 
d="M442 380v-217c0 -61.333 -15.833 -106.5 -47.5 -135.5s-82.167 -43.5 -151.5 -43.5c-138 0 -207 56.333 -207 169v209c0 62 15 108 45 138s82.667 45 158 45c135.333 0 203 -55 203 -165zM285 157v219c0 8 -0.333008 14.5 -1 19.5s-2.16699 11.167 -4.5 18.5
s-7 12.833 -14 16.5s-15.833 5.5 -26.5 5.5c-30.667 0 -46 -21 -46 -63v-224c0 -9.33301 0.5 -17 1.5 -23s5.16699 -12.333 12.5 -19s18 -10 32 -10c30.667 0 46 20 46 60z" />
    <glyph glyph-name="p" unicode="p" 
d="M46 531l159.001 -0.00292969v-56c12 16 22.167 28.333 30.5 37s21.166 16.5 38.499 23.5s38 10.5 62 10.5c32.667 0 59.167 -7.66699 79.5 -23s33.666 -32.833 39.999 -52.5s9.5 -41.5 9.5 -65.5v-241c0 -61.333 -10.333 -106.333 -31 -135s-54.667 -43 -102 -43
c-14 0 -27.167 1.33301 -39.5 4s-22.5 5.83398 -30.5 9.50098s-15.667 8.33398 -23 14.001s-12.666 10.334 -15.999 14.001s-7 8 -11 13s-6.33301 7.83301 -7 8.5v-236h-159v718zM205.001 368.997v-204c0 -44 17 -66 51 -66s51 22 51 66v202c0 40.667 -16.667 61 -50 61
c-34.667 0 -52 -19.667 -52 -59z" />
    <glyph glyph-name="q" unicode="q" 
d="M454 -188h-159.002v235c-10.667 -13.333 -19.667 -23.5 -27 -30.5s-19.166 -13.833 -35.499 -20.5s-35.166 -10 -56.499 -10c-92.667 0 -139 56.333 -139 169v215c0 54 10.167 96.667 30.5 128s55.833 47 106.5 47c56 0 96.333 -22 121 -66v52h159v-719zM294.998 167
l-0.000976562 203.999c0 41.333 -17 62 -51 62c-32.667 0 -49 -21.333 -49 -64v-204c0 -42.667 16.667 -64 50 -64c12 0 21.667 2 29 6s12.333 10 15 18s4.33398 14.833 5.00098 20.5s1 12.834 1 21.501z" />
    <glyph glyph-name="r" unicode="r" horiz-adv-x="354" 
d="M46 531h159.999v-78c24 60 72.667 90 146 90v-138h-50c-39.333 0 -65.166 -8.33301 -77.499 -25s-18.5 -41.667 -18.5 -75v-305h-160v531z" />
    <glyph glyph-name="s" unicode="s" horiz-adv-x="437" 
d="M21 164l152 -0.000976562v-14c0 -21.333 3.5 -36 10.5 -44s18.5 -12 34.5 -12s27.167 4.16699 33.5 12.5s9.5 17.166 9.5 26.499s-2.5 17.666 -7.5 24.999s-10.167 12.666 -15.5 15.999s-12.666 7.66602 -21.999 12.999l-106 57c-34 18 -56.5 37.5 -67.5 58.5
s-16.5 50.167 -16.5 87.5c0 34.667 5 60.834 15 78.501s24.333 32.5 43 44.5c34 22 79.667 33 137 33c130 0 195 -50.667 195 -152v-20h-152v16c0 32.667 -14 49 -42 49c-10.667 0 -20.5 -3.16699 -29.5 -9.5s-13.5 -18.166 -13.5 -35.499c0 -9.33301 3 -17.666 9 -24.999
s12.5 -13 19.5 -17s19.833 -10.667 38.5 -20l92 -46c34 -17.333 56.5 -35 67.5 -53s16.5 -42.333 16.5 -73c0 -31.333 -3 -56.666 -9 -75.999s-17.667 -36.333 -35 -51c-37.333 -31.333 -91 -47 -161 -47c-92.667 0 -152.334 25.667 -179.001 77
c-11.333 22.667 -17 56.334 -17 101.001z" />
    <glyph glyph-name="t" unicode="t" horiz-adv-x="313" 
d="M300 0h-90c-52.667 0 -89 10.167 -109 30.5s-30 53.833 -30 100.5v301h-71v99h71v175h158v-175h71v-99h-71v-276c0 -21.333 4.33301 -35 13 -41s28 -9 58 -9v-106z" />
    <glyph glyph-name="u" unicode="u" 
d="M454 0l-158 -0.000976562v58c-29.333 -48 -69.666 -72 -120.999 -72c-34.667 0 -62.334 8.16699 -83.001 24.5s-34.167 35.833 -40.5 58.5s-9.5 50.334 -9.5 83.001v379h158v-371c0 -34.667 15.667 -52 47 -52c32.667 0 49 18 49 54v369h158v-531z" />
    <glyph glyph-name="v" unicode="v" horiz-adv-x="437" 
d="M434 531l-108 -531h-212l-110 531h155l64 -421l53 421h158z" />
    <glyph glyph-name="w" unicode="w" horiz-adv-x="708" 
d="M712 531l-112 -531h-164l-80 368l-81 -368h-164l-111 531h162l40 -386l66 386h179l63 -386l42 386h160z" />
    <glyph glyph-name="x" unicode="x" horiz-adv-x="437" 
d="M437 0h-166l-50 163l-58 -163h-164l125 276l-118 255h166l49 -156l44 156h162l-114 -255z" />
    <glyph glyph-name="y" unicode="y" horiz-adv-x="437" 
d="M436 531l-127 -545.999l-10.5 -43c-2.33301 -9.33301 -6.33301 -21.5 -12 -36.5s-11.667 -26.167 -18 -33.5s-15 -15.833 -26 -25.5s-23.5 -16.5 -37.5 -20.5s-31.167 -7.66699 -51.5 -11s-43.5 -5 -69.5 -5h-77v103h70c12.667 0 23 1.16699 31 3.5
s13.833 6.66602 17.5 12.999s6 11.5 7 15.5s2.16699 10.667 3.5 20l-138 566h156l64 -417l59 417h159z" />
    <glyph glyph-name="z" unicode="z" horiz-adv-x="396" 
d="M385 430l-197 -328h181v-102h-359v102l196 328h-160v101h339v-101z" />
    <glyph glyph-name="braceleft" unicode="{" horiz-adv-x="354" 
d="M331 709v-70.001c-36.667 0 -60.167 -7.5 -70.5 -22.5s-15.5 -41.5 -15.5 -79.5v-114c0 -47.333 -7.66699 -84.833 -23 -112.5s-44.666 -44.834 -87.999 -51.501v-6c43.333 -5.33301 72.666 -22.333 87.999 -51s23 -67.334 23 -116.001v-98
c0 -18 0.166992 -31.167 0.5 -39.5s2 -18.5 5 -30.5s7.33301 -20.333 13 -25s14.167 -9 25.5 -13s25.333 -6 42 -6v-70h-34c-67.333 0 -115 13 -143 39s-42 70.667 -42 134v95c0 16.667 -0.166992 29.834 -0.5 39.501s-2 21.834 -5 36.501s-7.16699 26.334 -12.5 35.001
s-13.333 16.5 -24 23.5s-23.667 11.167 -39 12.5v75c15.333 1.33301 28.5 5.83301 39.5 13.5s19.167 15.667 24.5 24s9.33301 20.333 12 36s4.16699 28 4.5 37s0.5 22.167 0.5 39.5v101c0 60 15.5 102.333 46.5 127s78.833 37 143.5 37h29z" />
    <glyph glyph-name="bar" unicode="|" horiz-adv-x="229" 
d="M178 -199h-127v906h127v-906z" />
    <glyph glyph-name="braceright" unicode="}" horiz-adv-x="354" 
d="M31 710l34 0.000976562c67.333 0 115 -13 143 -39s42 -70.667 42 -134v-95c0 -16.667 0.166992 -29.834 0.5 -39.501s2 -21.834 5 -36.501s7.16699 -26.334 12.5 -35.001s13.333 -16.5 24 -23.5s23.667 -11.167 39 -12.5v-75
c-15.333 -1.33301 -28.5 -5.83301 -39.5 -13.5s-19.167 -15.667 -24.5 -24s-9.33301 -20.333 -12 -36s-4.16699 -28 -4.5 -37s-0.5 -22.167 -0.5 -39.5v-101c0 -60 -15.5 -102.333 -46.5 -127s-78.833 -37 -143.5 -37h-29v70c36.667 0 60.167 7.5 70.5 22.5
s15.5 41.5 15.5 79.5v114c0 47.333 7.66699 84.833 23 112.5s44.666 44.834 87.999 51.501v6c-43.333 5.33301 -72.666 22.333 -87.999 51s-23 67.334 -23 116.001v98c0 18 -0.166992 31.167 -0.5 39.5s-2 18.5 -5 30.5s-7.33301 20.333 -13 25s-14.167 9 -25.5 13
s-25.333 6 -42 6v70z" />
    <glyph glyph-name="asciitilde" unicode="~" horiz-adv-x="561" 
d="M443 406l64.999 -112c-43.333 -53.333 -87.333 -80 -132 -80c-21.333 0 -50 7 -86 21l-25 10c-28.667 11.333 -49.667 17 -63 17c-15.333 0 -29 -4 -41 -12s-26.667 -22.667 -44 -44l-64 115c22.667 29.333 43.834 50 63.501 62s42.5 18 68.5 18c18 0 43 -6 75 -18
l48 -18c22.667 -8.66699 41 -13 55 -13s26.833 4 38.5 12s25.5 22 41.5 42z" />
    <glyph glyph-name="uni00A0" unicode="&#xa0;" horiz-adv-x="271" 
 />
    <glyph glyph-name="exclamdown" unicode="&#xa1;" horiz-adv-x="292" 
d="M197 554h-148v152h148v-152zM197 0l-148 -0.000976562v87c0 6.66699 10 137.334 30 392.001h93c0.666992 -8.66699 3.16699 -44.5 7.5 -107.5l12 -179.5c3.66699 -56.667 5.5 -91.667 5.5 -105v-87z" />
    <glyph glyph-name="cent" unicode="&#xa2;" horiz-adv-x="458" 
d="M439 187l0.00195312 -47.998c0 -23.333 -3.33301 -43.833 -10 -61.5s-14.834 -31.834 -24.501 -42.501s-22 -19.5 -37 -26.5s-29 -11.833 -42 -14.5s-27.833 -5 -44.5 -7v-129h-83v130c-60 6.66699 -102 22.667 -126 48s-36 62.666 -36 111.999v220
c0 16 0.833008 30.333 2.5 43s5.66699 27.167 12 43.5s15 30.166 26 41.499s26.833 21.5 47.5 30.5s45.334 14.833 74.001 17.5v107h83v-108c22.667 -3.33301 42.167 -7.66602 58.5 -12.999s32.666 -13.333 48.999 -24s28.833 -25.667 37.5 -45s13 -42.333 13 -69v-64h-158
v61c0 32.667 -14.333 49 -43 49s-43 -16.667 -43 -50v-251c0 -32.667 14.667 -49 44 -49c17.333 0 28.666 3.83301 33.999 11.5s8 19.167 8 34.5v53h158z" />
    <glyph glyph-name="sterling" unicode="&#xa3;" horiz-adv-x="583" 
d="M565 236l0.00488281 -57.0029c0 -65.333 -8.66699 -113 -26 -143s-51.333 -45 -102 -45c-34 0 -89 17.333 -165 52c-38.667 -36.667 -82 -55 -130 -55c-34.667 0 -62.334 9 -83.001 27s-31 43 -31 75c0 4.66699 0.166992 9.66699 0.5 15s2.5 13.333 6.5 24
s9.33301 19.834 16 27.501s17.167 14.667 31.5 21s31.166 9.5 50.499 9.5c21.333 0 48.333 -5 81 -15c-0.666992 24.667 -3.66699 45.834 -9 63.501s-17.333 44.5 -36 80.5h-138v81h99c-12.667 31.333 -21.5 56.833 -26.5 76.5s-7.5 44.5 -7.5 74.5
c0 30.667 5.16699 57 15.5 79s22.666 38.833 36.999 50.5s32.5 20.834 54.5 27.501s41.667 10.834 59 12.501s37 2.5 59 2.5c72 0 122.333 -14.5 151 -43.5s43 -77.5 43 -145.5v-44h-139v47c0 50.667 -20.333 76 -61 76c-43.333 0 -65 -22.667 -65 -68
c0 -10 0.833008 -20.5 2.5 -31.5s3.66699 -21.167 6 -30.5s5.16602 -19 8.49902 -29s6.16602 -18 8.49902 -24s5 -12.333 8 -19s4.5 -10.334 4.5 -11.001h162v-81h-131c16.667 -47.333 25 -84.333 25 -111c0 -21.333 -5 -46 -15 -74c22.667 -11.333 42.667 -17 60 -17
c26 0 39 17.667 39 53v69h137zM196.005 94.9971c-18.667 14 -33.333 21 -44 21c-17.333 0 -26 -8 -26 -24c0 -10 3.5 -16.833 10.5 -20.5s13.167 -5.5 18.5 -5.5c10.667 0 19.667 3.5 27 10.5s12 13.167 14 18.5z" />
    <glyph glyph-name="currency" unicode="&#xa4;" horiz-adv-x="679" 
d="M658 570l-78 -80c27.333 -50 41 -100 41 -150c0 -52.667 -14 -103.667 -42 -153l78 -82l-93 -95l-79 82c-46.667 -28 -95 -42 -145 -42c-54 0 -103.333 14.667 -148 44l-79 -82l-93 95l80 82c-28 42.667 -42 92 -42 148c0 54 13.667 105 41 153l-78 80l93 95l78 -80
c42.667 28.667 92 43 148 43c50 0 98.667 -14.333 146 -43l79 81zM476 338c0 42.667 -13.167 78.835 -39.5 108.502s-58.5 44.5 -96.5 44.5c-38.667 0 -71.167 -14.833 -97.5 -44.5s-39.5 -65.834 -39.5 -108.501c0 -42 13.167 -77.5 39.5 -106.5s58.833 -43.5 97.5 -43.5
c38 0 70.167 14.667 96.5 44s39.5 64.666 39.5 105.999z" />
    <glyph glyph-name="yen" unicode="&#xa5;" horiz-adv-x="521" 
d="M515 706l-125 -324h88v-87h-121l-17 -43v-12h138v-86h-139v-154h-167v154h-138v86h137v12l-16 43h-121v87h90l-120 324h168l87 -310l85 310h171z" />
    <glyph glyph-name="brokenbar" unicode="&#xa6;" horiz-adv-x="229" 
d="M178 324h-127v383h127v-383zM178 -199h-127v382h127v-382z" />
    <glyph glyph-name="section" unicode="&#xa7;" horiz-adv-x="437" 
d="M419 667l-57.9961 -107l-29 14c-18 8.66699 -31.5 15 -40.5 19s-20.333 8.33301 -34 13s-24.5 7 -32.5 7c-10 0 -18.333 -2.83301 -25 -8.5s-10 -13.5 -10 -23.5c0 -14 11.667 -28 35 -42s49.166 -27 77.499 -39s54.166 -30.333 77.499 -55s35 -53 35 -85
c0 -41.333 -21.333 -82.666 -64 -123.999c37.333 -26 56 -57.667 56 -95c0 -48 -20 -85.333 -60 -112s-86 -40 -138 -40c-38.667 0 -72.334 5 -101.001 15s-63.334 26.333 -104.001 49l63 108c1.33301 -0.666992 7.83301 -4.5 19.5 -11.5s20 -11.833 25 -14.5l24.5 -13
c11.333 -6 20.333 -10.333 27 -13s14.5 -5.16699 23.5 -7.5s16.833 -3.5 23.5 -3.5c11.333 0 21 3.16699 29 9.5s12 14.833 12 25.5c0 9.33301 -2.5 16.666 -7.5 21.999s-15.167 12.333 -30.5 21l-84 48c-22 12 -38.833 22.5 -50.5 31.5s-22.5 22 -32.5 39
s-15 36.167 -15 57.5c0 46.667 25.333 86.334 76 119.001c-44.667 30 -67 66 -67 108c0 47.333 16.833 82.666 50.5 105.999s75.5 35 125.5 35c59.333 0 127 -17.667 203 -53zM172.004 432c-20.667 -14 -30.999 -30.001 -30.999 -48.001c0 -17.333 10.667 -32.333 32 -45
c15.333 -9.33301 52.666 -30.333 111.999 -63c20 16 30 32 30 48c0 14.667 -7.66699 27 -23 37c-3.33301 2.66699 -43.333 26.334 -120 71.001z" />
    <glyph glyph-name="dieresis" unicode="&#xa8;" horiz-adv-x="271" 
d="M318 609h-142v124h142v-124zM97 609h-144v124h144v-124z" />
    <glyph glyph-name="copyright" unicode="&#xa9;" horiz-adv-x="799" 
d="M443 304l103 0.000976562v-39c0 -52 -11 -88.833 -33 -110.5s-59.667 -32.5 -113 -32.5s-91.833 11.667 -115.5 35s-35.5 63.333 -35.5 120v160c0 56.667 12.5 96.334 37.5 119.001s63.167 34 114.5 34c52.667 0 90 -10.833 112 -32.5s33 -58.167 33 -109.5v-35h-103v40
c0 19.333 -3.5 33.166 -10.5 41.499s-18.167 12.5 -33.5 12.5c-17.333 0 -29.5 -4.5 -36.5 -13.5s-10.5 -27.5 -10.5 -55.5v-162c0 -28 3.5 -46.5 10.5 -55.5s19.167 -13.5 36.5 -13.5c15.333 0 26.5 4.16699 33.5 12.5s10.5 22.166 10.5 41.499v43zM756 354.001
c0 -100.667 -34.332 -185.333 -102.999 -254s-153.334 -103 -254.001 -103c-98.667 0 -182.5 34.667 -251.5 104s-103.5 153.333 -103.5 252c0 99.333 34.667 183.5 104 252.5s153.333 103.5 252 103.5c99.333 0 183.5 -34.333 252.5 -103s103.5 -152.667 103.5 -252z
M705.001 352.002c0 88 -29.501 162.168 -88.501 222.501s-131.167 90.5 -216.5 90.5c-84 0 -155.833 -30.5 -215.5 -91.5s-89.5 -134.5 -89.5 -220.5c0 -86.667 29.5 -160.334 88.5 -221.001s130.833 -91 215.5 -91s156.834 30.333 216.501 91s89.5 134 89.5 220z" />
    <glyph glyph-name="ordfeminine" unicode="&#xaa;" horiz-adv-x="354" 
d="M325 371l-117.998 -0.00292969v23l-13 -8c-8 -4.66699 -13.667 -7.66699 -17 -9s-8.83301 -3.66602 -16.5 -6.99902s-15.334 -5.66602 -23.001 -6.99902s-15.834 -2 -24.501 -2c-53.333 0 -80 28.667 -80 86c0 35.333 6.33301 60 19 74s34.667 26.667 66 38l89 32v19
c0 6.66699 -0.5 11.834 -1.5 15.501s-4 7.16699 -9 10.5s-12.5 5 -22.5 5c-22 0 -33 -9.33301 -33 -28v-22h-99v28c0 62 42.667 93 128 93c57.333 0 95 -9.16699 113 -27.5s27 -47.5 27 -87.5v-173c0 -22 5 -39.667 15 -53zM207.002 467.997v64
c-32.667 -12 -52.167 -21 -58.5 -27s-9.5 -19.667 -9.5 -41c0 -25.333 10 -38 30 -38c25.333 0 38 14 38 42z" />
    <glyph glyph-name="guillemotleft" unicode="&#xab;" horiz-adv-x="396" 
d="M353 128l-141 116v120l141 117v-128l-58 -48l58 -52v-125zM173 127l-142 116v121l142 116v-126l-58 -48l58 -51v-128z" />
    <glyph glyph-name="logicalnot" unicode="&#xac;" horiz-adv-x="559" 
d="M474 52h-157v186h-265v124h422v-310z" />
    <glyph glyph-name="uni00AD" unicode="&#xad;" horiz-adv-x="329" 
d="M301 235h-273v122h273v-122z" />
    <glyph glyph-name="registered" unicode="&#xae;" horiz-adv-x="799" 
d="M563 130l-109 0.00292969c-9.33301 13.333 -14 31 -14 53v78c0 21.333 -3.16699 35.333 -9.5 42s-18.833 10 -37.5 10h-24v-183h-104v449h153c43.333 0 74.333 -7 93 -21s28 -37.333 28 -70v-52c0 -24.667 -4.83301 -43.834 -14.5 -57.501s-26.167 -23.834 -49.5 -30.501
c25.333 -6 42.833 -15.833 52.5 -29.5s14.5 -35.834 14.5 -66.501v-65c0 -24 7 -43 21 -57zM369 401.003h22c17.333 0 29.333 3.5 36 10.5s10 19.167 10 36.5v14c0 23.333 -14 35 -42 35h-26v-96zM756 354.003c0 -100.667 -34.332 -185.333 -102.999 -254
s-153.334 -103 -254.001 -103c-98.667 0 -182.5 34.667 -251.5 104s-103.5 153.333 -103.5 252c0 99.333 34.667 183.5 104 252.5s153.333 103.5 252 103.5c99.333 0 183.5 -34.333 252.5 -103s103.5 -152.667 103.5 -252zM705.001 352.004
c0 88 -29.501 162.168 -88.501 222.501s-131.167 90.5 -216.5 90.5c-84 0 -155.833 -30.5 -215.5 -91.5s-89.5 -134.5 -89.5 -220.5c0 -86.667 29.5 -160.334 88.5 -221.001s130.833 -91 215.5 -91s156.834 30.333 216.501 91s89.5 134 89.5 220z" />
    <glyph glyph-name="macron" unicode="&#xaf;" horiz-adv-x="271" 
d="M291 609h-311v90h311v-90z" />
    <glyph glyph-name="degree" unicode="&#xb0;" horiz-adv-x="354" 
d="M349 573c0 -47.333 -16.833 -88 -50.5 -122s-74.167 -51 -121.5 -51s-87.833 17 -121.5 51s-50.5 74.667 -50.5 122c0 48 16.667 88.667 50 122s74 50 122 50s88.667 -16.667 122 -50s50 -74 50 -122zM233 575c0 15.333 -5.5 28.333 -16.5 39s-24.167 16 -39.5 16
s-28.333 -5.33301 -39 -16s-16 -23.667 -16 -39s5.5 -28.5 16.5 -39.5s23.833 -16.5 38.5 -16.5c15.333 0 28.5 5.5 39.5 16.5s16.5 24.167 16.5 39.5z" />
    <glyph glyph-name="plusminus" unicode="&#xb1;" horiz-adv-x="559" 
d="M478 332h-120v-145h-155v145h-121v126h121v146h155v-146h120v-126zM478 0h-396v126h396v-126z" />
    <glyph glyph-name="twosuperior" unicode="&#xb2;" horiz-adv-x="333" 
d="M303 353l0.00195312 -87.9961h-274v34c0 24 2.16699 44.5 6.5 61.5s13.833 34.5 28.5 52.5s27.667 32.167 39 42.5s32 28.166 62 53.499c18 15.333 29 26.166 33 32.499s6 17.166 6 32.499v14c0 10 -0.666992 18 -2 24s-4.83301 11.5 -10.5 16.5s-13.834 7.5 -24.501 7.5
c-16.667 0 -27.334 -4 -32.001 -12s-7 -18.333 -7 -31v-59h-99v59c0 16 1.33301 29.833 4 41.5s8 24.167 16 37.5s21.5 23.666 40.5 30.999s43.167 11 72.5 11c95.333 0 143 -38.333 143 -115v-18c0 -17.333 -0.666992 -31.5 -2 -42.5s-5.83301 -22 -13.5 -33
s-13 -18.5 -16 -22.5s-12.667 -13 -29 -27l-34.5 -30c-26.667 -24.667 -46.667 -49 -60 -73h153z" />
    <glyph glyph-name="threesuperior" unicode="&#xb3;" horiz-adv-x="333" 
d="M26 422l99.001 -0.00292969v-44c0 -16 3 -27.333 9 -34s15.333 -10 28 -10c24.667 0 37 13 37 39v46c0 14 -3.33301 23.333 -10 28s-17 7 -31 7h-49v81h45c17.333 0 29.166 2.83301 35.499 8.5s9.5 14.834 9.5 27.501v25c0 16.667 -3.33301 27.5 -10 32.5
s-16.334 7.5 -29.001 7.5c-23.333 0 -35 -13.667 -35 -41v-29h-99v49c0 32.667 9.66699 57 29 73s52.333 24 99 24c51.333 0 87.833 -7.66699 109.5 -23s32.5 -40.666 32.5 -75.999v-34c0 -40.667 -15.333 -68 -46 -82c14.667 -5.33301 25.834 -13.5 33.501 -24.5
s12.167 -21 13.5 -30s2 -20.5 2 -34.5v-45c0 -35.333 -10.167 -61.666 -30.5 -78.999s-56.5 -26 -108.5 -26c-55.333 0 -91.5 8.33301 -108.5 25s-25.5 45.667 -25.5 87v52z" />
    <glyph glyph-name="acute" unicode="&#xb4;" horiz-adv-x="271" 
d="M263 735l-137 -125h-118l87 125h168z" />
    <glyph glyph-name="mu" unicode="&#xb5;" 
d="M477 0h-176l-5 58c-6.66699 -24 -14.667 -40.667 -24 -50s-22 -14 -38 -14c-14 0 -25.333 4.66699 -34 14v-195h-158v718h158v-374c0 -32.667 15.667 -49 47 -49c32.667 0 49 18 49 54v369h158v-448c0 -22.667 1.33301 -39 4 -49s9 -21.333 19 -34z" />
    <glyph glyph-name="paragraph" unicode="&#xb6;" horiz-adv-x="575" 
d="M516 618l-36 0.000976562v-786h-94v786h-83v-785h-97v468c-106 27.333 -159 92.666 -159 195.999c0 57.333 17.667 104.333 53 141c23.333 24.667 51 42.167 83 52.5s74 15.5 126 15.5h207v-88z" />
    <glyph glyph-name="periodcentered" unicode="&#xb7;" horiz-adv-x="250" 
d="M199 219h-148v152h148v-152z" />
    <glyph glyph-name="cedilla" unicode="&#xb8;" horiz-adv-x="271" 
d="M124 20l88.001 0.000976562l-66 -78c24 0 45.167 -6.83301 63.5 -20.5s27.5 -32.834 27.5 -57.501c0 -30 -13.5 -53.833 -40.5 -71.5s-55.833 -26.5 -86.5 -26.5c-23.333 0 -39.333 0.333008 -48 1l-17 48c12 -1.33301 22 -2 30 -2c16 0 29.833 4.16699 41.5 12.5
s17.5 19.5 17.5 33.5c0 22.667 -14 34 -42 34c-12.667 0 -26.334 -3.66699 -41.001 -11l-17 35z" />
    <glyph glyph-name="onesuperior" unicode="&#xb9;" horiz-adv-x="333" 
d="M228 265h-99.002v316c-17.333 -13.333 -39.333 -23.333 -66 -30v94c20.667 4 37.334 10.333 50.001 19s23.334 22.667 32.001 42h83v-441z" />
    <glyph glyph-name="ordmasculine" unicode="&#xba;" horiz-adv-x="333" 
d="M302 598v-125.002c0 -35.333 -9.16699 -63.333 -27.5 -84s-53.166 -31 -104.499 -31c-50.667 0 -86.334 10 -107.001 30s-31 50 -31 90v95c0 24.667 0.833008 43.334 2.5 56.001s6.5 26.334 14.5 41.001s21.5 25.167 40.5 31.5s44.167 9.5 75.5 9.5
c47.333 0 82 -9 104 -27s33 -46.667 33 -86zM200 472.998l0.000976562 128.999c0 8 -0.333008 14.167 -1 18.5s-3.66699 8.83301 -9 13.5s-13 7 -23 7c-12.667 0 -21.334 -3.16699 -26.001 -9.5s-7 -16.166 -7 -29.499v-129c0 -8 0.333008 -14.333 1 -19
s3.66699 -9.5 9 -14.5s13 -7.5 23 -7.5s17.667 2.16699 23 6.5s8.33301 8.83301 9 13.5s1 11.667 1 21z" />
    <glyph glyph-name="guillemotright" unicode="&#xbb;" horiz-adv-x="396" 
d="M364 247l-142 -116v125l57 47l-57 51v128l142 -117v-118zM183 245l-141 -116v128l56 47l-56 52v126l141 -117v-120z" />
    <glyph glyph-name="onequarter" unicode="&#xbc;" horiz-adv-x="792" 
d="M551 706l-240 -706h-72l240 706h72zM228 265h-99.002v316c-17.333 -13.333 -39.333 -23.333 -66 -30v94c20.667 4 37.334 10.333 50.001 19s23.334 22.667 32.001 42h83v-441zM770.998 92h-45v-92h-95v92h-152v85l124 265h123v-265h45v-85zM630.998 177v181l-75 -181h75z
" />
    <glyph glyph-name="onehalf" unicode="&#xbd;" horiz-adv-x="792" 
d="M761 88l0.00195312 -87.9961h-274v34c0 24 2.16699 44.5 6.5 61.5s13.833 34.5 28.5 52.5s27.667 32.167 39 42.5s32 28.166 62 53.499c18 15.333 29 26.166 33 32.499s6 17.166 6 32.499v14c0 10 -0.666992 18 -2 24s-4.83301 11.5 -10.5 16.5s-13.834 7.5 -24.501 7.5
c-16.667 0 -27.334 -4 -32.001 -12s-7 -18.333 -7 -31v-59h-99v59c0 16 1.33301 29.833 4 41.5s8 24.167 16 37.5s21.5 23.666 40.5 30.999s43.167 11 72.5 11c95.333 0 143 -38.333 143 -115v-18c0 -17.333 -0.666992 -31.5 -2 -42.5s-5.83301 -22 -13.5 -33
s-13 -18.5 -16 -22.5s-12.667 -13 -29 -27l-34.5 -30c-26.667 -24.667 -46.667 -49 -60 -73h153zM528.002 706.004l-240 -706h-73l240 706h73zM228.002 265.004h-99.002v316c-17.333 -13.333 -39.333 -23.333 -66 -30v94c20.667 4 37.334 10.333 50.001 19
s23.334 22.667 32.001 42h83v-441z" />
    <glyph glyph-name="threequarters" unicode="&#xbe;" horiz-adv-x="792" 
d="M569 706l-240 -706h-73l240 706h73zM26 422l99.001 -0.00292969v-44c0 -16 3 -27.333 9 -34s15.333 -10 28 -10c24.667 0 37 13 37 39v46c0 14 -3.33301 23.333 -10 28s-17 7 -31 7h-49v81h45c17.333 0 29.166 2.83301 35.499 8.5s9.5 14.834 9.5 27.501v25
c0 16.667 -3.33301 27.5 -10 32.5s-16.334 7.5 -29.001 7.5c-23.333 0 -35 -13.667 -35 -41v-29h-99v49c0 32.667 9.66699 57 29 73s52.333 24 99 24c51.333 0 87.833 -7.66699 109.5 -23s32.5 -40.666 32.5 -75.999v-34c0 -40.667 -15.333 -68 -46 -82
c14.667 -5.33301 25.834 -13.5 33.501 -24.5s12.167 -21 13.5 -30s2 -20.5 2 -34.5v-45c0 -35.333 -10.167 -61.666 -30.5 -78.999s-56.5 -26 -108.5 -26c-55.333 0 -91.5 8.33301 -108.5 25s-25.5 45.667 -25.5 87v52zM771.001 91.9971h-45v-92h-95v92h-152v85l124 265h123
v-265h45v-85zM631.001 176.997v181l-75 -181h75z" />
    <glyph glyph-name="questiondown" unicode="&#xbf;" 
d="M416 207v-72.9971c0 -54.667 -14.5 -92.5 -43.5 -113.5s-74.5 -31.5 -136.5 -31.5c-70.667 0 -121.167 11.667 -151.5 35s-45.5 65.333 -45.5 126c0 45.333 9 76.666 27 93.999l83 80c26.667 25.333 43.167 43 49.5 53s9.5 25.333 9.5 46v56h146v-50
c0 -31.333 -4 -55.833 -12 -73.5s-22.667 -36.834 -44 -57.501l-75 -73c-14 -13.333 -23.333 -24.333 -28 -33s-7 -21.334 -7 -38.001c0 -36.667 14 -55 42 -55c28.667 0 43 16.333 43 49v59h143zM208 706.003h148v-151h-148v151z" />
    <glyph glyph-name="Agrave" unicode="&#xc0;" horiz-adv-x="521" 
d="M518 0h-167l-24 161h-131l-25 -161h-167l143 706h228zM310 280l-47 314l-48 -314h95zM337 766h-109l-149 142h161z" />
    <glyph glyph-name="Aacute" unicode="&#xc1;" horiz-adv-x="521" 
d="M518 0h-167l-24 161h-131l-25 -161h-167l143 706h228zM310 280l-47 314l-48 -314h95zM451 910l-151 -142h-106l94 142h163z" />
    <glyph glyph-name="Acircumflex" unicode="&#xc2;" horiz-adv-x="521" 
d="M518 0h-167l-24 161h-131l-25 -161h-167l143 706h228zM310 280l-47 314l-48 -314h95zM450 765h-130l-59 83l-58 -83h-122l96 142h167z" />
    <glyph glyph-name="Atilde" unicode="&#xc3;" horiz-adv-x="521" 
d="M518 0h-167l-24 161h-131l-25 -161h-167l143 706h228zM310 280l-47 314l-48 -314h95zM373 899h50c-8 -81.333 -43.333 -122 -106 -122c-21.333 0 -47.333 6.16699 -78 18.5s-51 18.5 -61 18.5c-22 0 -33 -11 -33 -33h-50c6 80.667 41 121 105 121
c18 0 42.5 -5.83301 73.5 -17.5s51.5 -17.5 61.5 -17.5c21.333 0 34 10.667 38 32z" />
    <glyph glyph-name="Adieresis" unicode="&#xc4;" horiz-adv-x="521" 
d="M518 0h-167l-24 161h-131l-25 -161h-167l143 706h228zM310 280l-47 314l-48 -314h95zM422 785h-134v113h134v-113zM231 785h-136v113h136v-113z" />
    <glyph glyph-name="Aring" unicode="&#xc5;" horiz-adv-x="521" 
d="M518 0h-167l-24 161h-131l-25 -161h-167l143 706h228zM310 280l-47 314l-48 -314h95zM296 828c0 10 -3.66699 18.667 -11 26s-16 11 -26 11s-18.667 -3.66699 -26 -11s-11 -16 -11 -26s3.66699 -18.667 11 -26s16 -11 26 -11s18.667 3.66699 26 11s11 16 11 26zM358 828
c0 -26.667 -9.66504 -49.8301 -28.998 -69.4971s-43 -29.5 -71 -29.5c-26.667 0 -49.667 9.66699 -69 29s-29 42.666 -29 69.999s9.66699 50.666 29 69.999s42.666 29 69.999 29s50.666 -9.83301 69.999 -29.5s29 -42.834 29 -69.501z" />
    <glyph glyph-name="AE" unicode="&#xc6;" horiz-adv-x="771" 
d="M748 0h-358v191h-146l-64 -191h-178l273 706h473v-127h-188v-157h175v-126h-175v-170h188v-126zM390 311v268h-12l-92 -268h104z" />
    <glyph glyph-name="Ccedilla" unicode="&#xc7;" horiz-adv-x="521" 
d="M322 269l172.001 0.000976562v-63c0 -72.667 -13.333 -124.834 -40 -156.501s-75 -50.5 -145 -56.5l-43 -51c24.667 0 46 -6.66699 64 -20s27 -32.666 27 -57.999c0 -30 -13.5 -53.833 -40.5 -71.5s-55.833 -26.5 -86.5 -26.5c-23.333 0 -39.333 0.333008 -48 1l-17 48
c12 -1.33301 22 -2 30 -2c16 0 29.833 4.16699 41.5 12.5s17.5 19.5 17.5 33.5c0 23.333 -14 35 -42 35c-11.333 0 -25 -4 -41 -12l-17 35l66 75c-66.667 4 -113.334 20.5 -140.001 49.5s-40 70.167 -40 123.5v370c0 122.667 74.667 184 224 184
c82 0 140.167 -15.833 174.5 -47.5s51.5 -78.834 51.5 -141.501v-85h-168v93c0 21.333 -4.5 36.333 -13.5 45s-24.167 13 -45.5 13c-20.667 0 -34.667 -5.33301 -42 -16s-11 -26.667 -11 -48v-351c0 -25.333 3.5 -43.333 10.5 -54s22.5 -16 46.5 -16
c22 0 36.667 5.33301 44 16s11 28.667 11 54v88z" />
    <glyph glyph-name="Egrave" unicode="&#xc8;" horiz-adv-x="437" 
d="M416 0h-365v706h365v-124h-194v-163h183v-124h-183v-170h194v-125zM306 766h-109l-149 142h161z" />
    <glyph glyph-name="Eacute" unicode="&#xc9;" horiz-adv-x="437" 
d="M416 0h-365v706h365v-124h-194v-163h183v-124h-183v-170h194v-125zM420 910l-151 -142h-106l94 142h163z" />
    <glyph glyph-name="Ecircumflex" unicode="&#xca;" horiz-adv-x="437" 
d="M416 0h-365v706h365v-124h-194v-163h183v-124h-183v-170h194v-125zM419 765h-130l-59 83l-58 -83h-122l96 142h167z" />
    <glyph glyph-name="Edieresis" unicode="&#xcb;" horiz-adv-x="437" 
d="M416 0h-365v706h365v-124h-194v-163h183v-124h-183v-170h194v-125zM391 785h-134v113h134v-113zM200 785h-136v113h136v-113z" />
    <glyph glyph-name="Igrave" unicode="&#xcc;" horiz-adv-x="271" 
d="M220 0h-171v706h171v-706zM212 766h-109l-149 142h161z" />
    <glyph glyph-name="Iacute" unicode="&#xcd;" horiz-adv-x="271" 
d="M220 0h-171v706h171v-706zM326 910l-151 -142h-106l94 142h163z" />
    <glyph glyph-name="Icircumflex" unicode="&#xce;" horiz-adv-x="271" 
d="M220 0h-171v706h171v-706zM325 765h-130l-59 83l-58 -83h-122l96 142h167z" />
    <glyph glyph-name="Idieresis" unicode="&#xcf;" horiz-adv-x="271" 
d="M220 0h-171v706h171v-706zM298 785h-134v113h134v-113zM107 785h-136v113h136v-113z" />
    <glyph glyph-name="Eth" unicode="&#xd0;" horiz-adv-x="542" 
d="M50 706h275.001c59.333 0 104 -13.667 134 -41s45 -71 45 -131v-364c0 -66.667 -15.333 -111.667 -46 -135s-78.334 -35 -143.001 -35h-265v333h-49v102h49v271zM216.001 584l0.000976562 -148.999h64v-102h-64v-211h53c23.333 0 39.666 4.16699 48.999 12.5
s14 24.166 14 47.499v338c0 23.333 -4.83301 39.833 -14.5 49.5s-26.167 14.5 -49.5 14.5h-52z" />
    <glyph glyph-name="Ntilde" unicode="&#xd1;" horiz-adv-x="562" 
d="M512 0h-172l-147 460v-460h-144v706h169l148 -458v458h146v-706zM394 899h50c-8 -81.333 -43.333 -122 -106 -122c-21.333 0 -47.333 6.16699 -78 18.5s-51 18.5 -61 18.5c-22 0 -33 -11 -33 -33h-50c6 80.667 41 121 105 121c18 0 42.5 -5.83301 73.5 -17.5
s51.5 -17.5 61.5 -17.5c21.333 0 34 10.667 38 32z" />
    <glyph glyph-name="Ograve" unicode="&#xd2;" horiz-adv-x="542" 
d="M499 500v-279c0 -25.333 -0.833008 -46.5 -2.5 -63.5s-6.66699 -37 -15 -60s-20 -41.5 -35 -55.5s-37.167 -26 -66.5 -36s-64.666 -15 -105.999 -15c-78.667 0 -137.334 16.333 -176.001 49s-58 88 -58 166v305c0 73.333 19.167 126.5 57.5 159.5s95.833 49.5 172.5 49.5
c80.667 0 139 -17.5 175 -52.5s54 -90.833 54 -167.5zM211 537v-362c0 -10.667 0.333008 -18.5 1 -23.5s2.66699 -10.833 6 -17.5s9.33301 -11.5 18 -14.5s20 -4.5 34 -4.5c22 0 37.333 4.66699 46 14s13 24.666 13 45.999v361c0 22.667 -4.5 38 -13.5 46
s-25.167 12 -48.5 12c-20.667 0 -35.167 -4.16699 -43.5 -12.5s-12.5 -23.166 -12.5 -44.499zM348 766h-109l-149 142h161z" />
    <glyph glyph-name="Oacute" unicode="&#xd3;" horiz-adv-x="542" 
d="M499 500v-279c0 -25.333 -0.833008 -46.5 -2.5 -63.5s-6.66699 -37 -15 -60s-20 -41.5 -35 -55.5s-37.167 -26 -66.5 -36s-64.666 -15 -105.999 -15c-78.667 0 -137.334 16.333 -176.001 49s-58 88 -58 166v305c0 73.333 19.167 126.5 57.5 159.5s95.833 49.5 172.5 49.5
c80.667 0 139 -17.5 175 -52.5s54 -90.833 54 -167.5zM211 537v-362c0 -10.667 0.333008 -18.5 1 -23.5s2.66699 -10.833 6 -17.5s9.33301 -11.5 18 -14.5s20 -4.5 34 -4.5c22 0 37.333 4.66699 46 14s13 24.666 13 45.999v361c0 22.667 -4.5 38 -13.5 46
s-25.167 12 -48.5 12c-20.667 0 -35.167 -4.16699 -43.5 -12.5s-12.5 -23.166 -12.5 -44.499zM462 910l-151 -142h-106l94 142h163z" />
    <glyph glyph-name="Ocircumflex" unicode="&#xd4;" horiz-adv-x="542" 
d="M499 500v-279c0 -25.333 -0.833008 -46.5 -2.5 -63.5s-6.66699 -37 -15 -60s-20 -41.5 -35 -55.5s-37.167 -26 -66.5 -36s-64.666 -15 -105.999 -15c-78.667 0 -137.334 16.333 -176.001 49s-58 88 -58 166v305c0 73.333 19.167 126.5 57.5 159.5s95.833 49.5 172.5 49.5
c80.667 0 139 -17.5 175 -52.5s54 -90.833 54 -167.5zM211 537v-362c0 -10.667 0.333008 -18.5 1 -23.5s2.66699 -10.833 6 -17.5s9.33301 -11.5 18 -14.5s20 -4.5 34 -4.5c22 0 37.333 4.66699 46 14s13 24.666 13 45.999v361c0 22.667 -4.5 38 -13.5 46
s-25.167 12 -48.5 12c-20.667 0 -35.167 -4.16699 -43.5 -12.5s-12.5 -23.166 -12.5 -44.499zM460 765h-130l-59 83l-58 -83h-122l96 142h167z" />
    <glyph glyph-name="Otilde" unicode="&#xd5;" horiz-adv-x="542" 
d="M499 500v-279c0 -25.333 -0.833008 -46.5 -2.5 -63.5s-6.66699 -37 -15 -60s-20 -41.5 -35 -55.5s-37.167 -26 -66.5 -36s-64.666 -15 -105.999 -15c-78.667 0 -137.334 16.333 -176.001 49s-58 88 -58 166v305c0 73.333 19.167 126.5 57.5 159.5s95.833 49.5 172.5 49.5
c80.667 0 139 -17.5 175 -52.5s54 -90.833 54 -167.5zM211 537v-362c0 -10.667 0.333008 -18.5 1 -23.5s2.66699 -10.833 6 -17.5s9.33301 -11.5 18 -14.5s20 -4.5 34 -4.5c22 0 37.333 4.66699 46 14s13 24.666 13 45.999v361c0 22.667 -4.5 38 -13.5 46
s-25.167 12 -48.5 12c-20.667 0 -35.167 -4.16699 -43.5 -12.5s-12.5 -23.166 -12.5 -44.499zM384 899h50c-8 -81.333 -43.333 -122 -106 -122c-21.333 0 -47.333 6.16699 -78 18.5s-51 18.5 -61 18.5c-22 0 -33 -11 -33 -33h-50c6 80.667 41 121 105 121
c18 0 42.5 -5.83301 73.5 -17.5s51.5 -17.5 61.5 -17.5c21.333 0 34 10.667 38 32z" />
    <glyph glyph-name="Odieresis" unicode="&#xd6;" horiz-adv-x="542" 
d="M499 500v-279c0 -25.333 -0.833008 -46.5 -2.5 -63.5s-6.66699 -37 -15 -60s-20 -41.5 -35 -55.5s-37.167 -26 -66.5 -36s-64.666 -15 -105.999 -15c-78.667 0 -137.334 16.333 -176.001 49s-58 88 -58 166v305c0 73.333 19.167 126.5 57.5 159.5s95.833 49.5 172.5 49.5
c80.667 0 139 -17.5 175 -52.5s54 -90.833 54 -167.5zM211 537v-362c0 -10.667 0.333008 -18.5 1 -23.5s2.66699 -10.833 6 -17.5s9.33301 -11.5 18 -14.5s20 -4.5 34 -4.5c22 0 37.333 4.66699 46 14s13 24.666 13 45.999v361c0 22.667 -4.5 38 -13.5 46
s-25.167 12 -48.5 12c-20.667 0 -35.167 -4.16699 -43.5 -12.5s-12.5 -23.166 -12.5 -44.499zM432 785h-134v113h134v-113zM241 785h-136v113h136v-113z" />
    <glyph glyph-name="multiply" unicode="&#xd7;" horiz-adv-x="558" 
d="M467 212l-94 -101l-96 94l-86 -94l-94 90l88 96l-95 96l97 101l91 -93l84 94l94 -90l-86 -96z" />
    <glyph glyph-name="Oslash" unicode="&#xd8;" horiz-adv-x="542" 
d="M533 687l-53.001 -78c12 -29.333 18 -69.333 18 -120v-279c0 -72.667 -16.167 -127.667 -48.5 -165s-91.5 -56 -177.5 -56c-81.333 0 -140 17 -176 51l-39 -56l-52 35l52 79c-7.33301 20 -12.166 36.5 -14.499 49.5s-3.5 35.167 -3.5 66.5v304c0 134 76.333 201 229 201
c44 0 77.5 -3.66699 100.5 -11s47.167 -21 72.5 -41l39 55zM203.999 317l129 189.998c0 19.333 -0.333008 32.833 -1 40.5s-2.83398 15.834 -6.50098 24.501s-9.66699 14.334 -18 17.001s-20.166 4 -35.499 4c-28 0 -46.333 -4.66699 -55 -14s-13 -23.333 -13 -42v-220z
M332.999 389.998l-129 -188.999c0 -17.333 0.166992 -29.833 0.5 -37.5s1.5 -16.5 3.5 -26.5s5 -16.833 9 -20.5s9.83301 -7 17.5 -10s17.5 -4.5 29.5 -4.5c26 0 44 3.66699 54 11s15 24.666 15 51.999v225z" />
    <glyph glyph-name="Ugrave" unicode="&#xd9;" horiz-adv-x="542" 
d="M48 706l170 -0.000976562v-532c0 -42 18 -63 54 -63c18.667 0 31.667 5.33301 39 16s11 26.334 11 47.001v532h171v-508c0 -34 -2.5 -62.333 -7.5 -85s-14.833 -44.167 -29.5 -64.5s-37 -35.333 -67 -45s-68 -14.5 -114 -14.5c-84.667 0 -143.667 15.833 -177 47.5
s-50 78.5 -50 140.5v529zM347 765.999h-109l-149 142h161z" />
    <glyph glyph-name="Uacute" unicode="&#xda;" horiz-adv-x="542" 
d="M48 706l170 -0.000976562v-532c0 -42 18 -63 54 -63c18.667 0 31.667 5.33301 39 16s11 26.334 11 47.001v532h171v-508c0 -34 -2.5 -62.333 -7.5 -85s-14.833 -44.167 -29.5 -64.5s-37 -35.333 -67 -45s-68 -14.5 -114 -14.5c-84.667 0 -143.667 15.833 -177 47.5
s-50 78.5 -50 140.5v529zM462 909.999l-151 -142h-106l94 142h163z" />
    <glyph glyph-name="Ucircumflex" unicode="&#xdb;" horiz-adv-x="542" 
d="M48 706l170 -0.000976562v-532c0 -42 18 -63 54 -63c18.667 0 31.667 5.33301 39 16s11 26.334 11 47.001v532h171v-508c0 -34 -2.5 -62.333 -7.5 -85s-14.833 -44.167 -29.5 -64.5s-37 -35.333 -67 -45s-68 -14.5 -114 -14.5c-84.667 0 -143.667 15.833 -177 47.5
s-50 78.5 -50 140.5v529zM460 764.999h-130l-59 83l-58 -83h-122l96 142h167z" />
    <glyph glyph-name="Udieresis" unicode="&#xdc;" horiz-adv-x="542" 
d="M48 706l170 -0.000976562v-532c0 -42 18 -63 54 -63c18.667 0 31.667 5.33301 39 16s11 26.334 11 47.001v532h171v-508c0 -34 -2.5 -62.333 -7.5 -85s-14.833 -44.167 -29.5 -64.5s-37 -35.333 -67 -45s-68 -14.5 -114 -14.5c-84.667 0 -143.667 15.833 -177 47.5
s-50 78.5 -50 140.5v529zM433 784.999h-134v113h134v-113zM242 784.999h-136v113h136v-113z" />
    <glyph glyph-name="Yacute" unicode="&#xdd;" horiz-adv-x="521" 
d="M515 706l-176 -458v-248h-167v248l-168 458h168l86 -312l86 312h171zM451 910l-151 -142h-106l94 142h163z" />
    <glyph glyph-name="Thorn" unicode="&#xde;" horiz-adv-x="521" 
d="M220 706v-117h125c55.333 0 95 -11.5 119 -34.5s36 -58.833 36 -107.5v-158c0 -51.333 -10.833 -89 -32.5 -113s-60.167 -36 -115.5 -36h-132v-140h-170v706h170zM220 468l-0.000976562 -203h58c28 0 45.5 5 52.5 15s10.5 31 10.5 63v37
c0 41.333 -3.16699 66.333 -9.5 75s-25.166 13 -56.499 13h-55z" />
    <glyph glyph-name="germandbls" unicode="&#xdf;" horiz-adv-x="521" 
d="M202 0l-156.998 -0.00292969v555c0 56.667 17 98 51 124s85 39 153 39c74.667 0 129.5 -13.833 164.5 -41.5s52.5 -71.167 52.5 -130.5v-28c0 -39.333 -4.16699 -68.166 -12.5 -86.499s-26.166 -32.166 -53.499 -41.499c24.667 -10 42.167 -19.167 52.5 -27.5
s18.5 -23.166 24.5 -44.499s9 -53 9 -95v-75c0 -52 -10.833 -89.667 -32.5 -113s-62.167 -35 -121.5 -35c-24 -0 -53 2.33301 -87 7v78c11.333 -4.66699 23 -7 35 -7c29.333 0 44 17.667 44 53v175c0 30 -19 45 -57 45h-20v96c1.33301 -1.33301 9.66602 -2 24.999 -2
c25.333 1.33301 38 16.333 38 45v61c0 20 -3.83301 35.333 -11.5 46s-22.167 16 -43.5 16c-10.667 0 -19.334 -1 -26.001 -3s-12.834 -7.83301 -18.501 -17.5s-8.5 -23.5 -8.5 -41.5v-551z" />
    <glyph glyph-name="agrave" unicode="&#xe0;" 
d="M473 0l-182.002 0.000976562v45c-3.33301 -2 -9.66602 -6.83301 -18.999 -14.5s-16.666 -13.334 -21.999 -17.001s-13 -8.16699 -23 -13.5s-20.667 -9.16602 -32 -11.499s-23.666 -3.5 -36.999 -3.5c-84.667 0 -127 46.333 -127 139c0 45.333 7 80.5 21 105.5
s39 44.5 75 58.5c92 36 146.667 58.333 164 67v32c0 17.333 -3.33301 30.166 -10 38.499s-19.334 12.5 -38.001 12.5c-29.333 0 -44 -18.667 -44 -56v-27h-153v26c0 56 15 97.5 45 124.5s80.333 40.5 151 40.5c64.667 0 115.5 -11.5 152.5 -34.5s55.5 -63.833 55.5 -122.5
v-306c0 -24 1.5 -40.833 4.5 -50.5s9.16699 -20.5 18.5 -32.5zM290.998 147.001v119.999l-49 -26c-21.333 -11.333 -34.5 -22.166 -39.5 -32.499s-7.5 -26.833 -7.5 -49.5v-14c0 -13.333 0.666992 -23.5 2 -30.5s5 -13.333 11 -19s15 -8.5 27 -8.5c37.333 0 56 20 56 60z
M348.998 609h-128l-141 127h174z" />
    <glyph glyph-name="aacute" unicode="&#xe1;" 
d="M473 0l-182.002 0.000976562v45c-3.33301 -2 -9.66602 -6.83301 -18.999 -14.5s-16.666 -13.334 -21.999 -17.001s-13 -8.16699 -23 -13.5s-20.667 -9.16602 -32 -11.499s-23.666 -3.5 -36.999 -3.5c-84.667 0 -127 46.333 -127 139c0 45.333 7 80.5 21 105.5
s39 44.5 75 58.5c92 36 146.667 58.333 164 67v32c0 17.333 -3.33301 30.166 -10 38.499s-19.334 12.5 -38.001 12.5c-29.333 0 -44 -18.667 -44 -56v-27h-153v26c0 56 15 97.5 45 124.5s80.333 40.5 151 40.5c64.667 0 115.5 -11.5 152.5 -34.5s55.5 -63.833 55.5 -122.5
v-306c0 -24 1.5 -40.833 4.5 -50.5s9.16699 -20.5 18.5 -32.5zM290.998 147.001v119.999l-49 -26c-21.333 -11.333 -34.5 -22.166 -39.5 -32.499s-7.5 -26.833 -7.5 -49.5v-14c0 -13.333 0.666992 -23.5 2 -30.5s5 -13.333 11 -19s15 -8.5 27 -8.5c37.333 0 56 20 56 60z
M409.998 735l-137 -125h-118l87 125h168z" />
    <glyph glyph-name="acircumflex" unicode="&#xe2;" 
d="M473 0l-182.002 0.000976562v45c-3.33301 -2 -9.66602 -6.83301 -18.999 -14.5s-16.666 -13.334 -21.999 -17.001s-13 -8.16699 -23 -13.5s-20.667 -9.16602 -32 -11.499s-23.666 -3.5 -36.999 -3.5c-84.667 0 -127 46.333 -127 139c0 45.333 7 80.5 21 105.5
s39 44.5 75 58.5c92 36 146.667 58.333 164 67v32c0 17.333 -3.33301 30.166 -10 38.499s-19.334 12.5 -38.001 12.5c-29.333 0 -44 -18.667 -44 -56v-27h-153v26c0 56 15 97.5 45 124.5s80.333 40.5 151 40.5c64.667 0 115.5 -11.5 152.5 -34.5s55.5 -63.833 55.5 -122.5
v-306c0 -24 1.5 -40.833 4.5 -50.5s9.16699 -20.5 18.5 -32.5zM290.998 147.001v119.999l-49 -26c-21.333 -11.333 -34.5 -22.166 -39.5 -32.499s-7.5 -26.833 -7.5 -49.5v-14c0 -13.333 0.666992 -23.5 2 -30.5s5 -13.333 11 -19s15 -8.5 27 -8.5c37.333 0 56 20 56 60z
M413.998 612h-118l-45 59l-43 -59h-121l99 124h126z" />
    <glyph glyph-name="atilde" unicode="&#xe3;" 
d="M473 0l-182.002 0.000976562v45c-3.33301 -2 -9.66602 -6.83301 -18.999 -14.5s-16.666 -13.334 -21.999 -17.001s-13 -8.16699 -23 -13.5s-20.667 -9.16602 -32 -11.499s-23.666 -3.5 -36.999 -3.5c-84.667 0 -127 46.333 -127 139c0 45.333 7 80.5 21 105.5
s39 44.5 75 58.5c92 36 146.667 58.333 164 67v32c0 17.333 -3.33301 30.166 -10 38.499s-19.334 12.5 -38.001 12.5c-29.333 0 -44 -18.667 -44 -56v-27h-153v26c0 56 15 97.5 45 124.5s80.333 40.5 151 40.5c64.667 0 115.5 -11.5 152.5 -34.5s55.5 -63.833 55.5 -122.5
v-306c0 -24 1.5 -40.833 4.5 -50.5s9.16699 -20.5 18.5 -32.5zM290.998 147.001v119.999l-49 -26c-21.333 -11.333 -34.5 -22.166 -39.5 -32.499s-7.5 -26.833 -7.5 -49.5v-14c0 -13.333 0.666992 -23.5 2 -30.5s5 -13.333 11 -19s15 -8.5 27 -8.5c37.333 0 56 20 56 60z
M363.998 739h50c-8 -81.333 -43.333 -122 -106 -122c-21.333 0 -47.333 6.16699 -78 18.5s-51 18.5 -61 18.5c-22 0 -33 -11 -33 -33h-50c6 80.667 41 121 105 121c18 0 42.5 -5.83301 73.5 -17.5s51.5 -17.5 61.5 -17.5c21.333 0 34 10.667 38 32z" />
    <glyph glyph-name="adieresis" unicode="&#xe4;" 
d="M473 0l-182.002 0.000976562v45c-3.33301 -2 -9.66602 -6.83301 -18.999 -14.5s-16.666 -13.334 -21.999 -17.001s-13 -8.16699 -23 -13.5s-20.667 -9.16602 -32 -11.499s-23.666 -3.5 -36.999 -3.5c-84.667 0 -127 46.333 -127 139c0 45.333 7 80.5 21 105.5
s39 44.5 75 58.5c92 36 146.667 58.333 164 67v32c0 17.333 -3.33301 30.166 -10 38.499s-19.334 12.5 -38.001 12.5c-29.333 0 -44 -18.667 -44 -56v-27h-153v26c0 56 15 97.5 45 124.5s80.333 40.5 151 40.5c64.667 0 115.5 -11.5 152.5 -34.5s55.5 -63.833 55.5 -122.5
v-306c0 -24 1.5 -40.833 4.5 -50.5s9.16699 -20.5 18.5 -32.5zM290.998 147.001v119.999l-49 -26c-21.333 -11.333 -34.5 -22.166 -39.5 -32.499s-7.5 -26.833 -7.5 -49.5v-14c0 -13.333 0.666992 -23.5 2 -30.5s5 -13.333 11 -19s15 -8.5 27 -8.5c37.333 0 56 20 56 60z
M440.998 609h-142v124h142v-124zM219.998 609h-144v124h144v-124z" />
    <glyph glyph-name="aring" unicode="&#xe5;" 
d="M473 0l-182.002 0.000976562v45c-3.33301 -2 -9.66602 -6.83301 -18.999 -14.5s-16.666 -13.334 -21.999 -17.001s-13 -8.16699 -23 -13.5s-20.667 -9.16602 -32 -11.499s-23.666 -3.5 -36.999 -3.5c-84.667 0 -127 46.333 -127 139c0 45.333 7 80.5 21 105.5
s39 44.5 75 58.5c92 36 146.667 58.333 164 67v32c0 17.333 -3.33301 30.166 -10 38.499s-19.334 12.5 -38.001 12.5c-29.333 0 -44 -18.667 -44 -56v-27h-153v26c0 56 15 97.5 45 124.5s80.333 40.5 151 40.5c64.667 0 115.5 -11.5 152.5 -34.5s55.5 -63.833 55.5 -122.5
v-306c0 -24 1.5 -40.833 4.5 -50.5s9.16699 -20.5 18.5 -32.5zM290.998 147.001v119.999l-49 -26c-21.333 -11.333 -34.5 -22.166 -39.5 -32.499s-7.5 -26.833 -7.5 -49.5v-14c0 -13.333 0.666992 -23.5 2 -30.5s5 -13.333 11 -19s15 -8.5 27 -8.5c37.333 0 56 20 56 60z
M295.998 665c0 10 -3.66699 18.667 -11 26s-16 11 -26 11s-18.667 -3.66699 -26 -11s-11 -16 -11 -26s3.66699 -18.667 11 -26s16 -11 26 -11s18.667 3.66699 26 11s11 16 11 26zM357.998 665c0 -26.667 -9.66504 -49.832 -28.998 -69.499s-43 -29.5 -71 -29.5
c-26.667 0 -49.667 9.66699 -69 29s-29 42.666 -29 69.999s9.66699 50.666 29 69.999s42.666 29 69.999 29s50.666 -9.66699 69.999 -29s29 -42.666 29 -69.999z" />
    <glyph glyph-name="ae" unicode="&#xe6;" horiz-adv-x="729" 
d="M692 175l-0.00195312 -30.998c0 -34 -3.66699 -58.333 -11 -73s-20.333 -29.334 -39 -44.001c-16 -12.667 -38.5 -22.834 -67.5 -30.501s-57.5 -11.5 -85.5 -11.5c-90 0 -153 26 -189 78c-38.667 -52.667 -85.667 -79 -141 -79c-46.667 0 -79.5 12.167 -98.5 36.5
s-28.5 64.833 -28.5 121.5c0 25.333 2.83301 46.833 8.5 64.5s15.5 32.5 29.5 44.5s26.667 21.167 38 27.5s28.666 14.5 51.999 24.5l127 54v38c0 6 -0.333008 11 -1 15s-2.16699 8.83301 -4.5 14.5s-6.83301 10 -13.5 13s-15 4.5 -25 4.5c-28.667 0 -43 -15.667 -43 -47
v-39h-151v32c0 54 16.833 93.833 50.5 119.5s80.167 38.5 139.5 38.5c30.667 0 54.834 -3.16699 72.501 -9.5s36.167 -16.5 55.5 -30.5c20 15.333 38.833 26 56.5 32s43.167 9 76.5 9c70 0 119.5 -15.333 148.5 -46s43.5 -83 43.5 -157v-110h-248v-100
c0 -14.667 2.83301 -25.834 8.5 -33.501s11.334 -12 17.001 -13s12.834 -1.5 21.501 -1.5c10 0 18.333 1.5 25 4.5s11.167 7.5 13.5 13.5s3.83301 10.833 4.5 14.5s1 8.83398 1 15.501v41h157zM286.998 144.002v122c-22.667 -12 -38 -20.333 -46 -25
s-16.833 -11.167 -26.5 -19.5s-15.667 -16.5 -18 -24.5s-3.5 -18.667 -3.5 -32v-24c0 -32 15 -48 45 -48c18 0 30.667 4 38 12s11 21 11 39zM443.998 397.002l0.000976562 -67h91v67c0 30.667 -14.333 46 -43 46c-14.667 0 -25.834 -3 -33.501 -9s-12 -11.5 -13 -16.5
s-1.5 -11.833 -1.5 -20.5z" />
    <glyph glyph-name="ccedilla" unicode="&#xe7;" horiz-adv-x="465" 
d="M281 187l158 0.000976562v-60c0 -83.333 -56 -130.333 -168 -141l-37 -44c24.667 0 46 -6.33301 64 -19s27 -32.334 27 -59.001c0 -29.333 -13.667 -53 -41 -71s-56.666 -27 -87.999 -27c-21.333 0 -36.333 0.333008 -45 1l-17 48c12 -1.33301 22.333 -2 31 -2
c16 0 29.5 4.16699 40.5 12.5s16.5 19.5 16.5 33.5c0 22.667 -14 34 -42 34c-12.667 0 -26.334 -3.66699 -41.001 -11l-15 37l63 71c-100.667 10.667 -151 61.667 -151 153v225c0 32 3.16699 58.5 9.5 79.5s19.5 39.833 39.5 56.5c33.333 27.333 83.666 41 150.999 41
c42.667 0 78.334 -4.83301 107.001 -14.5s49.5 -23.167 62.5 -40.5s21.833 -34.5 26.5 -51.5s7 -36.833 7 -59.5v-51h-158v60c0 33.333 -13.667 50 -41 50c-30 0 -45 -16.667 -45 -50v-251c0 -32.667 15.333 -49 46 -49c26.667 0 40 14.667 40 44v55z" />
    <glyph glyph-name="egrave" unicode="&#xe8;" horiz-adv-x="479" 
d="M446 176v-36.002c0 -103.333 -67.667 -155 -203 -155c-42 0 -77 4.83301 -105 14.5s-49.167 24 -63.5 43s-24.166 39.167 -29.499 60.5s-8 47 -8 77v159c0 74 14.5 127 43.5 159s82.5 48 160.5 48c29.333 0 55 -2.33301 77 -7s42.667 -12.667 62 -24
s34.166 -28.166 44.499 -50.499s15.5 -50.166 15.5 -83.499v-151h-242v-87c0 -34 15 -51 45 -51c17.333 0 30 4.16699 38 12.5s12 21.833 12 40.5v31h153zM198 330.998h92v55c0 38.667 -14.667 58 -44 58c-32 0 -48 -19.333 -48 -58v-55zM334 608.998h-128l-141 127h174z
" />
    <glyph glyph-name="eacute" unicode="&#xe9;" horiz-adv-x="479" 
d="M446 176v-36.002c0 -103.333 -67.667 -155 -203 -155c-42 0 -77 4.83301 -105 14.5s-49.167 24 -63.5 43s-24.166 39.167 -29.499 60.5s-8 47 -8 77v159c0 74 14.5 127 43.5 159s82.5 48 160.5 48c29.333 0 55 -2.33301 77 -7s42.667 -12.667 62 -24
s34.166 -28.166 44.499 -50.499s15.5 -50.166 15.5 -83.499v-151h-242v-87c0 -34 15 -51 45 -51c17.333 0 30 4.16699 38 12.5s12 21.833 12 40.5v31h153zM198 330.998h92v55c0 38.667 -14.667 58 -44 58c-32 0 -48 -19.333 -48 -58v-55zM410 734.998l-137 -125h-118l87 125
h168z" />
    <glyph glyph-name="ecircumflex" unicode="&#xea;" horiz-adv-x="479" 
d="M446 176v-36.002c0 -103.333 -67.667 -155 -203 -155c-42 0 -77 4.83301 -105 14.5s-49.167 24 -63.5 43s-24.166 39.167 -29.499 60.5s-8 47 -8 77v159c0 74 14.5 127 43.5 159s82.5 48 160.5 48c29.333 0 55 -2.33301 77 -7s42.667 -12.667 62 -24
s34.166 -28.166 44.499 -50.499s15.5 -50.166 15.5 -83.499v-151h-242v-87c0 -34 15 -51 45 -51c17.333 0 30 4.16699 38 12.5s12 21.833 12 40.5v31h153zM198 330.998h92v55c0 38.667 -14.667 58 -44 58c-32 0 -48 -19.333 -48 -58v-55zM403 611.998h-118l-45 59l-43 -59
h-121l99 124h126z" />
    <glyph glyph-name="edieresis" unicode="&#xeb;" horiz-adv-x="479" 
d="M446 176v-36.002c0 -103.333 -67.667 -155 -203 -155c-42 0 -77 4.83301 -105 14.5s-49.167 24 -63.5 43s-24.166 39.167 -29.499 60.5s-8 47 -8 77v159c0 74 14.5 127 43.5 159s82.5 48 160.5 48c29.333 0 55 -2.33301 77 -7s42.667 -12.667 62 -24
s34.166 -28.166 44.499 -50.499s15.5 -50.166 15.5 -83.499v-151h-242v-87c0 -34 15 -51 45 -51c17.333 0 30 4.16699 38 12.5s12 21.833 12 40.5v31h153zM198 330.998h92v55c0 38.667 -14.667 58 -44 58c-32 0 -48 -19.333 -48 -58v-55zM421 608.998h-142v124h142v-124z
M200 608.998h-144v124h144v-124z" />
    <glyph glyph-name="igrave" unicode="&#xec;" horiz-adv-x="250" 
d="M204 0h-159v531h159v-531zM220 609h-128l-141 127h174z" />
    <glyph glyph-name="iacute" unicode="&#xed;" horiz-adv-x="250" 
d="M204 0h-159v531h159v-531zM293 735l-137 -125h-118l87 125h168z" />
    <glyph glyph-name="icircumflex" unicode="&#xee;" horiz-adv-x="250" 
d="M204 0h-159v531h159v-531zM287 612h-118l-45 59l-43 -59h-121l99 124h126z" />
    <glyph glyph-name="idieresis" unicode="&#xef;" horiz-adv-x="250" 
d="M204 0h-159v531h159v-531zM306 609h-142v124h142v-124zM85 609h-144v124h144v-124z" />
    <glyph glyph-name="eth" unicode="&#xf0;" horiz-adv-x="479" 
d="M404 702l22.002 -53l-50 -14c10 -12 20.333 -30 31 -54s18.667 -48.5 24 -73.5s8.5 -46.5 9.5 -64.5s1.5 -42.667 1.5 -74v-202c0 -38.667 -3.66699 -67.667 -11 -87c-25.333 -64 -87.333 -96 -186 -96c-96.667 0 -160.334 27.333 -191.001 82c-12 22 -18 58 -18 108v206
c0 16 1.66699 32.167 5 48.5s9.5 34 18.5 53s23.5 34.333 43.5 46s44 17.5 72 17.5c18.667 0 35.334 -3.5 50.001 -10.5s25.5 -14.167 32.5 -21.5s14.5 -17.333 22.5 -30c-8 40.667 -23.333 77.667 -46 111l-122 -32l-20 56l99 26c-14 14 -33 29.667 -57 47l146 39
c9.33301 -6 20.666 -14.833 33.999 -26.5s20.666 -18.5 21.999 -20.5zM285.002 157v219c0 8 -0.333008 14.5 -1 19.5s-2.16699 11.167 -4.5 18.5s-7 12.833 -14 16.5s-15.833 5.5 -26.5 5.5c-30.667 0 -46 -21 -46 -63v-224c0 -9.33301 0.5 -17 1.5 -23
s5.16699 -12.333 12.5 -19s18 -10 32 -10c30.667 0 46 20 46 60z" />
    <glyph glyph-name="ntilde" unicode="&#xf1;" 
d="M457 0h-158v381c0 36.667 -15.667 55 -47 55c-32 0 -48 -16.667 -48 -50v-386h-159v531h159v-50c35.333 43.333 75 65 119 65c40 0 72.333 -13 97 -39s37 -62.667 37 -110v-397zM364 739h50c-8 -81.333 -43.333 -122 -106 -122c-21.333 0 -47.333 6.16699 -78 18.5
s-51 18.5 -61 18.5c-22 0 -33 -11 -33 -33h-50c6 80.667 41 121 105 121c18 0 42.5 -5.83301 73.5 -17.5s51.5 -17.5 61.5 -17.5c21.333 0 34 10.667 38 32z" />
    <glyph glyph-name="ograve" unicode="&#xf2;" horiz-adv-x="479" 
d="M442 380v-217c0 -61.333 -15.833 -106.5 -47.5 -135.5s-82.167 -43.5 -151.5 -43.5c-138 0 -207 56.333 -207 169v209c0 62 15 108 45 138s82.667 45 158 45c135.333 0 203 -55 203 -165zM285 157v219c0 8 -0.333008 14.5 -1 19.5s-2.16699 11.167 -4.5 18.5
s-7 12.833 -14 16.5s-15.833 5.5 -26.5 5.5c-30.667 0 -46 -21 -46 -63v-224c0 -9.33301 0.5 -17 1.5 -23s5.16699 -12.333 12.5 -19s18 -10 32 -10c30.667 0 46 20 46 60zM334 609h-128l-141 127h174z" />
    <glyph glyph-name="oacute" unicode="&#xf3;" horiz-adv-x="479" 
d="M442 380v-217c0 -61.333 -15.833 -106.5 -47.5 -135.5s-82.167 -43.5 -151.5 -43.5c-138 0 -207 56.333 -207 169v209c0 62 15 108 45 138s82.667 45 158 45c135.333 0 203 -55 203 -165zM285 157v219c0 8 -0.333008 14.5 -1 19.5s-2.16699 11.167 -4.5 18.5
s-7 12.833 -14 16.5s-15.833 5.5 -26.5 5.5c-30.667 0 -46 -21 -46 -63v-224c0 -9.33301 0.5 -17 1.5 -23s5.16699 -12.333 12.5 -19s18 -10 32 -10c30.667 0 46 20 46 60zM408 735l-137 -125h-118l87 125h168z" />
    <glyph glyph-name="ocircumflex" unicode="&#xf4;" horiz-adv-x="479" 
d="M442 380v-217c0 -61.333 -15.833 -106.5 -47.5 -135.5s-82.167 -43.5 -151.5 -43.5c-138 0 -207 56.333 -207 169v209c0 62 15 108 45 138s82.667 45 158 45c135.333 0 203 -55 203 -165zM285 157v219c0 8 -0.333008 14.5 -1 19.5s-2.16699 11.167 -4.5 18.5
s-7 12.833 -14 16.5s-15.833 5.5 -26.5 5.5c-30.667 0 -46 -21 -46 -63v-224c0 -9.33301 0.5 -17 1.5 -23s5.16699 -12.333 12.5 -19s18 -10 32 -10c30.667 0 46 20 46 60zM402 612h-118l-45 59l-43 -59h-121l99 124h126z" />
    <glyph glyph-name="otilde" unicode="&#xf5;" horiz-adv-x="479" 
d="M442 380v-217c0 -61.333 -15.833 -106.5 -47.5 -135.5s-82.167 -43.5 -151.5 -43.5c-138 0 -207 56.333 -207 169v209c0 62 15 108 45 138s82.667 45 158 45c135.333 0 203 -55 203 -165zM285 157v219c0 8 -0.333008 14.5 -1 19.5s-2.16699 11.167 -4.5 18.5
s-7 12.833 -14 16.5s-15.833 5.5 -26.5 5.5c-30.667 0 -46 -21 -46 -63v-224c0 -9.33301 0.5 -17 1.5 -23s5.16699 -12.333 12.5 -19s18 -10 32 -10c30.667 0 46 20 46 60zM352 739h50c-8 -81.333 -43.333 -122 -106 -122c-21.333 0 -47.333 6.16699 -78 18.5
s-51 18.5 -61 18.5c-22 0 -33 -11 -33 -33h-50c6 80.667 41 121 105 121c18 0 42.5 -5.83301 73.5 -17.5s51.5 -17.5 61.5 -17.5c21.333 0 34 10.667 38 32z" />
    <glyph glyph-name="odieresis" unicode="&#xf6;" horiz-adv-x="479" 
d="M442 380v-217c0 -61.333 -15.833 -106.5 -47.5 -135.5s-82.167 -43.5 -151.5 -43.5c-138 0 -207 56.333 -207 169v209c0 62 15 108 45 138s82.667 45 158 45c135.333 0 203 -55 203 -165zM285 157v219c0 8 -0.333008 14.5 -1 19.5s-2.16699 11.167 -4.5 18.5
s-7 12.833 -14 16.5s-15.833 5.5 -26.5 5.5c-30.667 0 -46 -21 -46 -63v-224c0 -9.33301 0.5 -17 1.5 -23s5.16699 -12.333 12.5 -19s18 -10 32 -10c30.667 0 46 20 46 60zM421 609h-142v124h142v-124zM200 609h-144v124h144v-124z" />
    <glyph glyph-name="divide" unicode="&#xf7;" horiz-adv-x="559" 
d="M350 417h-139v150h139v-150zM489 237h-419v126h419v-126zM350 32h-139v151h139v-151z" />
    <glyph glyph-name="oslash" unicode="&#xf8;" horiz-adv-x="479" 
d="M456 526l-35.999 -50c15.333 -28.667 23 -61 23 -97v-194c0 -65.333 -14.667 -114.833 -44 -148.5s-83 -50.5 -161 -50.5c-24 0 -49.833 3 -77.5 9s-47.834 14.333 -60.501 25l-30 -42l-52 36l38 55c-8 17.333 -13.5 32.333 -16.5 45s-4.5 32.667 -4.5 60v203
c0 114 68.333 171 205 171c58.667 0 102.667 -10.333 132 -31l32 45zM187.001 372l0.000976562 -119l103 148c-4.66699 26.667 -21.334 40 -50.001 40c-35.333 0 -53 -23 -53 -69zM290.002 154l-0.000976562 137l-103 -151c1.33301 -9.33301 2.83301 -16.5 4.5 -21.5
s6.33398 -10.333 14.001 -16s18.167 -8.5 31.5 -8.5c35.333 0 53 20 53 60z" />
    <glyph glyph-name="ugrave" unicode="&#xf9;" 
d="M454 0l-158 -0.000976562v58c-29.333 -48 -69.666 -72 -120.999 -72c-34.667 0 -62.334 8.16699 -83.001 24.5s-34.167 35.833 -40.5 58.5s-9.5 50.334 -9.5 83.001v379h158v-371c0 -34.667 15.667 -52 47 -52c32.667 0 49 18 49 54v369h158v-531zM355 608.999h-128
l-141 127h174z" />
    <glyph glyph-name="uacute" unicode="&#xfa;" 
d="M454 0l-158 -0.000976562v58c-29.333 -48 -69.666 -72 -120.999 -72c-34.667 0 -62.334 8.16699 -83.001 24.5s-34.167 35.833 -40.5 58.5s-9.5 50.334 -9.5 83.001v379h158v-371c0 -34.667 15.667 -52 47 -52c32.667 0 49 18 49 54v369h158v-531zM409 734.999l-137 -125
h-118l87 125h168z" />
    <glyph glyph-name="ucircumflex" unicode="&#xfb;" 
d="M454 0l-158 -0.000976562v58c-29.333 -48 -69.666 -72 -120.999 -72c-34.667 0 -62.334 8.16699 -83.001 24.5s-34.167 35.833 -40.5 58.5s-9.5 50.334 -9.5 83.001v379h158v-371c0 -34.667 15.667 -52 47 -52c32.667 0 49 18 49 54v369h158v-531zM414 611.999h-118
l-45 59l-43 -59h-121l99 124h126z" />
    <glyph glyph-name="udieresis" unicode="&#xfc;" 
d="M454 0l-158 -0.000976562v58c-29.333 -48 -69.666 -72 -120.999 -72c-34.667 0 -62.334 8.16699 -83.001 24.5s-34.167 35.833 -40.5 58.5s-9.5 50.334 -9.5 83.001v379h158v-371c0 -34.667 15.667 -52 47 -52c32.667 0 49 18 49 54v369h158v-531zM427 608.999h-142v124
h142v-124zM206 608.999h-144v124h144v-124z" />
    <glyph glyph-name="yacute" unicode="&#xfd;" horiz-adv-x="437" 
d="M436 531l-127 -545.999l-10.5 -43c-2.33301 -9.33301 -6.33301 -21.5 -12 -36.5s-11.667 -26.167 -18 -33.5s-15 -15.833 -26 -25.5s-23.5 -16.5 -37.5 -20.5s-31.167 -7.66699 -51.5 -11s-43.5 -5 -69.5 -5h-77v103h70c12.667 0 23 1.16699 31 3.5
s13.833 6.66602 17.5 12.999s6 11.5 7 15.5s2.16699 10.667 3.5 20l-138 566h156l64 -417l59 417h159zM389 735.001l-137 -125h-118l87 125h168z" />
    <glyph glyph-name="thorn" unicode="&#xfe;" 
d="M46 706l158.999 0.00195312v-232c15.333 23.333 32.5 41.166 51.5 53.499s45.5 18.5 79.5 18.5c47.333 0 80.666 -14 99.999 -42s29 -61 29 -99v-241c0 -18.667 -0.666992 -35.167 -2 -49.5s-4.5 -30 -9.5 -47s-12 -31 -21 -42s-21.667 -20.333 -38 -28
s-35.833 -11.5 -58.5 -11.5c-33.333 0 -59.166 5.16699 -77.499 15.5s-36.166 26.166 -53.499 47.499v-236h-159v893zM306.999 165.002v202c0 41.333 -16.667 62 -50 62c-34.667 0 -52 -19.667 -52 -59v-205c0 -44 17 -66 51 -66s51 22 51 66z" />
    <glyph glyph-name="ydieresis" unicode="&#xff;" horiz-adv-x="437" 
d="M436 531l-127 -545.999l-10.5 -43c-2.33301 -9.33301 -6.33301 -21.5 -12 -36.5s-11.667 -26.167 -18 -33.5s-15 -15.833 -26 -25.5s-23.5 -16.5 -37.5 -20.5s-31.167 -7.66699 -51.5 -11s-43.5 -5 -69.5 -5h-77v103h70c12.667 0 23 1.16699 31 3.5
s13.833 6.66602 17.5 12.999s6 11.5 7 15.5s2.16699 10.667 3.5 20l-138 566h156l64 -417l59 417h159zM400 609.001h-142v124h142v-124zM179 609.001h-144v124h144v-124z" />
    <glyph glyph-name="Amacron" unicode="&#x100;" horiz-adv-x="521" 
d="M518 0h-167l-24 161h-131l-25 -161h-167l143 706h228zM310 280l-47 314l-48 -314h95zM417 786h-311v90h311v-90z" />
    <glyph glyph-name="amacron" unicode="&#x101;" 
d="M473 0l-182.002 0.000976562v45c-3.33301 -2 -9.66602 -6.83301 -18.999 -14.5s-16.666 -13.334 -21.999 -17.001s-13 -8.16699 -23 -13.5s-20.667 -9.16602 -32 -11.499s-23.666 -3.5 -36.999 -3.5c-84.667 0 -127 46.333 -127 139c0 45.333 7 80.5 21 105.5
s39 44.5 75 58.5c92 36 146.667 58.333 164 67v32c0 17.333 -3.33301 30.166 -10 38.499s-19.334 12.5 -38.001 12.5c-29.333 0 -44 -18.667 -44 -56v-27h-153v26c0 56 15 97.5 45 124.5s80.333 40.5 151 40.5c64.667 0 115.5 -11.5 152.5 -34.5s55.5 -63.833 55.5 -122.5
v-306c0 -24 1.5 -40.833 4.5 -50.5s9.16699 -20.5 18.5 -32.5zM290.998 147.001v119.999l-49 -26c-21.333 -11.333 -34.5 -22.166 -39.5 -32.499s-7.5 -26.833 -7.5 -49.5v-14c0 -13.333 0.666992 -23.5 2 -30.5s5 -13.333 11 -19s15 -8.5 27 -8.5c37.333 0 56 20 56 60z
M412.998 609h-311v90h311v-90z" />
    <glyph glyph-name="Abreve" unicode="&#x102;" horiz-adv-x="521" 
d="M518 0h-167l-24 161h-131l-25 -161h-167l143 706h228zM310 280l-47 314l-48 -314h95zM346 889l63 -0.000976562c-10.667 -85.333 -60 -128 -148 -128c-50 0 -86.667 12.833 -110 38.5s-35 53.834 -35 84.501v5h63c8 -33.333 36.667 -50 86 -50c22.667 0 41 4.66699 55 14
s22.667 21.333 26 36z" />
    <glyph glyph-name="abreve" unicode="&#x103;" 
d="M473 0l-182.002 0.000976562v45c-3.33301 -2 -9.66602 -6.83301 -18.999 -14.5s-16.666 -13.334 -21.999 -17.001s-13 -8.16699 -23 -13.5s-20.667 -9.16602 -32 -11.499s-23.666 -3.5 -36.999 -3.5c-84.667 0 -127 46.333 -127 139c0 45.333 7 80.5 21 105.5
s39 44.5 75 58.5c92 36 146.667 58.333 164 67v32c0 17.333 -3.33301 30.166 -10 38.499s-19.334 12.5 -38.001 12.5c-29.333 0 -44 -18.667 -44 -56v-27h-153v26c0 56 15 97.5 45 124.5s80.333 40.5 151 40.5c64.667 0 115.5 -11.5 152.5 -34.5s55.5 -63.833 55.5 -122.5
v-306c0 -24 1.5 -40.833 4.5 -50.5s9.16699 -20.5 18.5 -32.5zM290.998 147.001v119.999l-49 -26c-21.333 -11.333 -34.5 -22.166 -39.5 -32.499s-7.5 -26.833 -7.5 -49.5v-14c0 -13.333 0.666992 -23.5 2 -30.5s5 -13.333 11 -19s15 -8.5 27 -8.5c37.333 0 56 20 56 60z
M344.998 733l63 -0.000976562c-10.667 -85.333 -60 -128 -148 -128c-50 0 -86.667 12.833 -110 38.5s-35 53.834 -35 84.501v5h63c8 -33.333 36.667 -50 86 -50c22.667 0 41 4.66699 55 14s22.667 21.333 26 36z" />
    <glyph glyph-name="Aogonek" unicode="&#x104;" horiz-adv-x="521" 
d="M375 0h-23.999l-24 161h-131l-25 -161h-167l143 706h228l143 -706h-32c-10.667 -1.33301 -22.334 -8.33301 -35.001 -21s-19 -26 -19 -40c0 -24 17.333 -36 52 -36c4 0 9.33301 0.333008 16 1l9 2v-96c-16 -2 -30.667 -3 -44 -3c-44.667 0 -78.667 8.5 -102 25.5
s-35 40.833 -35 71.5c0 26.667 13.333 56 40 88zM310.001 280l-47 314l-48 -314h95z" />
    <glyph glyph-name="aogonek" unicode="&#x105;" 
d="M313 0l-22.0029 0.000976562v45c-3.33301 -2 -9.66602 -6.83301 -18.999 -14.5s-16.666 -13.334 -21.999 -17.001s-13 -8.16699 -23 -13.5s-20.667 -9.16602 -32 -11.499s-23.666 -3.5 -36.999 -3.5c-84.667 0 -127 46.333 -127 139c0 45.333 7 80.5 21 105.5
s39 44.5 75 58.5c92 36 146.667 58.333 164 67v32c0 17.333 -3.33301 30.166 -10 38.499s-19.334 12.5 -38.001 12.5c-29.333 0 -44 -18.667 -44 -56v-27h-153v26c0 56 15 97.5 45 124.5s80.333 40.5 151 40.5c64.667 0 115.5 -11.5 152.5 -34.5s55.5 -63.833 55.5 -122.5
v-306c0 -24 1.5 -40.833 4.5 -50.5s9.16699 -20.5 18.5 -32.5h-48c-10 -0 -21.667 -6.66699 -35 -20s-20 -27 -20 -41c0 -24 17.333 -36 52 -36c2.66699 0 6 0.166992 10 0.5s7.33301 0.833008 10 1.5s4.33398 1 5.00098 1v-96c-16 -2 -30.667 -3 -44 -3
c-44.667 0 -78.667 8.5 -102 25.5s-35 40.833 -35 71.5c0 26.667 13.333 56 40 88zM290.997 147.001v119.999l-49 -26c-21.333 -11.333 -34.5 -22.166 -39.5 -32.499s-7.5 -26.833 -7.5 -49.5v-14c0 -13.333 0.666992 -23.5 2 -30.5s5 -13.333 11 -19s15 -8.5 27 -8.5
c37.333 0 56 20 56 60z" />
    <glyph glyph-name="Cacute" unicode="&#x106;" horiz-adv-x="521" 
d="M494 269v-62.998c0 -80 -16.667 -135.833 -50 -167.5s-95.333 -47.5 -186 -47.5c-82 0 -138.833 14.667 -170.5 44s-47.5 72.666 -47.5 129.999v370c0 122.667 74.667 184 224 184c82 0 140.167 -15.833 174.5 -47.5s51.5 -78.834 51.5 -141.501v-85h-168v93
c0 21.333 -4.5 36.333 -13.5 45s-24.167 13 -45.5 13c-20.667 0 -34.667 -5.33301 -42 -16s-11 -26.667 -11 -48v-351c0 -25.333 3.5 -43.333 10.5 -54s22.5 -16 46.5 -16c22 0 36.667 5.33301 44 16s11 28.667 11 54v88h172zM433 910.002l-151 -142h-106l94 142h163z" />
    <glyph glyph-name="cacute" unicode="&#x107;" horiz-adv-x="465" 
d="M439 187l0.000976562 -59.998c0 -10 -0.833008 -19.833 -2.5 -29.5s-6.16699 -21.834 -13.5 -36.501s-17.5 -27.167 -30.5 -37.5s-32.167 -19.333 -57.5 -27s-55 -11.5 -89 -11.5c-30 0 -56.667 2.33301 -80 7s-45.333 12.5 -66 23.5s-36.5 27.167 -47.5 48.5
s-16.5 47.666 -16.5 78.999v225c0 32 3.16699 58.5 9.5 79.5s19.5 39.833 39.5 56.5c33.333 27.333 83.666 41 150.999 41c65.333 0 115.5 -12.833 150.5 -38.5s52.5 -61.167 52.5 -106.5v-72h-158v60c0 33.333 -13.667 50 -41 50c-30 0 -45 -16.667 -45 -50v-251
c0 -32.667 15.333 -49 46 -49c26.667 0 40 14.667 40 44v55h158zM402.001 735.002l-137 -125h-118l87 125h168z" />
    <glyph glyph-name="Ccircumflex" unicode="&#x108;" horiz-adv-x="521" 
d="M494 269v-62.998c0 -80 -16.667 -135.833 -50 -167.5s-95.333 -47.5 -186 -47.5c-82 0 -138.833 14.667 -170.5 44s-47.5 72.666 -47.5 129.999v370c0 122.667 74.667 184 224 184c82 0 140.167 -15.833 174.5 -47.5s51.5 -78.834 51.5 -141.501v-85h-168v93
c0 21.333 -4.5 36.333 -13.5 45s-24.167 13 -45.5 13c-20.667 0 -34.667 -5.33301 -42 -16s-11 -26.667 -11 -48v-351c0 -25.333 3.5 -43.333 10.5 -54s22.5 -16 46.5 -16c22 0 36.667 5.33301 44 16s11 28.667 11 54v88h172zM449 765.002h-130l-59 83l-58 -83h-122l96 142
h167z" />
    <glyph glyph-name="ccircumflex" unicode="&#x109;" horiz-adv-x="465" 
d="M439 187l0.000976562 -59.998c0 -10 -0.833008 -19.833 -2.5 -29.5s-6.16699 -21.834 -13.5 -36.501s-17.5 -27.167 -30.5 -37.5s-32.167 -19.333 -57.5 -27s-55 -11.5 -89 -11.5c-30 0 -56.667 2.33301 -80 7s-45.333 12.5 -66 23.5s-36.5 27.167 -47.5 48.5
s-16.5 47.666 -16.5 78.999v225c0 32 3.16699 58.5 9.5 79.5s19.5 39.833 39.5 56.5c33.333 27.333 83.666 41 150.999 41c65.333 0 115.5 -12.833 150.5 -38.5s52.5 -61.167 52.5 -106.5v-72h-158v60c0 33.333 -13.667 50 -41 50c-30 0 -45 -16.667 -45 -50v-251
c0 -32.667 15.333 -49 46 -49c26.667 0 40 14.667 40 44v55h158zM403.001 612.002h-118l-45 59l-43 -59h-121l99 124h126z" />
    <glyph glyph-name="Cdotaccent" unicode="&#x10a;" horiz-adv-x="521" 
d="M494 269v-62.998c0 -80 -16.667 -135.833 -50 -167.5s-95.333 -47.5 -186 -47.5c-82 0 -138.833 14.667 -170.5 44s-47.5 72.666 -47.5 129.999v370c0 122.667 74.667 184 224 184c82 0 140.167 -15.833 174.5 -47.5s51.5 -78.834 51.5 -141.501v-85h-168v93
c0 21.333 -4.5 36.333 -13.5 45s-24.167 13 -45.5 13c-20.667 0 -34.667 -5.33301 -42 -16s-11 -26.667 -11 -48v-351c0 -25.333 3.5 -43.333 10.5 -54s22.5 -16 46.5 -16c22 0 36.667 5.33301 44 16s11 28.667 11 54v88h172zM337 786.002h-137v112h137v-112z" />
    <glyph glyph-name="cdotaccent" unicode="&#x10b;" horiz-adv-x="465" 
d="M439 187l0.000976562 -59.998c0 -10 -0.833008 -19.833 -2.5 -29.5s-6.16699 -21.834 -13.5 -36.501s-17.5 -27.167 -30.5 -37.5s-32.167 -19.333 -57.5 -27s-55 -11.5 -89 -11.5c-30 0 -56.667 2.33301 -80 7s-45.333 12.5 -66 23.5s-36.5 27.167 -47.5 48.5
s-16.5 47.666 -16.5 78.999v225c0 32 3.16699 58.5 9.5 79.5s19.5 39.833 39.5 56.5c33.333 27.333 83.666 41 150.999 41c65.333 0 115.5 -12.833 150.5 -38.5s52.5 -61.167 52.5 -106.5v-72h-158v60c0 33.333 -13.667 50 -41 50c-30 0 -45 -16.667 -45 -50v-251
c0 -32.667 15.333 -49 46 -49c26.667 0 40 14.667 40 44v55h158zM312.001 609.002h-145v124h145v-124z" />
    <glyph glyph-name="Ccaron" unicode="&#x10c;" horiz-adv-x="521" 
d="M494 269v-62.998c0 -80 -16.667 -135.833 -50 -167.5s-95.333 -47.5 -186 -47.5c-82 0 -138.833 14.667 -170.5 44s-47.5 72.666 -47.5 129.999v370c0 122.667 74.667 184 224 184c82 0 140.167 -15.833 174.5 -47.5s51.5 -78.834 51.5 -141.501v-85h-168v93
c0 21.333 -4.5 36.333 -13.5 45s-24.167 13 -45.5 13c-20.667 0 -34.667 -5.33301 -42 -16s-11 -26.667 -11 -48v-351c0 -25.333 3.5 -43.333 10.5 -54s22.5 -16 46.5 -16c22 0 36.667 5.33301 44 16s11 28.667 11 54v88h172zM445 909.002l-96 -141h-166l-107 141h130
l59 -82l59 82h121z" />
    <glyph glyph-name="ccaron" unicode="&#x10d;" horiz-adv-x="465" 
d="M439 187l0.000976562 -59.998c0 -10 -0.833008 -19.833 -2.5 -29.5s-6.16699 -21.834 -13.5 -36.501s-17.5 -27.167 -30.5 -37.5s-32.167 -19.333 -57.5 -27s-55 -11.5 -89 -11.5c-30 0 -56.667 2.33301 -80 7s-45.333 12.5 -66 23.5s-36.5 27.167 -47.5 48.5
s-16.5 47.666 -16.5 78.999v225c0 32 3.16699 58.5 9.5 79.5s19.5 39.833 39.5 56.5c33.333 27.333 83.666 41 150.999 41c65.333 0 115.5 -12.833 150.5 -38.5s52.5 -61.167 52.5 -106.5v-72h-158v60c0 33.333 -13.667 50 -41 50c-30 0 -45 -16.667 -45 -50v-251
c0 -32.667 15.333 -49 46 -49c26.667 0 40 14.667 40 44v55h158zM400.001 736.002l-98 -125h-126l-103 125h118l46 -59l42 59h121z" />
    <glyph glyph-name="Dcaron" unicode="&#x10e;" horiz-adv-x="542" 
d="M50 706h275.001c59.333 0 104 -13.667 134 -41s45 -71 45 -131v-364c0 -66.667 -15.333 -111.667 -46 -135s-78.334 -35 -143.001 -35h-265v706zM216.001 584l0.000976562 -461.999h53c23.333 0 39.666 4.16699 48.999 12.5s14 24.166 14 47.499v338
c0 23.333 -4.83301 39.833 -14.5 49.5s-26.167 14.5 -49.5 14.5h-52zM434.002 909.001l-96 -141h-166l-107 141h130l59 -82l59 82h121z" />
    <glyph glyph-name="dcaron" unicode="&#x10f;" 
d="M454 0l-158.999 -0.000976562v57c-27.333 -48 -70 -72 -128 -72c-22 0 -41.167 3.5 -57.5 10.5s-29 15.833 -38 26.5s-16.167 24.334 -21.5 41.001s-8.83301 32.667 -10.5 48s-2.5 33 -2.5 53v225c0 12 0.5 23.5 1.5 34.5s4 24.5 9 40.5s11.667 29.5 20 40.5
s20.666 20.667 36.999 29s35.5 12.5 57.5 12.5c56 0 100.333 -24 133 -72v232h159v-706zM295.001 165.999l-0.000976562 214c0 37.333 -17.333 56 -52 56c-32 0 -48 -19 -48 -57v-217c0 -8.66699 0.333008 -15.5 1 -20.5s2.5 -11 5.5 -18s8.33301 -12.333 16 -16
s17.5 -5.5 29.5 -5.5c14.667 0 25.834 4 33.501 12s12 15.667 13 23s1.5 17 1.5 29zM592 603.999l-49 -56h-45l17 56h-38v102h115v-102z" />
    <glyph glyph-name="Dcroat" unicode="&#x110;" horiz-adv-x="542" 
d="M50 706h275.001c59.333 0 104 -13.667 134 -41s45 -71 45 -131v-364c0 -66.667 -15.333 -111.667 -46 -135s-78.334 -35 -143.001 -35h-265v333h-49v102h49v271zM216.001 584l0.000976562 -148.999h64v-102h-64v-211h53c23.333 0 39.666 4.16699 48.999 12.5
s14 24.166 14 47.499v338c0 23.333 -4.83301 39.833 -14.5 49.5s-26.167 14.5 -49.5 14.5h-52z" />
    <glyph glyph-name="dcroat" unicode="&#x111;" 
d="M454 0l-158.999 -0.000976562v57c-27.333 -48 -70 -72 -128 -72c-22 0 -41.167 3.5 -57.5 10.5s-29 15.833 -38 26.5s-16.167 24.334 -21.5 41.001s-8.83301 32.667 -10.5 48s-2.5 33 -2.5 53v225c0 12 0.5 23.5 1.5 34.5s4 24.5 9 40.5s11.667 29.5 20 40.5
s20.666 20.667 36.999 29s35.5 12.5 57.5 12.5c56 0 100.333 -24 133 -72v93h-97v99h97v40h159v-40h46v-99h-46v-567zM295.001 165.999l-0.000976562 214c0 37.333 -17.333 56 -52 56c-32 0 -48 -19 -48 -57v-217c0 -8.66699 0.333008 -15.5 1 -20.5s2.5 -11 5.5 -18
s8.33301 -12.333 16 -16s17.5 -5.5 29.5 -5.5c14.667 0 25.834 4 33.501 12s12 15.667 13 23s1.5 17 1.5 29z" />
    <glyph glyph-name="Emacron" unicode="&#x112;" horiz-adv-x="437" 
d="M416 0h-365v706h365v-124h-194v-163h183v-124h-183v-170h194v-125zM387 786h-311v90h311v-90z" />
    <glyph glyph-name="emacron" unicode="&#x113;" horiz-adv-x="479" 
d="M446 176v-36.002c0 -103.333 -67.667 -155 -203 -155c-42 0 -77 4.83301 -105 14.5s-49.167 24 -63.5 43s-24.166 39.167 -29.499 60.5s-8 47 -8 77v159c0 74 14.5 127 43.5 159s82.5 48 160.5 48c29.333 0 55 -2.33301 77 -7s42.667 -12.667 62 -24
s34.166 -28.166 44.499 -50.499s15.5 -50.166 15.5 -83.499v-151h-242v-87c0 -34 15 -51 45 -51c17.333 0 30 4.16699 38 12.5s12 21.833 12 40.5v31h153zM198 330.998h92v55c0 38.667 -14.667 58 -44 58c-32 0 -48 -19.333 -48 -58v-55zM400 608.998h-311v90h311v-90z" />
    <glyph glyph-name="Ebreve" unicode="&#x114;" horiz-adv-x="437" 
d="M416 0h-365v706h365v-124h-194v-163h183v-124h-183v-170h194v-125zM314 889l63 -0.000976562c-10.667 -85.333 -60 -128 -148 -128c-50 0 -86.667 12.833 -110 38.5s-35 53.834 -35 84.501v5h63c8 -33.333 36.667 -50 86 -50c22.667 0 41 4.66699 55 14
s22.667 21.333 26 36z" />
    <glyph glyph-name="ebreve" unicode="&#x115;" horiz-adv-x="479" 
d="M446 176v-36.002c0 -103.333 -67.667 -155 -203 -155c-42 0 -77 4.83301 -105 14.5s-49.167 24 -63.5 43s-24.166 39.167 -29.499 60.5s-8 47 -8 77v159c0 74 14.5 127 43.5 159s82.5 48 160.5 48c29.333 0 55 -2.33301 77 -7s42.667 -12.667 62 -24
s34.166 -28.166 44.499 -50.499s15.5 -50.166 15.5 -83.499v-151h-242v-87c0 -34 15 -51 45 -51c17.333 0 30 4.16699 38 12.5s12 21.833 12 40.5v31h153zM198 330.998h92v55c0 38.667 -14.667 58 -44 58c-32 0 -48 -19.333 -48 -58v-55zM333 732.998l63 -0.000976562
c-10.667 -85.333 -60 -128 -148 -128c-50 0 -86.667 12.833 -110 38.5s-35 53.834 -35 84.501v5h63c8 -33.333 36.667 -50 86 -50c22.667 0 41 4.66699 55 14s22.667 21.333 26 36z" />
    <glyph glyph-name="Edotaccent" unicode="&#x116;" horiz-adv-x="437" 
d="M416 0h-365v706h365v-124h-194v-163h183v-124h-183v-170h194v-125zM303 786h-137v112h137v-112z" />
    <glyph glyph-name="edotaccent" unicode="&#x117;" horiz-adv-x="479" 
d="M446 176v-36.002c0 -103.333 -67.667 -155 -203 -155c-42 0 -77 4.83301 -105 14.5s-49.167 24 -63.5 43s-24.166 39.167 -29.499 60.5s-8 47 -8 77v159c0 74 14.5 127 43.5 159s82.5 48 160.5 48c29.333 0 55 -2.33301 77 -7s42.667 -12.667 62 -24
s34.166 -28.166 44.499 -50.499s15.5 -50.166 15.5 -83.499v-151h-242v-87c0 -34 15 -51 45 -51c17.333 0 30 4.16699 38 12.5s12 21.833 12 40.5v31h153zM198 330.998h92v55c0 38.667 -14.667 58 -44 58c-32 0 -48 -19.333 -48 -58v-55zM314 608.998h-145v124h145v-124z
" />
    <glyph glyph-name="Eogonek" unicode="&#x118;" horiz-adv-x="437" 
d="M416 0h-365v706h365v-124h-194v-163h183v-124h-183v-170h194v-125zM279 0h111.999c-12 -2 -24.167 -9.16699 -36.5 -21.5s-18.5 -25.5 -18.5 -39.5c0 -24 17.333 -36 52 -36c2.66699 0 6 0.166992 10 0.5s7.33301 0.833008 10 1.5s4.33398 1 5.00098 1v-96
c-16 -2 -30.667 -3 -44 -3c-44.667 0 -78.667 8.5 -102 25.5s-35 40.833 -35 71.5c0 26.667 13.333 56 40 88z" />
    <glyph glyph-name="eogonek" unicode="&#x119;" horiz-adv-x="479" 
d="M446 176v-36c0 -40 -8.5 -69.833 -25.5 -89.5s-42.833 -36.834 -77.5 -51.501c-11.333 -4.66699 -21.666 -12.834 -30.999 -24.501s-14 -23.5 -14 -35.5c0 -24 17.333 -36 52 -36c4 0 9.33301 0.333008 16 1l9 2v-96c-16 -2 -30.667 -3 -44 -3
c-44.667 0 -78.667 8.5 -102 25.5s-35 40.833 -35 71.5c0 27.333 11.333 54.333 34 81c-38.667 1.33301 -71 7 -97 17s-45.667 24.333 -59 43s-22.5 38.667 -27.5 60s-7.5 46.333 -7.5 75v159c0 74 14.5 127 43.5 159s82.5 48 160.5 48c29.333 0 55 -2.33301 77 -7
s42.667 -12.667 62 -24s34.166 -28.166 44.499 -50.499s15.5 -50.166 15.5 -83.499v-151h-242v-87c0 -34 15 -51 45 -51c17.333 0 30 4.16699 38 12.5s12 21.833 12 40.5v31h153zM198 331h92v55c0 38.667 -14.667 58 -44 58c-32 0 -48 -19.333 -48 -58v-55z" />
    <glyph glyph-name="Ecaron" unicode="&#x11a;" horiz-adv-x="437" 
d="M416 0h-365v706h365v-124h-194v-163h183v-124h-183v-170h194v-125zM414 909l-96 -141h-166l-107 141h130l59 -82l59 82h121z" />
    <glyph glyph-name="ecaron" unicode="&#x11b;" horiz-adv-x="479" 
d="M446 176v-36.002c0 -103.333 -67.667 -155 -203 -155c-42 0 -77 4.83301 -105 14.5s-49.167 24 -63.5 43s-24.166 39.167 -29.499 60.5s-8 47 -8 77v159c0 74 14.5 127 43.5 159s82.5 48 160.5 48c29.333 0 55 -2.33301 77 -7s42.667 -12.667 62 -24
s34.166 -28.166 44.499 -50.499s15.5 -50.166 15.5 -83.499v-151h-242v-87c0 -34 15 -51 45 -51c17.333 0 30 4.16699 38 12.5s12 21.833 12 40.5v31h153zM198 330.998h92v55c0 38.667 -14.667 58 -44 58c-32 0 -48 -19.333 -48 -58v-55zM404 735.998l-98 -125h-126
l-103 125h118l46 -59l42 59h121z" />
    <glyph glyph-name="Gcircumflex" unicode="&#x11c;" horiz-adv-x="521" 
d="M483 0h-164.999v65c-30.667 -44.667 -74 -67 -130 -67c-29.333 0 -54.166 5.33301 -74.499 16s-35.666 26 -45.999 46s-17.5 41.333 -21.5 64s-6 49 -6 79v290c0 83.333 15.667 141.833 47 175.5s88.666 50.5 171.999 50.5c24 0 45.167 -0.833008 63.5 -2.5
s38.166 -6 59.499 -13s38.833 -16.5 52.5 -28.5s25.167 -28.833 34.5 -50.5s14 -47.5 14 -77.5v-82h-165v67c0 21.333 -3.83301 37.333 -11.5 48s-21.834 16 -42.501 16c-22 0 -36.333 -5.5 -43 -16.5s-10 -27.833 -10 -50.5v-358c0 -41.333 18 -62 54 -62
c20.667 0 34.667 6 42 18s11 28.333 11 49v80h-65v118h230v-374zM449.001 765h-130l-59 83l-58 -83h-122l96 142h167z" />
    <glyph glyph-name="gcircumflex" unicode="&#x11d;" 
d="M454 531l-0.00195312 -587c0 -68 -16.167 -116.167 -48.5 -144.5s-86.166 -42.5 -161.499 -42.5c-67.333 0 -118.833 11.333 -154.5 34s-53.5 61 -53.5 115v38h160v-32c0 -19.333 3.5 -33.333 10.5 -42s18.833 -13 35.5 -13c34 0 51 20 51 60v127
c-20 -38.667 -59 -58 -117 -58c-92.667 0 -139 51.667 -139 155v244c0 52 9.83301 91.833 29.5 119.5s55.167 41.5 106.5 41.5c32.667 0 57.334 -5.16699 74.001 -15.5s32 -26.833 46 -49.5v50h161zM292.998 154v224c0 38 -15.667 57 -47 57c-33.333 0 -50 -20.333 -50 -61
v-231c0 -34 15.667 -51 47 -51c33.333 0 50 20.667 50 62zM421.998 612h-118l-45 59l-43 -59h-121l99 124h126z" />
    <glyph glyph-name="Gbreve" unicode="&#x11e;" horiz-adv-x="521" 
d="M483 0h-164.999v65c-30.667 -44.667 -74 -67 -130 -67c-29.333 0 -54.166 5.33301 -74.499 16s-35.666 26 -45.999 46s-17.5 41.333 -21.5 64s-6 49 -6 79v290c0 83.333 15.667 141.833 47 175.5s88.666 50.5 171.999 50.5c24 0 45.167 -0.833008 63.5 -2.5
s38.166 -6 59.499 -13s38.833 -16.5 52.5 -28.5s25.167 -28.833 34.5 -50.5s14 -47.5 14 -77.5v-82h-165v67c0 21.333 -3.83301 37.333 -11.5 48s-21.834 16 -42.501 16c-22 0 -36.333 -5.5 -43 -16.5s-10 -27.833 -10 -50.5v-358c0 -41.333 18 -62 54 -62
c20.667 0 34.667 6 42 18s11 28.333 11 49v80h-65v118h230v-374zM346.001 889l63 -0.000976562c-10.667 -85.333 -60 -128 -148 -128c-50 0 -86.667 12.833 -110 38.5s-35 53.834 -35 84.501v5h63c8 -33.333 36.667 -50 86 -50c22.667 0 41 4.66699 55 14
s22.667 21.333 26 36z" />
    <glyph glyph-name="gbreve" unicode="&#x11f;" 
d="M454 531l-0.00195312 -587c0 -68 -16.167 -116.167 -48.5 -144.5s-86.166 -42.5 -161.499 -42.5c-67.333 0 -118.833 11.333 -154.5 34s-53.5 61 -53.5 115v38h160v-32c0 -19.333 3.5 -33.333 10.5 -42s18.833 -13 35.5 -13c34 0 51 20 51 60v127
c-20 -38.667 -59 -58 -117 -58c-92.667 0 -139 51.667 -139 155v244c0 52 9.83301 91.833 29.5 119.5s55.167 41.5 106.5 41.5c32.667 0 57.334 -5.16699 74.001 -15.5s32 -26.833 46 -49.5v50h161zM292.998 154v224c0 38 -15.667 57 -47 57c-33.333 0 -50 -20.333 -50 -61
v-231c0 -34 15.667 -51 47 -51c33.333 0 50 20.667 50 62zM332.998 733l63 -0.000976562c-10.667 -85.333 -60 -128 -148 -128c-50 0 -86.667 12.833 -110 38.5s-35 53.834 -35 84.501v5h63c8 -33.333 36.667 -50 86 -50c22.667 0 41 4.66699 55 14s22.667 21.333 26 36z
" />
    <glyph glyph-name="Gdotaccent" unicode="&#x120;" horiz-adv-x="521" 
d="M483 0h-164.999v65c-30.667 -44.667 -74 -67 -130 -67c-29.333 0 -54.166 5.33301 -74.499 16s-35.666 26 -45.999 46s-17.5 41.333 -21.5 64s-6 49 -6 79v290c0 83.333 15.667 141.833 47 175.5s88.666 50.5 171.999 50.5c24 0 45.167 -0.833008 63.5 -2.5
s38.166 -6 59.499 -13s38.833 -16.5 52.5 -28.5s25.167 -28.833 34.5 -50.5s14 -47.5 14 -77.5v-82h-165v67c0 21.333 -3.83301 37.333 -11.5 48s-21.834 16 -42.501 16c-22 0 -36.333 -5.5 -43 -16.5s-10 -27.833 -10 -50.5v-358c0 -41.333 18 -62 54 -62
c20.667 0 34.667 6 42 18s11 28.333 11 49v80h-65v118h230v-374zM334.001 786h-137v112h137v-112z" />
    <glyph glyph-name="gdotaccent" unicode="&#x121;" 
d="M454 531l-0.00195312 -587c0 -68 -16.167 -116.167 -48.5 -144.5s-86.166 -42.5 -161.499 -42.5c-67.333 0 -118.833 11.333 -154.5 34s-53.5 61 -53.5 115v38h160v-32c0 -19.333 3.5 -33.333 10.5 -42s18.833 -13 35.5 -13c34 0 51 20 51 60v127
c-20 -38.667 -59 -58 -117 -58c-92.667 0 -139 51.667 -139 155v244c0 52 9.83301 91.833 29.5 119.5s55.167 41.5 106.5 41.5c32.667 0 57.334 -5.16699 74.001 -15.5s32 -26.833 46 -49.5v50h161zM292.998 154v224c0 38 -15.667 57 -47 57c-33.333 0 -50 -20.333 -50 -61
v-231c0 -34 15.667 -51 47 -51c33.333 0 50 20.667 50 62zM321.998 609h-145v124h145v-124z" />
    <glyph glyph-name="Gcommaaccent" unicode="&#x122;" horiz-adv-x="521" 
d="M483 0h-164.999v65c-30.667 -44.667 -74 -67 -130 -67c-29.333 0 -54.166 5.33301 -74.499 16s-35.666 26 -45.999 46s-17.5 41.333 -21.5 64s-6 49 -6 79v290c0 83.333 15.667 141.833 47 175.5s88.666 50.5 171.999 50.5c24 0 45.167 -0.833008 63.5 -2.5
s38.166 -6 59.499 -13s38.833 -16.5 52.5 -28.5s25.167 -28.833 34.5 -50.5s14 -47.5 14 -77.5v-82h-165v67c0 21.333 -3.83301 37.333 -11.5 48s-21.834 16 -42.501 16c-22 0 -36.333 -5.5 -43 -16.5s-10 -27.833 -10 -50.5v-358c0 -41.333 18 -62 54 -62
c20.667 0 34.667 6 42 18s11 28.333 11 49v80h-65v118h230v-374zM308.001 -112l-41 -49h-38l14 49h-31v83h96v-83z" />
    <glyph glyph-name="gcommaaccent" unicode="&#x123;" 
d="M454 531l-0.00195312 -587c0 -68 -16.167 -116.167 -48.5 -144.5s-86.166 -42.5 -161.499 -42.5c-67.333 0 -118.833 11.333 -154.5 34s-53.5 61 -53.5 115v38h160v-32c0 -19.333 3.5 -33.333 10.5 -42s18.833 -13 35.5 -13c34 0 51 20 51 60v127
c-20 -38.667 -59 -58 -117 -58c-92.667 0 -139 51.667 -139 155v244c0 52 9.83301 91.833 29.5 119.5s55.167 41.5 106.5 41.5c32.667 0 57.334 -5.16699 74.001 -15.5s32 -26.833 46 -49.5v50h161zM292.998 154v224c0 38 -15.667 57 -47 57c-33.333 0 -50 -20.333 -50 -61
v-231c0 -34 15.667 -51 47 -51c33.333 0 50 20.667 50 62zM194.998 693l41 49h38l-14 -49h31v-83h-96v83z" />
    <glyph glyph-name="Hcircumflex" unicode="&#x124;" horiz-adv-x="562" 
d="M511 0h-171v296h-119v-296h-170v706h170v-285h119v285h171v-706zM467 765h-130l-59 83l-58 -83h-122l96 142h167z" />
    <glyph glyph-name="hcircumflex" unicode="&#x125;" 
d="M454 0l-159 -0.000976562v368c0 42 -15.333 63 -46 63c-31.333 0 -47 -20 -47 -60v-371h-158v706h158v-223c9.33301 12.667 17 22.334 23 29.001s17.5 14.167 34.5 22.5s36.5 12.5 58.5 12.5c46 0 80.167 -13 102.5 -39s33.5 -62.333 33.5 -109v-399zM307 764.999h-130
l-59 83l-58 -83h-122l96 142h167z" />
    <glyph glyph-name="Hbar" unicode="&#x126;" horiz-adv-x="562" 
d="M3 514v116h48v76h170v-76h119v76h171v-76h48v-116h-48v-514h-171v296h-119v-296h-170v514h-48zM221 421h119v93h-119v-93z" />
    <glyph glyph-name="hbar" unicode="&#x127;" 
d="M0 666l44 -0.000976562v40h158v-40h97v-99h-97v-84c9.33301 12.667 17 22.334 23 29.001s17.5 14.167 34.5 22.5s36.5 12.5 58.5 12.5c46 0 80.167 -13 102.5 -39s33.5 -62.333 33.5 -109v-399h-159v368c0 42 -15.333 63 -46 63c-31.333 0 -47 -20 -47 -60v-371h-158v567
h-44v99z" />
    <glyph glyph-name="Itilde" unicode="&#x128;" horiz-adv-x="271" 
d="M220 0h-171v706h171v-706zM250 899h50c-8 -81.333 -43.333 -122 -106 -122c-21.333 0 -47.333 6.16699 -78 18.5s-51 18.5 -61 18.5c-22 0 -33 -11 -33 -33h-50c6 80.667 41 121 105 121c18 0 42.5 -5.83301 73.5 -17.5s51.5 -17.5 61.5 -17.5c21.333 0 34 10.667 38 32z
" />
    <glyph glyph-name="itilde" unicode="&#x129;" horiz-adv-x="250" 
d="M204 0h-159v531h159v-531zM239 739h50c-8 -81.333 -43.333 -122 -106 -122c-21.333 0 -47.333 6.16699 -78 18.5s-51 18.5 -61 18.5c-22 0 -33 -11 -33 -33h-50c6 80.667 41 121 105 121c18 0 42.5 -5.83301 73.5 -17.5s51.5 -17.5 61.5 -17.5c21.333 0 34 10.667 38 32z
" />
    <glyph glyph-name="uni012A" unicode="&#x12a;" horiz-adv-x="271" 
d="M220 0h-171v706h171v-706zM274 786h-279v90h279v-90z" />
    <glyph glyph-name="imacron" unicode="&#x12b;" horiz-adv-x="250" 
d="M204 0h-159v531h159v-531zM264 609h-279v90h279v-90z" />
    <glyph glyph-name="Ibreve" unicode="&#x12c;" horiz-adv-x="271" 
d="M220 0h-171v706h171v-706zM219 889l63 -0.000976562c-10.667 -85.333 -60 -128 -148 -128c-50 0 -86.667 12.833 -110 38.5s-35 53.834 -35 84.501v5h63c8 -33.333 36.667 -50 86 -50c22.667 0 41 4.66699 55 14s22.667 21.333 26 36z" />
    <glyph glyph-name="uni012D" unicode="&#x12d;" horiz-adv-x="250" 
d="M204 0h-159v531h159v-531zM209 733l63 -0.000976562c-10.667 -85.333 -60 -128 -148 -128c-50 0 -86.667 12.833 -110 38.5s-35 53.834 -35 84.501v5h63c8 -33.333 36.667 -50 86 -50c22.667 0 41 4.66699 55 14s22.667 21.333 26 36z" />
    <glyph glyph-name="Iogonek" unicode="&#x12e;" horiz-adv-x="271" 
d="M85 0h-36.001v706h171v-706h-23c-11.333 -1.33301 -23.333 -8.33301 -36 -21s-19 -26 -19 -40c0 -24 17.333 -36 52 -36c2.66699 0 6 0.166992 10 0.5s7.33301 0.833008 10 1.5s4.33398 1 5.00098 1v-96c-16 -2 -30.667 -3 -44 -3c-44.667 0 -78.667 8.5 -102 25.5
s-35 40.833 -35 71.5c0 26.667 13.333 56 40 88z" />
    <glyph glyph-name="iogonek" unicode="&#x12f;" horiz-adv-x="250" 
d="M76 0h-31v531h159v-531h-16c-10.667 -0 -22.5 -6.66699 -35.5 -20s-19.5 -27 -19.5 -41c0 -24 17.333 -36 52 -36c4 0 9 0.333008 15 1l10 2v-96c-16 -2 -30.667 -3 -44 -3c-44.667 0 -78.667 8.5 -102 25.5s-35 40.833 -35 71.5c0 26.667 13.333 56 40 88zM204 584h-159
v122h159v-122z" />
    <glyph glyph-name="Idotaccent" unicode="&#x130;" horiz-adv-x="271" 
d="M220 0h-171v706h171v-706zM204 786h-137v112h137v-112z" />
    <glyph glyph-name="dotlessi" unicode="&#x131;" horiz-adv-x="250" 
d="M204 0h-159v531h159v-531z" />
    <glyph glyph-name="IJ" unicode="&#x132;" horiz-adv-x="604" 
d="M220 0h-171v706h171v-706zM392 706h171v-543c0 -55.333 -11.333 -96.333 -34 -123s-66 -40 -130 -40h-112v122h59c18.667 0 31 4.16699 37 12.5s9 22.5 9 42.5v529z" />
    <glyph glyph-name="ij" unicode="&#x133;" 
d="M204 584h-159v122h159v-122zM204 0h-159v531h159v-531zM450 585h-159v121h159v-121zM450 531v-596.001c0 -46 -10.667 -78.333 -32 -97s-57 -28 -107 -28h-91v106c30 0 49.333 2.83301 58 8.5s13 19.834 13 42.501v564h159z" />
    <glyph glyph-name="Jcircumflex" unicode="&#x134;" horiz-adv-x="333" 
d="M121 706h171v-543c0 -55.333 -11.333 -96.333 -34 -123s-66 -40 -130 -40h-112v122h59c18.667 0 31 4.16699 37 12.5s9 22.5 9 42.5v529zM393 765h-130l-59 83l-58 -83h-122l96 142h167z" />
    <glyph glyph-name="jcircumflex" unicode="&#x135;" horiz-adv-x="250" 
d="M200 531v-596.001c0 -46 -10.667 -78.333 -32 -97s-57 -28 -107 -28h-91v106c30 0 49.333 2.83301 58 8.5s13 19.834 13 42.501v564h159zM289 611.999h-118l-45 59l-43 -59h-121l99 124h126z" />
    <glyph glyph-name="Kcommaaccent" unicode="&#x136;" horiz-adv-x="521" 
d="M541 0h-179l-143 345v-345h-169v706h169v-320l130 320h174l-143 -334zM330 -112l-41 -49h-38l14 49h-31v83h96v-83z" />
    <glyph glyph-name="kcommaaccent" unicode="&#x137;" 
d="M503 0h-178l-122 271v-271h-158v706h158v-376l111 201h178l-143 -228zM310 -112l-41 -49h-38l14 49h-31v83h96v-83z" />
    <glyph glyph-name="kgreenlandic" unicode="&#x138;" 
d="M503 0h-178l-122 271v-271h-158v531h158v-201l111 201h178l-143 -228z" />
    <glyph glyph-name="Lacute" unicode="&#x139;" horiz-adv-x="417" 
d="M398 0h-348v706h172v-581h176v-125zM326 910l-151 -142h-106l94 142h163z" />
    <glyph glyph-name="lacute" unicode="&#x13a;" horiz-adv-x="250" 
d="M205 0h-160v706h160v-706zM320 910l-151 -142h-106l94 142h163z" />
    <glyph glyph-name="Lcommaaccent" unicode="&#x13b;" horiz-adv-x="417" 
d="M398 0h-348v706h172v-581h176v-125zM272 -112l-41 -49h-38l14 49h-31v83h96v-83z" />
    <glyph glyph-name="lcommaaccent" unicode="&#x13c;" horiz-adv-x="250" 
d="M205 0h-160v706h160v-706zM172 -112l-41 -49h-38l14 49h-31v83h96v-83z" />
    <glyph glyph-name="Lcaron" unicode="&#x13d;" horiz-adv-x="417" 
d="M398 0h-348v706h172v-581h176v-125zM360 604l-49 -56h-45l17 56h-38v102h115v-102z" />
    <glyph glyph-name="lcaron" unicode="&#x13e;" horiz-adv-x="250" 
d="M205 0h-160v706h160v-706zM343 604l-49 -56h-45l17 56h-38v102h115v-102z" />
    <glyph glyph-name="Ldot" unicode="&#x13f;" horiz-adv-x="417" 
d="M398 0h-348v706h172v-581h176v-125zM410 310h-145v144h145v-144z" />
    <glyph glyph-name="ldot" unicode="&#x140;" horiz-adv-x="358" 
d="M208 0h-160v706h160v-706zM372 293h-135v143h135v-143z" />
    <glyph glyph-name="Lslash" unicode="&#x141;" horiz-adv-x="417" 
d="M398 0h-348v235l-49 -36v96l49 36v375h172v-247l117 87v-99l-117 -86v-236h176v-125z" />
    <glyph glyph-name="lslash" unicode="&#x142;" horiz-adv-x="250" 
d="M250 470l-45 -44v-426h-160v268l-45 -44v83l45 44v355h160v-200l45 43v-79z" />
    <glyph glyph-name="Nacute" unicode="&#x143;" horiz-adv-x="562" 
d="M512 0h-172l-147 460v-460h-144v706h169l148 -458v458h146v-706zM458 910l-151 -142h-106l94 142h163z" />
    <glyph glyph-name="nacute" unicode="&#x144;" 
d="M457 0h-158v381c0 36.667 -15.667 55 -47 55c-32 0 -48 -16.667 -48 -50v-386h-159v531h159v-50c35.333 43.333 75 65 119 65c40 0 72.333 -13 97 -39s37 -62.667 37 -110v-397zM418 735l-137 -125h-118l87 125h168z" />
    <glyph glyph-name="Ncommaaccent" unicode="&#x145;" horiz-adv-x="562" 
d="M512 0h-172l-147 460v-460h-144v706h169l148 -458v458h146v-706zM329 -112l-41 -49h-38l14 49h-31v83h96v-83z" />
    <glyph glyph-name="ncommaaccent" unicode="&#x146;" 
d="M457 0h-158v381c0 36.667 -15.667 55 -47 55c-32 0 -48 -16.667 -48 -50v-386h-159v531h159v-50c35.333 43.333 75 65 119 65c40 0 72.333 -13 97 -39s37 -62.667 37 -110v-397zM300 -112l-41 -49h-38l14 49h-31v83h96v-83z" />
    <glyph glyph-name="Ncaron" unicode="&#x147;" horiz-adv-x="562" 
d="M512 0h-172l-147 460v-460h-144v706h169l148 -458v458h146v-706zM460 909l-96 -141h-166l-107 141h130l59 -82l59 82h121z" />
    <glyph glyph-name="ncaron" unicode="&#x148;" 
d="M457 0h-158v381c0 36.667 -15.667 55 -47 55c-32 0 -48 -16.667 -48 -50v-386h-159v531h159v-50c35.333 43.333 75 65 119 65c40 0 72.333 -13 97 -39s37 -62.667 37 -110v-397zM414 736l-98 -125h-126l-103 125h118l46 -59l42 59h121z" />
    <glyph glyph-name="napostrophe" unicode="&#x149;" 
d="M457 0h-158v381c0 36.667 -15.667 55 -47 55c-32 0 -48 -16.667 -48 -50v-386h-159v531h159v-50c35.333 43.333 75 65 119 65c40 0 72.333 -13 97 -39s37 -62.667 37 -110v-397zM118 604l-49 -56h-45l17 56h-38v102h115v-102z" />
    <glyph glyph-name="Eng" unicode="&#x14a;" horiz-adv-x="562" 
d="M193 0l-144 0.000976562v706h169l148 -432v432h146v-752c0 -46.667 -10.833 -80.667 -32.5 -102s-57.167 -32 -106.5 -32h-62v122c22 0 36.5 2.16699 43.5 6.5s10.5 14.166 10.5 29.499l-172 482v-460z" />
    <glyph glyph-name="eng" unicode="&#x14b;" 
d="M457 -41c0 -46 -10.501 -78.333 -31.501 -97s-56.5 -28 -106.5 -28h-74v106c20.667 0 34.834 3 42.501 9s11.5 20 11.5 42v390c0 36.667 -15.667 55 -47 55c-32 0 -48 -16.667 -48 -50v-386h-159v531h159v-50c35.333 43.333 75 65 119 65c40 0 72.333 -13 97 -39
s37 -62.667 37 -110v-438z" />
    <glyph glyph-name="Omacron" unicode="&#x14c;" horiz-adv-x="542" 
d="M499 500v-279c0 -25.333 -0.833008 -46.5 -2.5 -63.5s-6.66699 -37 -15 -60s-20 -41.5 -35 -55.5s-37.167 -26 -66.5 -36s-64.666 -15 -105.999 -15c-78.667 0 -137.334 16.333 -176.001 49s-58 88 -58 166v305c0 73.333 19.167 126.5 57.5 159.5s95.833 49.5 172.5 49.5
c80.667 0 139 -17.5 175 -52.5s54 -90.833 54 -167.5zM211 537v-362c0 -10.667 0.333008 -18.5 1 -23.5s2.66699 -10.833 6 -17.5s9.33301 -11.5 18 -14.5s20 -4.5 34 -4.5c22 0 37.333 4.66699 46 14s13 24.666 13 45.999v361c0 22.667 -4.5 38 -13.5 46
s-25.167 12 -48.5 12c-20.667 0 -35.167 -4.16699 -43.5 -12.5s-12.5 -23.166 -12.5 -44.499zM425 786h-311v90h311v-90z" />
    <glyph glyph-name="omacron" unicode="&#x14d;" horiz-adv-x="479" 
d="M442 380v-217c0 -61.333 -15.833 -106.5 -47.5 -135.5s-82.167 -43.5 -151.5 -43.5c-138 0 -207 56.333 -207 169v209c0 62 15 108 45 138s82.667 45 158 45c135.333 0 203 -55 203 -165zM285 157v219c0 8 -0.333008 14.5 -1 19.5s-2.16699 11.167 -4.5 18.5
s-7 12.833 -14 16.5s-15.833 5.5 -26.5 5.5c-30.667 0 -46 -21 -46 -63v-224c0 -9.33301 0.5 -17 1.5 -23s5.16699 -12.333 12.5 -19s18 -10 32 -10c30.667 0 46 20 46 60zM395 609h-311v90h311v-90z" />
    <glyph glyph-name="Obreve" unicode="&#x14e;" horiz-adv-x="542" 
d="M499 500v-279c0 -25.333 -0.833008 -46.5 -2.5 -63.5s-6.66699 -37 -15 -60s-20 -41.5 -35 -55.5s-37.167 -26 -66.5 -36s-64.666 -15 -105.999 -15c-78.667 0 -137.334 16.333 -176.001 49s-58 88 -58 166v305c0 73.333 19.167 126.5 57.5 159.5s95.833 49.5 172.5 49.5
c80.667 0 139 -17.5 175 -52.5s54 -90.833 54 -167.5zM211 537v-362c0 -10.667 0.333008 -18.5 1 -23.5s2.66699 -10.833 6 -17.5s9.33301 -11.5 18 -14.5s20 -4.5 34 -4.5c22 0 37.333 4.66699 46 14s13 24.666 13 45.999v361c0 22.667 -4.5 38 -13.5 46
s-25.167 12 -48.5 12c-20.667 0 -35.167 -4.16699 -43.5 -12.5s-12.5 -23.166 -12.5 -44.499zM354 889l63 -0.000976562c-10.667 -85.333 -60 -128 -148 -128c-50 0 -86.667 12.833 -110 38.5s-35 53.834 -35 84.501v5h63c8 -33.333 36.667 -50 86 -50
c22.667 0 41 4.66699 55 14s22.667 21.333 26 36z" />
    <glyph glyph-name="obreve" unicode="&#x14f;" horiz-adv-x="479" 
d="M442 380v-217c0 -61.333 -15.833 -106.5 -47.5 -135.5s-82.167 -43.5 -151.5 -43.5c-138 0 -207 56.333 -207 169v209c0 62 15 108 45 138s82.667 45 158 45c135.333 0 203 -55 203 -165zM285 157v219c0 8 -0.333008 14.5 -1 19.5s-2.16699 11.167 -4.5 18.5
s-7 12.833 -14 16.5s-15.833 5.5 -26.5 5.5c-30.667 0 -46 -21 -46 -63v-224c0 -9.33301 0.5 -17 1.5 -23s5.16699 -12.333 12.5 -19s18 -10 32 -10c30.667 0 46 20 46 60zM323 733l63 -0.000976562c-10.667 -85.333 -60 -128 -148 -128c-50 0 -86.667 12.833 -110 38.5
s-35 53.834 -35 84.501v5h63c8 -33.333 36.667 -50 86 -50c22.667 0 41 4.66699 55 14s22.667 21.333 26 36z" />
    <glyph glyph-name="Ohungarumlaut" unicode="&#x150;" horiz-adv-x="542" 
d="M499 500v-279c0 -25.333 -0.833008 -46.5 -2.5 -63.5s-6.66699 -37 -15 -60s-20 -41.5 -35 -55.5s-37.167 -26 -66.5 -36s-64.666 -15 -105.999 -15c-78.667 0 -137.334 16.333 -176.001 49s-58 88 -58 166v305c0 73.333 19.167 126.5 57.5 159.5s95.833 49.5 172.5 49.5
c80.667 0 139 -17.5 175 -52.5s54 -90.833 54 -167.5zM211 537v-362c0 -10.667 0.333008 -18.5 1 -23.5s2.66699 -10.833 6 -17.5s9.33301 -11.5 18 -14.5s20 -4.5 34 -4.5c22 0 37.333 4.66699 46 14s13 24.666 13 45.999v361c0 22.667 -4.5 38 -13.5 46
s-25.167 12 -48.5 12c-20.667 0 -35.167 -4.16699 -43.5 -12.5s-12.5 -23.166 -12.5 -44.499zM362 910l-139 -142h-101l92 142h148zM540 910l-139 -142h-101l92 142h148z" />
    <glyph glyph-name="ohungarumlaut" unicode="&#x151;" horiz-adv-x="479" 
d="M442 380v-217c0 -61.333 -15.833 -106.5 -47.5 -135.5s-82.167 -43.5 -151.5 -43.5c-138 0 -207 56.333 -207 169v209c0 62 15 108 45 138s82.667 45 158 45c135.333 0 203 -55 203 -165zM285 157v219c0 8 -0.333008 14.5 -1 19.5s-2.16699 11.167 -4.5 18.5
s-7 12.833 -14 16.5s-15.833 5.5 -26.5 5.5c-30.667 0 -46 -21 -46 -63v-224c0 -9.33301 0.5 -17 1.5 -23s5.16699 -12.333 12.5 -19s18 -10 32 -10c30.667 0 46 20 46 60zM318 735l-131 -125h-106l80 125h157zM499 735l-131 -125h-106l80 125h157z" />
    <glyph glyph-name="OE" unicode="&#x152;" horiz-adv-x="708" 
d="M685 0h-359v31c-39.333 -27.333 -79 -41 -119 -41c-110 0 -165 75 -165 225v283c0 147.333 54.333 221 163 221c46.667 0 87 -15.333 121 -46v33h359v-125h-189v-158h174v-125h-174v-172h189v-126zM212 547v-375c0 -44 18.667 -66 56 -66c13.333 0 24.333 2.16699 33 6.5
s14.667 10.5 18 18.5s5.33301 14.667 6 20s1 12 1 20v376c0 38.667 -18.667 58 -56 58c-38.667 0 -58 -19.333 -58 -58z" />
    <glyph glyph-name="oe" unicode="&#x153;" horiz-adv-x="729" 
d="M695 170l0.00292969 -31.002c0 -102.667 -64.333 -154 -193 -154c-64.667 0 -109.667 11.667 -135 35c-13.333 -8 -23.833 -13.667 -31.5 -17s-20.834 -7.16602 -39.501 -11.499s-39.334 -6.5 -62.001 -6.5c-72 0 -123.167 15.167 -153.5 45.5s-45.5 79.5 -45.5 147.5
v201c0 110.667 67 166 201 166c56.667 0 100.334 -12.667 131.001 -38c16 14.667 32.667 24.667 50 30s42.666 8 75.999 8c68 0 118.167 -14.833 150.5 -44.5s48.5 -68.167 48.5 -115.5v-154h-248v-92c0 -17.333 3.16699 -30.666 9.5 -39.999s19.5 -14 39.5 -14
c19.333 0 32.166 5 38.499 15s9.5 29.333 9.5 58v12h154zM285.003 138.998l-0.000976562 256c0 9.33301 -0.5 16.833 -1.5 22.5s-5.16699 11.834 -12.5 18.501s-18 10 -32 10c-16.667 0 -28.667 -3.66699 -36 -11s-11 -19.333 -11 -36v-263c0 -34.667 15 -52 45 -52
c11.333 0 20.5 1.66699 27.5 5s11.833 8.5 14.5 15.5s4.33398 12.667 5.00098 17s1 10.166 1 17.499zM444.002 326.998h95.001v62c0 10 -0.5 17.833 -1.5 23.5s-5.33301 11.667 -13 18s-18.834 9.5 -33.501 9.5c-31.333 0 -47 -16.667 -47 -50v-63z" />
    <glyph glyph-name="Racute" unicode="&#x154;" horiz-adv-x="521" 
d="M499 0l-156.999 0.00195312c-14 22 -21 57 -21 105v114c0 35.333 -4.33301 57.833 -13 67.5s-31 14.5 -67 14.5h-31v-301h-160v706h241c63.333 0 108.333 -11 135 -33c32 -26 48 -75.333 48 -148c0 -46 -6.33301 -78.833 -19 -98.5s-36 -38.834 -70 -57.501
c35.333 -10 58.666 -22.333 69.999 -37c8.66699 -10.667 14.167 -23.334 16.5 -38.001s3.5 -37 3.5 -67v-150c0 -33.333 8 -59 24 -77zM210.001 584.002v-162h53c26 0 42.167 5.83301 48.5 17.5s9.5 35.5 9.5 71.5c0 32 -3.83301 52.167 -11.5 60.5s-23.5 12.5 -47.5 12.5
h-52zM422.001 910.002l-151 -142h-106l94 142h163z" />
    <glyph glyph-name="racute" unicode="&#x155;" horiz-adv-x="354" 
d="M46 531h159.999v-78c24 60 72.667 90 146 90v-138h-50c-39.333 0 -65.166 -8.33301 -77.499 -25s-18.5 -41.667 -18.5 -75v-305h-160v531zM324.999 735l-137 -125h-118l87 125h168z" />
    <glyph glyph-name="Rcommaaccent" unicode="&#x156;" horiz-adv-x="521" 
d="M499 0l-156.999 0.00195312c-14 22 -21 57 -21 105v114c0 35.333 -4.33301 57.833 -13 67.5s-31 14.5 -67 14.5h-31v-301h-160v706h241c63.333 0 108.333 -11 135 -33c32 -26 48 -75.333 48 -148c0 -46 -6.33301 -78.833 -19 -98.5s-36 -38.834 -70 -57.501
c35.333 -10 58.666 -22.333 69.999 -37c8.66699 -10.667 14.167 -23.334 16.5 -38.001s3.5 -37 3.5 -67v-150c0 -33.333 8 -59 24 -77zM210.001 584.002v-162h53c26 0 42.167 5.83301 48.5 17.5s9.5 35.5 9.5 71.5c0 32 -3.83301 52.167 -11.5 60.5s-23.5 12.5 -47.5 12.5
h-52zM318.001 -111.998l-41 -49h-38l14 49h-31v83h96v-83z" />
    <glyph glyph-name="rcommaaccent" unicode="&#x157;" horiz-adv-x="354" 
d="M46 531h159.999v-78c24 60 72.667 90 146 90v-138h-50c-39.333 0 -65.166 -8.33301 -77.499 -25s-18.5 -41.667 -18.5 -75v-305h-160v531zM177.999 -112l-41 -49h-38l14 49h-31v83h96v-83z" />
    <glyph glyph-name="Rcaron" unicode="&#x158;" horiz-adv-x="521" 
d="M499 0l-156.999 0.00195312c-14 22 -21 57 -21 105v114c0 35.333 -4.33301 57.833 -13 67.5s-31 14.5 -67 14.5h-31v-301h-160v706h241c63.333 0 108.333 -11 135 -33c32 -26 48 -75.333 48 -148c0 -46 -6.33301 -78.833 -19 -98.5s-36 -38.834 -70 -57.501
c35.333 -10 58.666 -22.333 69.999 -37c8.66699 -10.667 14.167 -23.334 16.5 -38.001s3.5 -37 3.5 -67v-150c0 -33.333 8 -59 24 -77zM210.001 584.002v-162h53c26 0 42.167 5.83301 48.5 17.5s9.5 35.5 9.5 71.5c0 32 -3.83301 52.167 -11.5 60.5s-23.5 12.5 -47.5 12.5
h-52zM412.001 909.002l-96 -141h-166l-107 141h130l59 -82l59 82h121z" />
    <glyph glyph-name="rcaron" unicode="&#x159;" horiz-adv-x="354" 
d="M46 531h159.999v-78c24 60 72.667 90 146 90v-138h-50c-39.333 0 -65.166 -8.33301 -77.499 -25s-18.5 -41.667 -18.5 -75v-305h-160v531zM340.999 736l-98 -125h-126l-103 125h118l46 -59l42 59h121z" />
    <glyph glyph-name="Sacute" unicode="&#x15a;" horiz-adv-x="479" 
d="M446 489l-161.002 -0.000976562v50c0 20.667 -3 35.667 -9 45s-19 14 -39 14c-28 0 -42 -17.333 -42 -52v-26c0 -23.333 10.667 -42.333 32 -57l145 -101c37.333 -25.333 61.833 -48.666 73.5 -69.999s17.5 -56 17.5 -104c0 -14.667 -0.5 -27.667 -1.5 -39
s-3.16699 -24.333 -6.5 -39s-8 -27.167 -14 -37.5s-14.5 -21 -25.5 -32s-24.167 -20 -39.5 -27s-34.666 -12.667 -57.999 -17s-49.333 -6.5 -78 -6.5c-105.333 0 -172.666 26.333 -201.999 79c-12.667 24 -19 62.333 -19 115v42h169v-56c0 -37.333 16.667 -56 50 -56
c36 0 54 16.333 54 49c0 28.667 -3 47.834 -9 57.501s-24.333 25.5 -55 47.5l-102 74c-3.33301 2.66699 -9.66602 7.16699 -18.999 13.5s-15.833 10.833 -19.5 13.5s-9.16699 7.16699 -16.5 13.5s-12.333 11.833 -15 16.5l-11.5 19.5c-5 8.33301 -8.33301 16.833 -10 25.5
s-3.33398 19 -5.00098 31s-2.5 25.333 -2.5 40c0 75.333 15.833 128.166 47.5 158.499s89.167 45.5 172.5 45.5c36.667 0 67.667 -3.33301 93 -10s44.833 -15 58.5 -25s24.167 -24.167 31.5 -42.5s11.833 -35.5 13.5 -51.5s2.5 -37.333 2.5 -64v-37zM420.998 909.999
l-151 -142h-106l94 142h163z" />
    <glyph glyph-name="sacute" unicode="&#x15b;" horiz-adv-x="437" 
d="M21 164l152 -0.000976562v-14c0 -21.333 3.5 -36 10.5 -44s18.5 -12 34.5 -12s27.167 4.16699 33.5 12.5s9.5 17.166 9.5 26.499s-2.5 17.666 -7.5 24.999s-10.167 12.666 -15.5 15.999s-12.666 7.66602 -21.999 12.999l-106 57c-34 18 -56.5 37.5 -67.5 58.5
s-16.5 50.167 -16.5 87.5c0 34.667 5 60.834 15 78.501s24.333 32.5 43 44.5c34 22 79.667 33 137 33c130 0 195 -50.667 195 -152v-20h-152v16c0 32.667 -14 49 -42 49c-10.667 0 -20.5 -3.16699 -29.5 -9.5s-13.5 -18.166 -13.5 -35.499c0 -9.33301 3 -17.666 9 -24.999
s12.5 -13 19.5 -17s19.833 -10.667 38.5 -20l92 -46c34 -17.333 56.5 -35 67.5 -53s16.5 -42.333 16.5 -73c0 -31.333 -3 -56.666 -9 -75.999s-17.667 -36.333 -35 -51c-37.333 -31.333 -91 -47 -161 -47c-92.667 0 -152.334 25.667 -179.001 77
c-11.333 22.667 -17 56.334 -17 101.001zM385 734.999l-137 -125h-118l87 125h168z" />
    <glyph glyph-name="Scircumflex" unicode="&#x15c;" horiz-adv-x="479" 
d="M446 489l-161.002 -0.000976562v50c0 20.667 -3 35.667 -9 45s-19 14 -39 14c-28 0 -42 -17.333 -42 -52v-26c0 -23.333 10.667 -42.333 32 -57l145 -101c37.333 -25.333 61.833 -48.666 73.5 -69.999s17.5 -56 17.5 -104c0 -14.667 -0.5 -27.667 -1.5 -39
s-3.16699 -24.333 -6.5 -39s-8 -27.167 -14 -37.5s-14.5 -21 -25.5 -32s-24.167 -20 -39.5 -27s-34.666 -12.667 -57.999 -17s-49.333 -6.5 -78 -6.5c-105.333 0 -172.666 26.333 -201.999 79c-12.667 24 -19 62.333 -19 115v42h169v-56c0 -37.333 16.667 -56 50 -56
c36 0 54 16.333 54 49c0 28.667 -3 47.834 -9 57.501s-24.333 25.5 -55 47.5l-102 74c-3.33301 2.66699 -9.66602 7.16699 -18.999 13.5s-15.833 10.833 -19.5 13.5s-9.16699 7.16699 -16.5 13.5s-12.333 11.833 -15 16.5l-11.5 19.5c-5 8.33301 -8.33301 16.833 -10 25.5
s-3.33398 19 -5.00098 31s-2.5 25.333 -2.5 40c0 75.333 15.833 128.166 47.5 158.499s89.167 45.5 172.5 45.5c36.667 0 67.667 -3.33301 93 -10s44.833 -15 58.5 -25s24.167 -24.167 31.5 -42.5s11.833 -35.5 13.5 -51.5s2.5 -37.333 2.5 -64v-37zM423.998 764.999h-130
l-59 83l-58 -83h-122l96 142h167z" />
    <glyph glyph-name="scircumflex" unicode="&#x15d;" horiz-adv-x="437" 
d="M21 164l152 -0.000976562v-14c0 -21.333 3.5 -36 10.5 -44s18.5 -12 34.5 -12s27.167 4.16699 33.5 12.5s9.5 17.166 9.5 26.499s-2.5 17.666 -7.5 24.999s-10.167 12.666 -15.5 15.999s-12.666 7.66602 -21.999 12.999l-106 57c-34 18 -56.5 37.5 -67.5 58.5
s-16.5 50.167 -16.5 87.5c0 34.667 5 60.834 15 78.501s24.333 32.5 43 44.5c34 22 79.667 33 137 33c130 0 195 -50.667 195 -152v-20h-152v16c0 32.667 -14 49 -42 49c-10.667 0 -20.5 -3.16699 -29.5 -9.5s-13.5 -18.166 -13.5 -35.499c0 -9.33301 3 -17.666 9 -24.999
s12.5 -13 19.5 -17s19.833 -10.667 38.5 -20l92 -46c34 -17.333 56.5 -35 67.5 -53s16.5 -42.333 16.5 -73c0 -31.333 -3 -56.666 -9 -75.999s-17.667 -36.333 -35 -51c-37.333 -31.333 -91 -47 -161 -47c-92.667 0 -152.334 25.667 -179.001 77
c-11.333 22.667 -17 56.334 -17 101.001zM382 611.999h-118l-45 59l-43 -59h-121l99 124h126z" />
    <glyph glyph-name="Scedilla" unicode="&#x15e;" horiz-adv-x="479" 
d="M446 489l-160.999 -0.000976562v50c0 20.667 -3 35.667 -9 45s-19 14 -39 14c-28 0 -42 -17.333 -42 -52v-26c0 -23.333 10.667 -42.333 32 -57l145 -101c37.333 -25.333 61.833 -48.666 73.5 -69.999s17.5 -56 17.5 -104c0 -25.333 -1.66699 -46.833 -5 -64.5
s-10.333 -36.667 -21 -57s-28.667 -36.833 -54 -49.5s-57.333 -20.667 -96 -24l-42 -51c24 0 45.167 -6.83301 63.5 -20.5s27.5 -32.834 27.5 -57.501c0 -30 -13.5 -53.833 -40.5 -71.5s-55.833 -26.5 -86.5 -26.5c-23.333 0 -39.333 0.333008 -48 1l-17 48
c12 -1.33301 22 -2 30 -2c16 0 29.833 4.16699 41.5 12.5s17.5 19.5 17.5 33.5c0 22.667 -14 34 -42 34c-12.667 0 -26.334 -3.66699 -41.001 -11l-17 35l65 75c-82 6.66699 -135.333 32.334 -160 77.001c-12.667 24 -19 62.333 -19 115v42h169v-56
c0 -37.333 16.667 -56 50 -56c36 0 54 16.333 54 49c0 28.667 -3 47.834 -9 57.501s-24.333 25.5 -55 47.5l-102 74c-3.33301 2.66699 -9.66602 7.16699 -18.999 13.5s-15.833 10.833 -19.5 13.5s-9.16699 7.16699 -16.5 13.5s-12.333 11.833 -15 16.5l-11.5 19.5
c-5 8.33301 -8.33301 16.833 -10 25.5s-3.33398 19 -5.00098 31s-2.5 25.333 -2.5 40c0 75.333 15.833 128.166 47.5 158.499s89.167 45.5 172.5 45.5c36.667 0 67.667 -3.33301 93 -10s44.833 -15 58.5 -25s24.167 -24.167 31.5 -42.5s11.833 -35.5 13.5 -51.5
s2.5 -37.333 2.5 -64v-37z" />
    <glyph glyph-name="scedilla" unicode="&#x15f;" horiz-adv-x="437" 
d="M21 164l152 0.000976562v-14c0 -21.333 3.5 -36 10.5 -44s18.5 -12 34.5 -12s27.167 4.16699 33.5 12.5s9.5 17.166 9.5 26.499s-2.5 17.666 -7.5 24.999s-10.167 12.666 -15.5 15.999s-12.666 7.66602 -21.999 12.999l-106 57c-34 18 -56.5 37.5 -67.5 58.5
s-16.5 50.167 -16.5 87.5c0 34.667 5 60.834 15 78.501s24.333 32.5 43 44.5c34 22 79.667 33 137 33c130 0 195 -50.667 195 -152v-20h-152v16c0 32.667 -14 49 -42 49c-10.667 0 -20.5 -3.16699 -29.5 -9.5s-13.5 -18.166 -13.5 -35.499c0 -9.33301 3 -17.666 9 -24.999
s12.5 -13 19.5 -17s19.833 -10.667 38.5 -20l92 -46c34 -17.333 56.5 -35 67.5 -53s16.5 -42.333 16.5 -73c0 -31.333 -3 -56.666 -9 -75.999s-17.667 -36.333 -35 -51c-28 -24.667 -66 -39.334 -114 -44.001l-39 -47c24 0 45.167 -6.83301 63.5 -20.5
s27.5 -32.834 27.5 -57.501c0 -30 -13.5 -53.833 -40.5 -71.5s-55.833 -26.5 -86.5 -26.5c-23.333 0 -39.333 0.333008 -48 1l-17 48c12 -1.33301 22 -2 30 -2c16 0 29.833 4.16699 41.5 12.5s17.5 19.5 17.5 33.5c0 22.667 -14 34 -42 34
c-12.667 0 -26.334 -3.66699 -41.001 -11l-17 35l62 71c-69.333 7.33301 -115 32.333 -137 75c-11.333 22.667 -17 56.334 -17 101.001z" />
    <glyph glyph-name="Scaron" unicode="&#x160;" horiz-adv-x="479" 
d="M446 489l-161.002 -0.000976562v50c0 20.667 -3 35.667 -9 45s-19 14 -39 14c-28 0 -42 -17.333 -42 -52v-26c0 -23.333 10.667 -42.333 32 -57l145 -101c37.333 -25.333 61.833 -48.666 73.5 -69.999s17.5 -56 17.5 -104c0 -14.667 -0.5 -27.667 -1.5 -39
s-3.16699 -24.333 -6.5 -39s-8 -27.167 -14 -37.5s-14.5 -21 -25.5 -32s-24.167 -20 -39.5 -27s-34.666 -12.667 -57.999 -17s-49.333 -6.5 -78 -6.5c-105.333 0 -172.666 26.333 -201.999 79c-12.667 24 -19 62.333 -19 115v42h169v-56c0 -37.333 16.667 -56 50 -56
c36 0 54 16.333 54 49c0 28.667 -3 47.834 -9 57.501s-24.333 25.5 -55 47.5l-102 74c-3.33301 2.66699 -9.66602 7.16699 -18.999 13.5s-15.833 10.833 -19.5 13.5s-9.16699 7.16699 -16.5 13.5s-12.333 11.833 -15 16.5l-11.5 19.5c-5 8.33301 -8.33301 16.833 -10 25.5
s-3.33398 19 -5.00098 31s-2.5 25.333 -2.5 40c0 75.333 15.833 128.166 47.5 158.499s89.167 45.5 172.5 45.5c36.667 0 67.667 -3.33301 93 -10s44.833 -15 58.5 -25s24.167 -24.167 31.5 -42.5s11.833 -35.5 13.5 -51.5s2.5 -37.333 2.5 -64v-37zM418.998 908.999
l-96 -141h-166l-107 141h130l59 -82l59 82h121z" />
    <glyph glyph-name="scaron" unicode="&#x161;" horiz-adv-x="437" 
d="M21 164l152 -0.000976562v-14c0 -21.333 3.5 -36 10.5 -44s18.5 -12 34.5 -12s27.167 4.16699 33.5 12.5s9.5 17.166 9.5 26.499s-2.5 17.666 -7.5 24.999s-10.167 12.666 -15.5 15.999s-12.666 7.66602 -21.999 12.999l-106 57c-34 18 -56.5 37.5 -67.5 58.5
s-16.5 50.167 -16.5 87.5c0 34.667 5 60.834 15 78.501s24.333 32.5 43 44.5c34 22 79.667 33 137 33c130 0 195 -50.667 195 -152v-20h-152v16c0 32.667 -14 49 -42 49c-10.667 0 -20.5 -3.16699 -29.5 -9.5s-13.5 -18.166 -13.5 -35.499c0 -9.33301 3 -17.666 9 -24.999
s12.5 -13 19.5 -17s19.833 -10.667 38.5 -20l92 -46c34 -17.333 56.5 -35 67.5 -53s16.5 -42.333 16.5 -73c0 -31.333 -3 -56.666 -9 -75.999s-17.667 -36.333 -35 -51c-37.333 -31.333 -91 -47 -161 -47c-92.667 0 -152.334 25.667 -179.001 77
c-11.333 22.667 -17 56.334 -17 101.001zM382 735.999l-98 -125h-126l-103 125h118l46 -59l42 59h121z" />
    <glyph glyph-name="Tcommaaccent" unicode="&#x162;" horiz-adv-x="479" 
d="M467 583h-141v-583h-173v583h-140v123h454v-123zM287 -112l-41 -49h-38l14 49h-31v83h96v-83z" />
    <glyph glyph-name="tcommaaccent" unicode="&#x163;" horiz-adv-x="313" 
d="M300 0h-90c-52.667 0 -89 10.167 -109 30.5s-30 53.833 -30 100.5v301h-71v99h71v175h158v-175h71v-99h-71v-276c0 -21.333 4.33301 -35 13 -41s28 -9 58 -9v-106zM222 -112l-41 -49h-38l14 49h-31v83h96v-83z" />
    <glyph glyph-name="Tcaron" unicode="&#x164;" horiz-adv-x="479" 
d="M467 583h-141v-583h-173v583h-140v123h454v-123zM419 909l-96 -141h-166l-107 141h130l59 -82l59 82h121z" />
    <glyph glyph-name="tcaron" unicode="&#x165;" horiz-adv-x="313" 
d="M300 0h-90c-52.667 0 -89 10.167 -109 30.5s-30 53.833 -30 100.5v301h-71v99h71v175h158v-175h71v-99h-71v-276c0 -21.333 4.33301 -35 13 -41s28 -9 58 -9v-106zM376 604l-49 -56h-45l17 56h-38v102h115v-102z" />
    <glyph glyph-name="Tbar" unicode="&#x166;" horiz-adv-x="479" 
d="M69 360v116h84v107h-140v123h454v-123h-141v-107h84v-116h-84v-360h-173v360h-84z" />
    <glyph glyph-name="tbar" unicode="&#x167;" horiz-adv-x="313" 
d="M287 262h-58v-106c0 -21.333 4.33301 -35 13 -41s28 -9 58 -9v-106h-90c-52.667 0 -89 10.167 -109 30.5s-30 53.833 -30 100.5v131h-61v99h61v71h-71v99h71v175h158v-175h71v-99h-71v-71h58v-99z" />
    <glyph glyph-name="Utilde" unicode="&#x168;" horiz-adv-x="542" 
d="M48 706l170 -0.000976562v-532c0 -42 18 -63 54 -63c18.667 0 31.667 5.33301 39 16s11 26.334 11 47.001v532h171v-508c0 -34 -2.5 -62.333 -7.5 -85s-14.833 -44.167 -29.5 -64.5s-37 -35.333 -67 -45s-68 -14.5 -114 -14.5c-84.667 0 -143.667 15.833 -177 47.5
s-50 78.5 -50 140.5v529zM389 898.999h50c-8 -81.333 -43.333 -122 -106 -122c-21.333 0 -47.333 6.16699 -78 18.5s-51 18.5 -61 18.5c-22 0 -33 -11 -33 -33h-50c6 80.667 41 121 105 121c18 0 42.5 -5.83301 73.5 -17.5s51.5 -17.5 61.5 -17.5c21.333 0 34 10.667 38 32z
" />
    <glyph glyph-name="utilde" unicode="&#x169;" 
d="M454 0l-158 -0.000976562v58c-29.333 -48 -69.666 -72 -120.999 -72c-34.667 0 -62.334 8.16699 -83.001 24.5s-34.167 35.833 -40.5 58.5s-9.5 50.334 -9.5 83.001v379h158v-371c0 -34.667 15.667 -52 47 -52c32.667 0 49 18 49 54v369h158v-531zM368 738.999h50
c-8 -81.333 -43.333 -122 -106 -122c-21.333 0 -47.333 6.16699 -78 18.5s-51 18.5 -61 18.5c-22 0 -33 -11 -33 -33h-50c6 80.667 41 121 105 121c18 0 42.5 -5.83301 73.5 -17.5s51.5 -17.5 61.5 -17.5c21.333 0 34 10.667 38 32z" />
    <glyph glyph-name="Umacron" unicode="&#x16a;" horiz-adv-x="542" 
d="M48 706l170 -0.000976562v-532c0 -42 18 -63 54 -63c18.667 0 31.667 5.33301 39 16s11 26.334 11 47.001v532h171v-508c0 -34 -2.5 -62.333 -7.5 -85s-14.833 -44.167 -29.5 -64.5s-37 -35.333 -67 -45s-68 -14.5 -114 -14.5c-84.667 0 -143.667 15.833 -177 47.5
s-50 78.5 -50 140.5v529zM426 785.999h-311v90h311v-90z" />
    <glyph glyph-name="umacron" unicode="&#x16b;" 
d="M454 0l-158 -0.000976562v58c-29.333 -48 -69.666 -72 -120.999 -72c-34.667 0 -62.334 8.16699 -83.001 24.5s-34.167 35.833 -40.5 58.5s-9.5 50.334 -9.5 83.001v379h158v-371c0 -34.667 15.667 -52 47 -52c32.667 0 49 18 49 54v369h158v-531zM403 608.999h-311v90
h311v-90z" />
    <glyph glyph-name="Ubreve" unicode="&#x16c;" horiz-adv-x="542" 
d="M48 706l170 -0.000976562v-532c0 -42 18 -63 54 -63c18.667 0 31.667 5.33301 39 16s11 26.334 11 47.001v532h171v-508c0 -34 -2.5 -62.333 -7.5 -85s-14.833 -44.167 -29.5 -64.5s-37 -35.333 -67 -45s-68 -14.5 -114 -14.5c-84.667 0 -143.667 15.833 -177 47.5
s-50 78.5 -50 140.5v529zM356 888.999l63 -0.000976562c-10.667 -85.333 -60 -128 -148 -128c-50 0 -86.667 12.833 -110 38.5s-35 53.834 -35 84.501v5h63c8 -33.333 36.667 -50 86 -50c22.667 0 41 4.66699 55 14s22.667 21.333 26 36z" />
    <glyph glyph-name="ubreve" unicode="&#x16d;" 
d="M454 0l-158 -0.000976562v58c-29.333 -48 -69.666 -72 -120.999 -72c-34.667 0 -62.334 8.16699 -83.001 24.5s-34.167 35.833 -40.5 58.5s-9.5 50.334 -9.5 83.001v379h158v-371c0 -34.667 15.667 -52 47 -52c32.667 0 49 18 49 54v369h158v-531zM333 732.999
l63 -0.000976562c-10.667 -85.333 -60 -128 -148 -128c-50 0 -86.667 12.833 -110 38.5s-35 53.834 -35 84.501v5h63c8 -33.333 36.667 -50 86 -50c22.667 0 41 4.66699 55 14s22.667 21.333 26 36z" />
    <glyph glyph-name="Uring" unicode="&#x16e;" horiz-adv-x="542" 
d="M48 706l170 -0.000976562v-532c0 -42 18 -63 54 -63c18.667 0 31.667 5.33301 39 16s11 26.334 11 47.001v532h171v-508c0 -34 -2.5 -62.333 -7.5 -85s-14.833 -44.167 -29.5 -64.5s-37 -35.333 -67 -45s-68 -14.5 -114 -14.5c-84.667 0 -143.667 15.833 -177 47.5
s-50 78.5 -50 140.5v529zM308 827.999c0 10 -3.66699 18.667 -11 26s-16 11 -26 11s-18.667 -3.66699 -26 -11s-11 -16 -11 -26s3.66699 -18.667 11 -26s16 -11 26 -11s18.667 3.66699 26 11s11 16 11 26zM370 827.999c0 -26.667 -9.66504 -49.8301 -28.998 -69.4971
s-43 -29.5 -71 -29.5c-26.667 0 -49.667 9.66699 -69 29s-29 42.666 -29 69.999s9.66699 50.666 29 69.999s42.666 29 69.999 29s50.666 -9.83301 69.999 -29.5s29 -42.834 29 -69.501z" />
    <glyph glyph-name="uring" unicode="&#x16f;" 
d="M454 0l-158 -0.000976562v58c-29.333 -48 -69.666 -72 -120.999 -72c-34.667 0 -62.334 8.16699 -83.001 24.5s-34.167 35.833 -40.5 58.5s-9.5 50.334 -9.5 83.001v379h158v-371c0 -34.667 15.667 -52 47 -52c32.667 0 49 18 49 54v369h158v-531zM287 664.999
c0 10 -3.66699 18.667 -11 26s-16 11 -26 11s-18.667 -3.66699 -26 -11s-11 -16 -11 -26s3.66699 -18.667 11 -26s16 -11 26 -11s18.667 3.66699 26 11s11 16 11 26zM349 664.999c0 -26.667 -9.66699 -49.832 -29 -69.499s-43 -29.5 -71 -29.5
c-26.667 0 -49.667 9.66699 -69 29s-29 42.666 -29 69.999s9.66699 50.666 29 69.999s42.666 29 69.999 29c26.667 0 49.834 -9.66699 69.501 -29s29.5 -42.666 29.5 -69.999z" />
    <glyph glyph-name="Uhungarumlaut" unicode="&#x170;" horiz-adv-x="542" 
d="M48 706l170 -0.000976562v-532c0 -42 18 -63 54 -63c18.667 0 31.667 5.33301 39 16s11 26.334 11 47.001v532h171v-508c0 -34 -2.5 -62.333 -7.5 -85s-14.833 -44.167 -29.5 -64.5s-37 -35.333 -67 -45s-68 -14.5 -114 -14.5c-84.667 0 -143.667 15.833 -177 47.5
s-50 78.5 -50 140.5v529zM364 909.999l-139 -142h-101l92 142h148zM542 909.999l-139 -142h-101l92 142h148z" />
    <glyph glyph-name="uhungarumlaut" unicode="&#x171;" 
d="M454 0l-158 -0.000976562v58c-29.333 -48 -69.666 -72 -120.999 -72c-34.667 0 -62.334 8.16699 -83.001 24.5s-34.167 35.833 -40.5 58.5s-9.5 50.334 -9.5 83.001v379h158v-371c0 -34.667 15.667 -52 47 -52c32.667 0 49 18 49 54v369h158v-531zM328 734.999l-131 -125
h-106l80 125h157zM509 734.999l-131 -125h-106l80 125h157z" />
    <glyph glyph-name="Uogonek" unicode="&#x172;" horiz-adv-x="542" 
d="M48 706h169.999v-532c0 -42 18 -63 54 -63c18.667 0 31.667 5.33301 39 16s11 26.334 11 47.001v532h171v-508c0 -62 -10 -109.167 -30 -141.5s-60.333 -53.5 -121 -63.5c-14 -2.66699 -25.667 -9.33398 -35 -20.001s-14 -22 -14 -34c0 -24 17.333 -36 52 -36
c4 0 9 0.333008 15 1l10 2v-96c-16 -2 -30.667 -3 -44 -3c-44.667 0 -78.667 8.5 -102 25.5s-35 40.833 -35 71.5c0 27.333 13 56.333 39 87c-67.333 6 -114.166 24.5 -140.499 55.5s-39.5 74.5 -39.5 130.5v529z" />
    <glyph glyph-name="uogonek" unicode="&#x173;" 
d="M318 0l-22 -0.000976562v58c-29.333 -48 -69.666 -72 -120.999 -72c-34.667 0 -62.334 8.16699 -83.001 24.5s-34.167 35.833 -40.5 58.5s-9.5 50.334 -9.5 83.001v379h158v-371c0 -34.667 15.667 -52 47 -52c32.667 0 49 18 49 54v369h158v-531h-27
c-9.33301 -1.33301 -20.333 -8.33301 -33 -21s-19 -26 -19 -40c0 -24 17.333 -36 52 -36c4 0 9 0.333008 15 1l10 2v-96c-16 -2 -30.667 -3 -44 -3c-44.667 0 -78.667 8.5 -102 25.5s-35 40.833 -35 71.5c0 26.667 13.333 56 40 88z" />
    <glyph glyph-name="Wcircumflex" unicode="&#x174;" horiz-adv-x="812" 
d="M808 706l-85 -706h-221l-96 552l-92 -552h-222l-90 706h162l55 -562l86 562h197l101 -560l41 560h164zM590 765h-130l-59 83l-58 -83h-122l96 142h167z" />
    <glyph glyph-name="wcircumflex" unicode="&#x175;" horiz-adv-x="708" 
d="M712 531l-112 -531h-164l-80 368l-81 -368h-164l-111 531h162l40 -386l66 386h179l63 -386l42 386h160zM522 612h-118l-45 59l-43 -59h-121l99 124h126z" />
    <glyph glyph-name="Ycircumflex" unicode="&#x176;" horiz-adv-x="521" 
d="M515 706l-176 -458v-248h-167v248l-168 458h168l86 -312l86 312h171zM445 765h-130l-59 83l-58 -83h-122l96 142h167z" />
    <glyph glyph-name="ycircumflex" unicode="&#x177;" horiz-adv-x="437" 
d="M436 531l-127 -545.999l-10.5 -43c-2.33301 -9.33301 -6.33301 -21.5 -12 -36.5s-11.667 -26.167 -18 -33.5s-15 -15.833 -26 -25.5s-23.5 -16.5 -37.5 -20.5s-31.167 -7.66699 -51.5 -11s-43.5 -5 -69.5 -5h-77v103h70c12.667 0 23 1.16699 31 3.5
s13.833 6.66602 17.5 12.999s6 11.5 7 15.5s2.16699 10.667 3.5 20l-138 566h156l64 -417l59 417h159zM383 612.001h-118l-45 59l-43 -59h-121l99 124h126z" />
    <glyph glyph-name="Ydieresis" unicode="&#x178;" horiz-adv-x="521" 
d="M515 706l-176 -458v-248h-167v248l-168 458h168l86 -312l86 312h171zM423 785h-134v113h134v-113zM232 785h-136v113h136v-113z" />
    <glyph glyph-name="Zacute" unicode="&#x179;" horiz-adv-x="437" 
d="M427 0h-428v138l245 444h-214v124h391v-139l-245 -442h251v-125zM401 910l-151 -142h-106l94 142h163z" />
    <glyph glyph-name="zacute" unicode="&#x17a;" horiz-adv-x="396" 
d="M385 430l-197 -328h181v-102h-359v102l196 328h-160v101h339v-101zM393 735l-137 -125h-118l87 125h168z" />
    <glyph glyph-name="Zdotaccent" unicode="&#x17b;" horiz-adv-x="437" 
d="M427 0h-428v138l245 444h-214v124h391v-139l-245 -442h251v-125zM292 786h-137v112h137v-112z" />
    <glyph glyph-name="zdotaccent" unicode="&#x17c;" horiz-adv-x="396" 
d="M385 430l-197 -328h181v-102h-359v102l196 328h-160v101h339v-101zM288 609h-145v124h145v-124z" />
    <glyph glyph-name="Zcaron" unicode="&#x17d;" horiz-adv-x="437" 
d="M427 0h-428v138l245 444h-214v124h391v-139l-245 -442h251v-125zM408 909l-96 -141h-166l-107 141h130l59 -82l59 82h121z" />
    <glyph glyph-name="zcaron" unicode="&#x17e;" horiz-adv-x="396" 
d="M385 430l-197 -328h181v-102h-359v102l196 328h-160v101h339v-101zM377 736l-98 -125h-126l-103 125h118l46 -59l42 59h121z" />
    <glyph glyph-name="longs" unicode="&#x17f;" horiz-adv-x="288" 
d="M75 432h-70v99h70v60c0 43.333 9.16699 73.333 27.5 90s50.833 25 97.5 25h104v-100h-30c-15.333 0 -26 -3 -32 -9s-9 -16.667 -9 -32v-565h-158v432z" />
    <glyph glyph-name="florin" unicode="&#x192;" horiz-adv-x="354" 
d="M370 706l-12.001 -100h-30c-15.333 0 -26 -2.83301 -32 -8.5s-10.333 -16.5 -13 -32.5l-5 -34h71l-12 -99h-71l-59 -484c-2 -18.667 -4.66699 -33.5 -8 -44.5s-9.5 -22.833 -18.5 -35.5s-22.833 -22 -41.5 -28s-42.334 -9 -71.001 -9h-104l12 100h30
c8.66699 0 15.334 0.5 20.001 1.5s9.83398 4.66699 15.501 11s9.16699 15.833 10.5 28.5l56 460h-70l12 99h70l7 60c4 38 15 66.667 33 86s53.667 29 107 29h103z" />
    <glyph glyph-name="Aringacute" unicode="&#x1fa;" horiz-adv-x="521" 
d="M518 0h-167l-24 161h-131l-25 -161h-167l143 706h228zM310 280l-47 314l-48 -314h95zM389 994l-123 -109h-78l68 109h133zM324 797c0 -20 -6.5 -36.333 -19.5 -49s-29.167 -19 -48.5 -19c-18.667 0 -34.5 6.16699 -47.5 18.5s-19.5 28.5 -19.5 48.5s6.5 36.5 19.5 49.5
s29.167 19.5 48.5 19.5s35.333 -6.5 48 -19.5s19 -29.167 19 -48.5zM277 796c0 14.667 -7 22 -21 22c-6 0 -11 -2 -15 -6s-6 -9.33301 -6 -16c0 -6 2 -11 6 -15s9 -6 15 -6s11 2 15 6s6 9 6 15z" />
    <glyph glyph-name="aringacute" unicode="&#x1fb;" 
d="M473 0l-182.002 0.000976562v45c-3.33301 -2 -9.66602 -6.83301 -18.999 -14.5s-16.666 -13.334 -21.999 -17.001s-13 -8.16699 -23 -13.5s-20.667 -9.16602 -32 -11.499s-23.666 -3.5 -36.999 -3.5c-84.667 0 -127 46.333 -127 139c0 45.333 7 80.5 21 105.5
s39 44.5 75 58.5c92 36 146.667 58.333 164 67v32c0 17.333 -3.33301 30.166 -10 38.499s-19.334 12.5 -38.001 12.5c-29.333 0 -44 -18.667 -44 -56v-27h-153v26c0 56 15 97.5 45 124.5s80.333 40.5 151 40.5c64.667 0 115.5 -11.5 152.5 -34.5s55.5 -63.833 55.5 -122.5
v-306c0 -24 1.5 -40.833 4.5 -50.5s9.16699 -20.5 18.5 -32.5zM290.998 147.001v119.999l-49 -26c-21.333 -11.333 -34.5 -22.166 -39.5 -32.499s-7.5 -26.833 -7.5 -49.5v-14c0 -13.333 0.666992 -23.5 2 -30.5s5 -13.333 11 -19s15 -8.5 27 -8.5c37.333 0 56 20 56 60z
M365.998 847l-114 -107h-71l62 107h123zM322.998 643c0 -20.667 -7.83301 -38.666 -23.5 -53.999s-34.5 -23 -56.5 -23s-40.5 7.5 -55.5 22.5s-22.5 33.167 -22.5 54.5c0 22 7.5 40.5 22.5 55.5s33.5 22.5 55.5 22.5c24.667 0 44.167 -7.83301 58.5 -23.5
s21.5 -33.834 21.5 -54.501zM268.998 644.001c0 8 -2.33301 14.499 -7 19.499s-10.667 7.5 -18 7.5c-8 0 -14.333 -2.66699 -19 -8s-7 -11.666 -7 -18.999s2.5 -13.5 7.5 -18.5s11.167 -7.5 18.5 -7.5s13.333 2.5 18 7.5s7 11.167 7 18.5z" />
    <glyph glyph-name="AEacute" unicode="&#x1fc;" horiz-adv-x="771" 
d="M748 0h-358v191h-146l-64 -191h-178l273 706h473v-127h-188v-157h175v-126h-175v-170h188v-126zM390 311v268h-12l-92 -268h104zM643 910l-151 -142h-106l94 142h163z" />
    <glyph glyph-name="aeacute" unicode="&#x1fd;" horiz-adv-x="729" 
d="M692 175l-0.00195312 -30.998c0 -34 -3.66699 -58.333 -11 -73s-20.333 -29.334 -39 -44.001c-16 -12.667 -38.5 -22.834 -67.5 -30.501s-57.5 -11.5 -85.5 -11.5c-90 0 -153 26 -189 78c-38.667 -52.667 -85.667 -79 -141 -79c-46.667 0 -79.5 12.167 -98.5 36.5
s-28.5 64.833 -28.5 121.5c0 25.333 2.83301 46.833 8.5 64.5s15.5 32.5 29.5 44.5s26.667 21.167 38 27.5s28.666 14.5 51.999 24.5l127 54v38c0 6 -0.333008 11 -1 15s-2.16699 8.83301 -4.5 14.5s-6.83301 10 -13.5 13s-15 4.5 -25 4.5c-28.667 0 -43 -15.667 -43 -47
v-39h-151v32c0 54 16.833 93.833 50.5 119.5s80.167 38.5 139.5 38.5c30.667 0 54.834 -3.16699 72.501 -9.5s36.167 -16.5 55.5 -30.5c20 15.333 38.833 26 56.5 32s43.167 9 76.5 9c70 0 119.5 -15.333 148.5 -46s43.5 -83 43.5 -157v-110h-248v-100
c0 -14.667 2.83301 -25.834 8.5 -33.501s11.334 -12 17.001 -13s12.834 -1.5 21.501 -1.5c10 0 18.333 1.5 25 4.5s11.167 7.5 13.5 13.5s3.83301 10.833 4.5 14.5s1 8.83398 1 15.501v41h157zM286.998 144.002v122c-22.667 -12 -38 -20.333 -46 -25
s-16.833 -11.167 -26.5 -19.5s-15.667 -16.5 -18 -24.5s-3.5 -18.667 -3.5 -32v-24c0 -32 15 -48 45 -48c18 0 30.667 4 38 12s11 21 11 39zM443.998 397.002l0.000976562 -67h91v67c0 30.667 -14.333 46 -43 46c-14.667 0 -25.834 -3 -33.501 -9s-12 -11.5 -13 -16.5
s-1.5 -11.833 -1.5 -20.5zM544.999 735.002l-137 -125h-118l87 125h168z" />
    <glyph glyph-name="Oslashacute" unicode="&#x1fe;" horiz-adv-x="542" 
d="M533 687l-53.001 -78c12 -29.333 18 -69.333 18 -120v-279c0 -72.667 -16.167 -127.667 -48.5 -165s-91.5 -56 -177.5 -56c-81.333 0 -140 17 -176 51l-39 -56l-52 35l52 79c-7.33301 20 -12.166 36.5 -14.499 49.5s-3.5 35.167 -3.5 66.5v304c0 134 76.333 201 229 201
c44 0 77.5 -3.66699 100.5 -11s47.167 -21 72.5 -41l39 55zM203.999 317l129 189.998c0 19.333 -0.333008 32.833 -1 40.5s-2.83398 15.834 -6.50098 24.501s-9.66699 14.334 -18 17.001s-20.166 4 -35.499 4c-28 0 -46.333 -4.66699 -55 -14s-13 -23.333 -13 -42v-220z
M332.999 389.998l-129 -188.999c0 -17.333 0.166992 -29.833 0.5 -37.5s1.5 -16.5 3.5 -26.5s5 -16.833 9 -20.5s9.83301 -7 17.5 -10s17.5 -4.5 29.5 -4.5c26 0 44 3.66699 54 11s15 24.666 15 51.999v225zM451.999 909.999l-151 -142h-106l94 142h163z" />
    <glyph glyph-name="oslashacute" unicode="&#x1ff;" horiz-adv-x="479" 
d="M456 526l-35.999 -50c15.333 -28.667 23 -61 23 -97v-194c0 -65.333 -14.667 -114.833 -44 -148.5s-83 -50.5 -161 -50.5c-24 0 -49.833 3 -77.5 9s-47.834 14.333 -60.501 25l-30 -42l-52 36l38 55c-8 17.333 -13.5 32.333 -16.5 45s-4.5 32.667 -4.5 60v203
c0 114 68.333 171 205 171c58.667 0 102.667 -10.333 132 -31l32 45zM187.001 372l0.000976562 -119l103 148c-4.66699 26.667 -21.334 40 -50.001 40c-35.333 0 -53 -23 -53 -69zM290.002 154l-0.000976562 137l-103 -151c1.33301 -9.33301 2.83301 -16.5 4.5 -21.5
s6.33398 -10.333 14.001 -16s18.167 -8.5 31.5 -8.5c35.333 0 53 20 53 60zM410.001 735l-137 -125h-118l87 125h168z" />
    <glyph glyph-name="Scommaaccent" unicode="&#x218;" horiz-adv-x="479" 
d="M446 489l-161.002 -0.000976562v50c0 20.667 -3 35.667 -9 45s-19 14 -39 14c-28 0 -42 -17.333 -42 -52v-26c0 -23.333 10.667 -42.333 32 -57l145 -101c37.333 -25.333 61.833 -48.666 73.5 -69.999s17.5 -56 17.5 -104c0 -14.667 -0.5 -27.667 -1.5 -39
s-3.16699 -24.333 -6.5 -39s-8 -27.167 -14 -37.5s-14.5 -21 -25.5 -32s-24.167 -20 -39.5 -27s-34.666 -12.667 -57.999 -17s-49.333 -6.5 -78 -6.5c-105.333 0 -172.666 26.333 -201.999 79c-12.667 24 -19 62.333 -19 115v42h169v-56c0 -37.333 16.667 -56 50 -56
c36 0 54 16.333 54 49c0 28.667 -3 47.834 -9 57.501s-24.333 25.5 -55 47.5l-102 74c-3.33301 2.66699 -9.66602 7.16699 -18.999 13.5s-15.833 10.833 -19.5 13.5s-9.16699 7.16699 -16.5 13.5s-12.333 11.833 -15 16.5l-11.5 19.5c-5 8.33301 -8.33301 16.833 -10 25.5
s-3.33398 19 -5.00098 31s-2.5 25.333 -2.5 40c0 75.333 15.833 128.166 47.5 158.499s89.167 45.5 172.5 45.5c36.667 0 67.667 -3.33301 93 -10s44.833 -15 58.5 -25s24.167 -24.167 31.5 -42.5s11.833 -35.5 13.5 -51.5s2.5 -37.333 2.5 -64v-37zM288.998 -112.001
l-41 -49h-38l14 49h-31v83h96v-83z" />
    <glyph glyph-name="scommaaccent" unicode="&#x219;" horiz-adv-x="437" 
d="M21 164l152 -0.000976562v-14c0 -21.333 3.5 -36 10.5 -44s18.5 -12 34.5 -12s27.167 4.16699 33.5 12.5s9.5 17.166 9.5 26.499s-2.5 17.666 -7.5 24.999s-10.167 12.666 -15.5 15.999s-12.666 7.66602 -21.999 12.999l-106 57c-34 18 -56.5 37.5 -67.5 58.5
s-16.5 50.167 -16.5 87.5c0 34.667 5 60.834 15 78.501s24.333 32.5 43 44.5c34 22 79.667 33 137 33c130 0 195 -50.667 195 -152v-20h-152v16c0 32.667 -14 49 -42 49c-10.667 0 -20.5 -3.16699 -29.5 -9.5s-13.5 -18.166 -13.5 -35.499c0 -9.33301 3 -17.666 9 -24.999
s12.5 -13 19.5 -17s19.833 -10.667 38.5 -20l92 -46c34 -17.333 56.5 -35 67.5 -53s16.5 -42.333 16.5 -73c0 -31.333 -3 -56.666 -9 -75.999s-17.667 -36.333 -35 -51c-37.333 -31.333 -91 -47 -161 -47c-92.667 0 -152.334 25.667 -179.001 77
c-11.333 22.667 -17 56.334 -17 101.001zM269 -112.001l-41 -49h-38l14 49h-31v83h96v-83z" />
    <glyph glyph-name="uni021A" unicode="&#x21a;" horiz-adv-x="479" 
d="M467 583h-141v-583h-173v583h-140v123h454v-123zM287 -112l-41 -49h-38l14 49h-31v83h96v-83z" />
    <glyph glyph-name="uni021B" unicode="&#x21b;" horiz-adv-x="313" 
d="M300 0h-90c-52.667 0 -89 10.167 -109 30.5s-30 53.833 -30 100.5v301h-71v99h71v175h158v-175h71v-99h-71v-276c0 -21.333 4.33301 -35 13 -41s28 -9 58 -9v-106zM222 -112l-41 -49h-38l14 49h-31v83h96v-83z" />
    <glyph glyph-name="circumflex" unicode="&#x2c6;" horiz-adv-x="271" 
d="M299 612h-118l-45 59l-43 -59h-121l99 124h126z" />
    <glyph glyph-name="caron" unicode="&#x2c7;" horiz-adv-x="271" 
d="M299 736l-98 -125h-126l-103 125h118l46 -59l42 59h121z" />
    <glyph glyph-name="uni02C9" unicode="&#x2c9;" horiz-adv-x="271" 
d="M291 609h-311v90h311v-90z" />
    <glyph glyph-name="breve" unicode="&#x2d8;" horiz-adv-x="271" 
d="M219 733l63 -0.000976562c-10.667 -85.333 -60 -128 -148 -128c-50 0 -86.667 12.833 -110 38.5s-35 53.834 -35 84.501v5h63c8 -33.333 36.667 -50 86 -50c22.667 0 41 4.66699 55 14s22.667 21.333 26 36z" />
    <glyph glyph-name="dotaccent" unicode="&#x2d9;" horiz-adv-x="271" 
d="M208 609h-145v124h145v-124z" />
    <glyph glyph-name="ring" unicode="&#x2da;" horiz-adv-x="271" 
d="M172 665c0 10 -3.66699 18.667 -11 26s-16 11 -26 11s-18.667 -3.66699 -26 -11s-11 -16 -11 -26s3.66699 -18.667 11 -26s16 -11 26 -11s18.667 3.66699 26 11s11 16 11 26zM234 665c0 -26.667 -9.66504 -49.832 -28.998 -69.499s-43 -29.5 -71 -29.5
c-26.667 0 -49.667 9.66699 -69 29s-29 42.666 -29 69.999s9.66699 50.666 29 69.999s42.666 29 69.999 29s50.666 -9.66699 69.999 -29s29 -42.666 29 -69.999z" />
    <glyph glyph-name="ogonek" unicode="&#x2db;" horiz-adv-x="271" 
d="M92 0l98.998 -0.000976562l-6 -5c-4 -3.33301 -7.66699 -6.66602 -11 -9.99902s-7.16602 -7.5 -11.499 -12.5s-7.66602 -10.5 -9.99902 -16.5s-3.5 -11.667 -3.5 -17c0 -24 17.333 -36 52 -36c4 0 9 0.333008 15 1l10 2v-96c-16 -2 -30.667 -3 -44 -3
c-44.667 0 -78.667 8.5 -102 25.5s-35 40.833 -35 71.5c0 26.667 13.333 56 40 88z" />
    <glyph glyph-name="tilde" unicode="&#x2dc;" horiz-adv-x="271" 
d="M250 739h50c-8 -81.333 -43.333 -122 -106 -122c-21.333 0 -47.333 6.16699 -78 18.5s-51 18.5 -61 18.5c-22 0 -33 -11 -33 -33h-50c6 80.667 41 121 105 121c18 0 42.5 -5.83301 73.5 -17.5s51.5 -17.5 61.5 -17.5c21.333 0 34 10.667 38 32z" />
    <glyph glyph-name="hungarumlaut" unicode="&#x2dd;" horiz-adv-x="271" 
d="M163 735l-131 -125h-106l80 125h157zM344 735l-131 -125h-106l80 125h157z" />
    <glyph glyph-name="uni037E" unicode="&#x37e;" horiz-adv-x="292" 
d="M235 386h-147v153h147v-153zM235 0l-84 -152h-69l51 152h-45v153h147v-153z" />
    <glyph glyph-name="tonos" unicode="&#x384;" horiz-adv-x="271" 
d="M263 735l-137 -125h-118l87 125h168z" />
    <glyph glyph-name="dieresistonos" unicode="&#x385;" horiz-adv-x="440" 
d="M487 609h-142v124h142v-124zM97 609h-144v124h144v-124zM346 774l-111 -165h-114l61 165h164z" />
    <glyph glyph-name="Alphatonos" unicode="&#x386;" horiz-adv-x="521" 
d="M518 0h-167l-24 161h-131l-25 -161h-167l143 706h228zM310 280l-47 314l-48 -314h95zM112 706l-137 -125h-118l87 125h168z" />
    <glyph glyph-name="anoteleia" unicode="&#x387;" horiz-adv-x="250" 
d="M199 379h-148v152h148v-152z" />
    <glyph glyph-name="Epsilontonos" unicode="&#x388;" horiz-adv-x="437" 
d="M416 0h-365v706h365v-124h-194v-163h183v-124h-183v-170h194v-125zM33 706l-137 -125h-118l87 125h168z" />
    <glyph glyph-name="Etatonos" unicode="&#x389;" horiz-adv-x="562" 
d="M511 0h-171v296h-119v-296h-170v706h170v-285h119v285h171v-706zM33 706l-137 -125h-118l87 125h168z" />
    <glyph glyph-name="Iotatonos" unicode="&#x38a;" horiz-adv-x="271" 
d="M220 0h-171v706h171v-706zM33 706l-137 -125h-118l87 125h168z" />
    <glyph glyph-name="Omicrontonos" unicode="&#x38c;" horiz-adv-x="542" 
d="M499 500v-279c0 -25.333 -0.833008 -46.5 -2.5 -63.5s-6.66699 -37 -15 -60s-20 -41.5 -35 -55.5s-37.167 -26 -66.5 -36s-64.666 -15 -105.999 -15c-78.667 0 -137.334 16.333 -176.001 49s-58 88 -58 166v305c0 73.333 19.167 126.5 57.5 159.5s95.833 49.5 172.5 49.5
c80.667 0 139 -17.5 175 -52.5s54 -90.833 54 -167.5zM211 537v-362c0 -10.667 0.333008 -18.5 1 -23.5s2.66699 -10.833 6 -17.5s9.33301 -11.5 18 -14.5s20 -4.5 34 -4.5c22 0 37.333 4.66699 46 14s13 24.666 13 45.999v361c0 22.667 -4.5 38 -13.5 46
s-25.167 12 -48.5 12c-20.667 0 -35.167 -4.16699 -43.5 -12.5s-12.5 -23.166 -12.5 -44.499zM63 706l-137 -125h-118l87 125h168z" />
    <glyph glyph-name="Upsilontonos" unicode="&#x38e;" horiz-adv-x="521" 
d="M515 706l-176 -458v-248h-167v248l-168 458h168l86 -312l86 312h171zM-7 706l-137 -125h-118l87 125h168z" />
    <glyph glyph-name="Omegatonos" unicode="&#x38f;" horiz-adv-x="535" 
d="M209 537v-236c0 -70.667 1.66699 -115.5 5 -134.5s11 -32.167 23 -39.5v-127h-199v125h89c-59.333 30.667 -89 94.667 -89 192v194c0 73.333 19.167 126.5 57.5 159.5s95.833 49.5 172.5 49.5c80.667 0 139 -17.333 175 -52s54 -90.334 54 -167.001v-184
c0 -97.333 -29.667 -161.333 -89 -192h89v-125h-198v127c12.667 6 20.5 22 23.5 48s4.5 68 4.5 126v235c0 22.667 -4.5 38 -13.5 46s-25.167 12 -48.5 12c-20.667 0 -35.167 -4.16699 -43.5 -12.5s-12.5 -23.166 -12.5 -44.499zM63 706l-137 -125h-118l87 125h168z" />
    <glyph glyph-name="iotadieresistonos" unicode="&#x390;" horiz-adv-x="264" 
d="M204 531v-374c0 -22.667 2.33301 -37.167 7 -43.5s14.667 -9.5 30 -9.5v-105c-16.667 -0.666992 -32.667 -1 -48 -1c-54.667 0 -93 10.5 -115 31.5s-33 60.167 -33 117.5v384h159zM428 609h-142v124h142v-124zM38 609h-144v124h144v-124zM287 774l-111 -165h-114l61 165
h164z" />
    <glyph glyph-name="Alpha" unicode="&#x391;" horiz-adv-x="521" 
d="M518 0h-167l-24 161h-131l-25 -161h-167l143 706h228zM310 280l-47 314l-48 -314h95z" />
    <glyph glyph-name="Beta" unicode="&#x392;" horiz-adv-x="521" 
d="M51 706l252 -0.00195312c56.667 0 100.167 -12 130.5 -36s45.5 -58 45.5 -102v-48c0 -45.333 -7.16699 -78.166 -21.5 -98.499s-38.833 -36.166 -73.5 -47.499c40 -10 67.333 -26.333 82 -49s22 -56 22 -100v-32c0 -42 -4.33301 -76.5 -13 -103.5
s-21.834 -46.667 -39.501 -59s-35.667 -20.5 -54 -24.5s-41.166 -6 -68.499 -6h-262v706zM211 580.998v-151h70c20 0 32.833 5.66699 38.5 17s8.5 31.333 8.5 60s-3.5 48.167 -10.5 58.5s-20.833 15.5 -41.5 15.5h-65zM211 305.998l0.000976562 -179.001h66
c23.333 0 38.166 6 44.499 18s9.5 34.667 9.5 68c0 36.667 -3 61.334 -9 74.001s-21 19 -45 19h-66z" />
    <glyph glyph-name="Gamma" unicode="&#x393;" horiz-adv-x="396" 
d="M396 583h-175v-583h-172v706h347v-123z" />
    <glyph glyph-name="uni0394" unicode="&#x394;" horiz-adv-x="559" 
d="M557 0h-556l202 706h158zM356 124l-78 363l-79 -363h157z" />
    <glyph glyph-name="Epsilon" unicode="&#x395;" horiz-adv-x="437" 
d="M416 0h-365v706h365v-124h-194v-163h183v-124h-183v-170h194v-125z" />
    <glyph glyph-name="Zeta" unicode="&#x396;" horiz-adv-x="437" 
d="M427 0h-428v138l245 444h-214v124h391v-139l-245 -442h251v-125z" />
    <glyph glyph-name="Eta" unicode="&#x397;" horiz-adv-x="562" 
d="M511 0h-171v296h-119v-296h-170v706h170v-285h119v285h171v-706z" />
    <glyph glyph-name="Theta" unicode="&#x398;" horiz-adv-x="542" 
d="M230 296v124h80v-124h-80zM499 500v-279c0 -25.333 -0.833008 -46.5 -2.5 -63.5s-6.66699 -37 -15 -60s-20 -41.5 -35 -55.5s-37.167 -26 -66.5 -36s-64.666 -15 -105.999 -15c-78.667 0 -137.334 16.333 -176.001 49s-58 88 -58 166v305
c0 73.333 19.167 126.5 57.5 159.5s95.833 49.5 172.5 49.5c80.667 0 139 -17.5 175 -52.5s54 -90.833 54 -167.5zM211 537v-362c0 -10.667 0.333008 -18.5 1 -23.5s2.66699 -10.833 6 -17.5s9.33301 -11.5 18 -14.5s20 -4.5 34 -4.5c22 0 37.333 4.66699 46 14
s13 24.666 13 45.999v361c0 22.667 -4.5 38 -13.5 46s-25.167 12 -48.5 12c-20.667 0 -35.167 -4.16699 -43.5 -12.5s-12.5 -23.166 -12.5 -44.499z" />
    <glyph glyph-name="Iota" unicode="&#x399;" horiz-adv-x="271" 
d="M220 0h-171v706h171v-706z" />
    <glyph glyph-name="Kappa" unicode="&#x39a;" horiz-adv-x="521" 
d="M541 0h-179l-143 345v-345h-169v706h169v-320l130 320h174l-143 -334z" />
    <glyph glyph-name="Lambda" unicode="&#x39b;" horiz-adv-x="528" 
d="M256 590l-85 -590h-167l136 706h228l136 -706h-167z" />
    <glyph glyph-name="Mu" unicode="&#x39c;" horiz-adv-x="771" 
d="M721 0h-152v508l-109 -508h-150l-109 508v-508h-149v706h228l105 -518l105 518h231v-706z" />
    <glyph glyph-name="Nu" unicode="&#x39d;" horiz-adv-x="562" 
d="M512 0h-172l-147 460v-460h-144v706h169l148 -458v458h146v-706z" />
    <glyph glyph-name="Xi" unicode="&#x39e;" horiz-adv-x="437" 
d="M395 289h-353v136h353v-136zM414 570h-391v136h391v-136zM416 0h-395v137h395v-137z" />
    <glyph glyph-name="Omicron" unicode="&#x39f;" horiz-adv-x="542" 
d="M499 500v-279c0 -25.333 -0.833008 -46.5 -2.5 -63.5s-6.66699 -37 -15 -60s-20 -41.5 -35 -55.5s-37.167 -26 -66.5 -36s-64.666 -15 -105.999 -15c-78.667 0 -137.334 16.333 -176.001 49s-58 88 -58 166v305c0 73.333 19.167 126.5 57.5 159.5s95.833 49.5 172.5 49.5
c80.667 0 139 -17.5 175 -52.5s54 -90.833 54 -167.5zM211 537v-362c0 -10.667 0.333008 -18.5 1 -23.5s2.66699 -10.833 6 -17.5s9.33301 -11.5 18 -14.5s20 -4.5 34 -4.5c22 0 37.333 4.66699 46 14s13 24.666 13 45.999v361c0 22.667 -4.5 38 -13.5 46
s-25.167 12 -48.5 12c-20.667 0 -35.167 -4.16699 -43.5 -12.5s-12.5 -23.166 -12.5 -44.499z" />
    <glyph glyph-name="Pi" unicode="&#x3a0;" horiz-adv-x="552" 
d="M501 0h-171v580h-109v-580h-170v706h450v-706z" />
    <glyph glyph-name="Rho" unicode="&#x3a1;" horiz-adv-x="521" 
d="M50 706l304 0.000976562c56.667 0 95.167 -12.667 115.5 -38s30.5 -60 30.5 -104v-168c0 -50.667 -12.833 -86.334 -38.5 -107.001s-61.167 -31 -106.5 -31h-135v-258h-170v706zM220 586.001l-0.000976562 -204.001h64c17.333 0 30.333 3.33301 39 10
s13.667 13.834 15 21.501s2 19.5 2 35.5v90c0 18.667 -4.66699 31.167 -14 37.5s-23.666 9.5 -42.999 9.5h-63z" />
    <glyph glyph-name="Sigma" unicode="&#x3a3;" horiz-adv-x="437" 
d="M190 582l118 -217l-132 -240h251v-125h-428v138l125 227l-111 202v139h406v-124h-229z" />
    <glyph glyph-name="Tau" unicode="&#x3a4;" horiz-adv-x="479" 
d="M467 583h-141v-583h-173v583h-140v123h454v-123z" />
    <glyph glyph-name="Upsilon" unicode="&#x3a5;" horiz-adv-x="521" 
d="M515 706l-176 -458v-248h-167v248l-168 458h168l86 -312l86 312h171z" />
    <glyph glyph-name="Phi" unicode="&#x3a6;" horiz-adv-x="730" 
d="M274 706h171v-48c24 0 46.333 -1.5 67 -4.5s42 -9 64 -18s40.667 -20.667 56 -35s27.833 -33.5 37.5 -57.5s14.5 -52 14.5 -84v-207c0 -66.667 -22 -116.334 -66 -149.001s-101.667 -49 -173 -49v-54h-171v54c-71.333 0 -128.833 16.333 -172.5 49
s-65.5 82.334 -65.5 149.001v207c0 32 4.83301 60 14.5 84s22.167 43.167 37.5 57.5s33.833 26 55.5 35s43 15 64 18s43.167 4.5 66.5 4.5v48zM445 536v-362c21.333 0 38.5 4.83301 51.5 14.5s19.5 22.167 19.5 37.5v257c0 17.333 -6.5 30.5 -19.5 39.5
s-30.167 13.5 -51.5 13.5zM274 174v362c-21.333 0 -38.333 -4.5 -51 -13.5s-19 -22.167 -19 -39.5v-257c0 -15.333 6.5 -27.833 19.5 -37.5s29.833 -14.5 50.5 -14.5z" />
    <glyph glyph-name="Chi" unicode="&#x3a7;" horiz-adv-x="479" 
d="M479 0h-174l-64 270l-65 -270h-172l122 374l-127 332h172l70 -227l68 227h170l-125 -332z" />
    <glyph glyph-name="Psi" unicode="&#x3a8;" horiz-adv-x="748" 
d="M693 706v-353c0 -66.667 -22 -116.334 -66 -149.001s-101.667 -49 -173 -49v-155h-171v155c-71.333 0 -128.833 16.333 -172.5 49s-65.5 82.334 -65.5 149.001v353h171v-375c0 -16 6 -28.667 18 -38s28.333 -14 49 -14v427h171v-427c21.333 0 38 4.66699 50 14
s18 22 18 38v375h171z" />
    <glyph glyph-name="uni03A9" unicode="&#x3a9;" horiz-adv-x="581" 
d="M538 0l-220.002 -0.000976562v127c12.667 10.667 20.5 28.167 23.5 52.5s4.5 64.833 4.5 121.5v186c0 39.333 -4 65.166 -12 77.499s-22.333 18.5 -43 18.5c-21.333 0 -36 -6.16699 -44 -18.5s-12 -38.166 -12 -77.499v-186c0 -48.667 1 -84.167 3 -106.5
s4.5 -36.666 7.5 -42.999s8.83301 -14.5 17.5 -24.5v-127h-220v125h142c-43.333 24 -74.666 54.167 -93.999 90.5s-29 84.833 -29 145.5v136c0 76.667 18 132.334 54 167.001s94.333 52 175 52c80 0 138 -17.333 174 -52s54 -90.334 54 -167.001v-136
c0 -58.667 -9.16699 -106.5 -27.5 -143.5s-50.166 -67.833 -95.499 -92.5h142v-125z" />
    <glyph glyph-name="Iotadieresis" unicode="&#x3aa;" horiz-adv-x="271" 
d="M220 0h-171v706h171v-706zM299 785h-134v113h134v-113zM108 785h-136v113h136v-113z" />
    <glyph glyph-name="Upsilondieresis" unicode="&#x3ab;" horiz-adv-x="521" 
d="M515 706l-176 -458v-248h-167v248l-168 458h168l86 -312l86 312h171zM423 785h-134v113h134v-113zM232 785h-136v113h136v-113z" />
    <glyph glyph-name="alphatonos" unicode="&#x3ac;" horiz-adv-x="509" 
d="M294 167l-0.000976562 203.999c0 41.333 -17 62 -51 62c-32.667 0 -49 -21.333 -49 -64v-204c0 -42.667 16.667 -64 50 -64c12 0 21.667 2 29 6s12.333 10 15 18s4.33398 14.833 5.00098 20.5s1 12.834 1 21.501zM307.999 55.999
c-37.333 -46.667 -81.668 -70 -133.001 -70c-92.667 0 -139 56.333 -139 169v215c0 54 10.167 96.667 30.5 128s55.833 47 106.5 47c56 0 96.333 -22 121 -66v52h158v-374c0 -23.333 1.83301 -38 5.5 -44s12.834 -9 27.501 -9v-105c-16.667 -0.666992 -32.667 -1 -48 -1
c-38 0 -66.5 4.16699 -85.5 12.5s-33.5 23.5 -43.5 45.5zM441.997 734.999l-137 -125h-118l87 125h168z" />
    <glyph glyph-name="epsilontonos" unicode="&#x3ad;" horiz-adv-x="471" 
d="M46 389l0.00195312 20c0 46 17.333 80.333 52 103s83.667 34 147 34c22 0 42.667 -1.83301 62 -5.5s39.166 -10.334 59.499 -20.001s36.5 -24.5 48.5 -44.5s18 -44.333 18 -73v-40h-148v21c0 12 -0.666992 21.667 -2 29s-5.5 14.333 -12.5 21s-17.167 10 -30.5 10
c-18.667 0 -31 -4.66699 -37 -14s-9 -22.666 -9 -39.999v-9c0 -20.667 4.33301 -34.167 13 -40.5s28.667 -9.5 60 -9.5h6v-101h-13c-26.667 0 -43.834 -4.33301 -51.501 -13s-11.5 -24 -11.5 -46v-12c0 -16 0.666992 -28 2 -36s5.66602 -15.167 12.999 -21.5
s18 -9.5 32 -9.5c20.667 0 33.834 5.16699 39.501 15.5s8.5 27.166 8.5 50.499v41h153v-51c0 -109.333 -66.667 -164 -200 -164c-139.333 0 -209 52 -209 156v18c0 73.333 39.667 115.333 119 126c-38.667 4 -66.5 14.333 -83.5 31s-25.5 41.334 -25.5 74.001zM420.002 735
l-137 -125h-118l87 125h168z" />
    <glyph glyph-name="etatonos" unicode="&#x3ae;" horiz-adv-x="515" 
d="M212 481c35.333 43.333 74.999 65 118.999 65c40 0 72.333 -13 97 -39s37 -62.667 37 -110v-584h-158v568c0 36.667 -15.667 55 -47 55c-32 0 -48 -16.667 -48 -50v-386h-159v395c0 18 -2.33301 29.333 -7 34s-12.667 7 -24 7v98c26.667 5.33301 47.334 8 62.001 8
c71.333 0 114 -20.333 128 -61zM436.999 735l-137 -125h-118l87 125h168z" />
    <glyph glyph-name="iotatonos" unicode="&#x3af;" horiz-adv-x="264" 
d="M204 531v-374c0 -22.667 2.33301 -37.167 7 -43.5s14.667 -9.5 30 -9.5v-105c-16.667 -0.666992 -32.667 -1 -48 -1c-54.667 0 -93 10.5 -115 31.5s-33 60.167 -33 117.5v384h159zM317 735l-137 -125h-118l87 125h168z" />
    <glyph glyph-name="upsilondieresistonos" unicode="&#x3b0;" 
d="M456 531v-368c0 -60.667 -16.333 -105.667 -49 -135s-83.667 -44 -153 -44c-140 0 -210 56.333 -210 169v378h158v-382c0 -34.667 16 -52 48 -52s48 20 48 60v374h158zM533 609h-142v124h142v-124zM143 609h-144v124h144v-124zM392 774l-111 -165h-114l61 165h164z" />
    <glyph glyph-name="alpha" unicode="&#x3b1;" horiz-adv-x="509" 
d="M294 167l-0.000976562 203.999c0 41.333 -17 62 -51 62c-32.667 0 -49 -21.333 -49 -64v-204c0 -42.667 16.667 -64 50 -64c12 0 21.667 2 29 6s12.333 10 15 18s4.33398 14.833 5.00098 20.5s1 12.834 1 21.501zM307.999 55.999
c-37.333 -46.667 -81.668 -70 -133.001 -70c-92.667 0 -139 56.333 -139 169v215c0 54 10.167 96.667 30.5 128s55.833 47 106.5 47c56 0 96.333 -22 121 -66v52h158v-374c0 -23.333 1.83301 -38 5.5 -44s12.834 -9 27.501 -9v-105c-16.667 -0.666992 -32.667 -1 -48 -1
c-38 0 -66.5 4.16699 -85.5 12.5s-33.5 23.5 -43.5 45.5z" />
    <glyph glyph-name="beta" unicode="&#x3b2;" 
d="M205 551l-0.00195312 -386.001c0 -44 17 -66 51 -66s51 22 51 66v141c0 6.66699 -0.333008 11.834 -1 15.501s-2.16699 8.16699 -4.5 13.5s-6.5 9.33301 -12.5 12s-14 4 -24 4h-17v94h15c17.333 0 26 15 26 45v61c0 24 -3.16699 40.333 -9.5 49s-17.166 13 -32.499 13
s-26.166 -4.33301 -32.499 -13s-9.5 -25 -9.5 -49zM204.998 48.999l-0.00195312 -236.004h-159v742c0 57.333 16 98.833 48 124.5s81.667 38.5 149 38.5c72.667 0 123.834 -13.5 153.501 -40.5s44.5 -70.833 44.5 -131.5v-28c0 -40 -3.66699 -69 -11 -87
s-24.333 -31.667 -51 -41c24.667 -10 42.167 -19.167 52.5 -27.5s18.5 -23.166 24.5 -44.499s9 -53 9 -95v-59c0 -61.333 -10.333 -106.333 -31 -135s-54.667 -43 -102 -43c-14 0 -27.167 1.33301 -39.5 4s-22.5 5.83398 -30.5 9.50098s-15.667 8.33398 -23 14.001
s-12.666 10.334 -15.999 14.001s-7 8 -11 13s-6.33301 7.83301 -7 8.5z" />
    <glyph glyph-name="gamma" unicode="&#x3b3;" horiz-adv-x="451" 
d="M446 531l-138 -543.999v-174h-159v169l-99 424c-2 9.33301 -4.83301 15.666 -8.5 18.999s-10.5 5 -20.5 5h-16v101h68c35.333 0 62 -5 80 -15s29.667 -31.333 35 -64l43 -267l57 346h158z" />
    <glyph glyph-name="delta" unicode="&#x3b4;" horiz-adv-x="479" 
d="M442 315v-152.004c0 -61.333 -15.833 -106.5 -47.5 -135.5s-82.167 -43.5 -151.5 -43.5c-138 0 -207 56.333 -207 169v144c0 84.667 34.333 138 103 160c-56.667 28.667 -85 68.334 -85 119.001c0 28.667 5 52.834 15 72.501s24.5 34.334 43.5 44.001
s38.5 16.334 58.5 20.001s43.333 5.5 70 5.5c122 0 183 -50.667 183 -152v-16h-150v27c0 24 -10.667 36 -32 36s-32 -15.667 -32 -47c0 -14 3.5 -24.5 10.5 -31.5s22.167 -16.167 45.5 -27.5l73 -37c33.333 -16.667 58.833 -36.667 76.5 -60s26.5 -55 26.5 -95zM285 156.996
v154c0 8 -0.333008 14.5 -1 19.5s-2.16699 11.167 -4.5 18.5s-7 12.833 -14 16.5s-15.833 5.5 -26.5 5.5c-30.667 0 -46 -21 -46 -63v-159c0 -9.33301 0.5 -17 1.5 -23s5.16699 -12.333 12.5 -19s18 -10 32 -10c30.667 0 46 20 46 60z" />
    <glyph glyph-name="epsilon" unicode="&#x3b5;" horiz-adv-x="471" 
d="M46 389l0.00195312 20c0 46 17.333 80.333 52 103s83.667 34 147 34c22 0 42.667 -1.83301 62 -5.5s39.166 -10.334 59.499 -20.001s36.5 -24.5 48.5 -44.5s18 -44.333 18 -73v-40h-148v21c0 12 -0.666992 21.667 -2 29s-5.5 14.333 -12.5 21s-17.167 10 -30.5 10
c-18.667 0 -31 -4.66699 -37 -14s-9 -22.666 -9 -39.999v-9c0 -20.667 4.33301 -34.167 13 -40.5s28.667 -9.5 60 -9.5h6v-101h-13c-26.667 0 -43.834 -4.33301 -51.501 -13s-11.5 -24 -11.5 -46v-12c0 -16 0.666992 -28 2 -36s5.66602 -15.167 12.999 -21.5
s18 -9.5 32 -9.5c20.667 0 33.834 5.16699 39.501 15.5s8.5 27.166 8.5 50.499v41h153v-51c0 -109.333 -66.667 -164 -200 -164c-139.333 0 -209 52 -209 156v18c0 73.333 39.667 115.333 119 126c-38.667 4 -66.5 14.333 -83.5 31s-25.5 41.334 -25.5 74.001z" />
    <glyph glyph-name="zeta" unicode="&#x3b6;" horiz-adv-x="436" 
d="M193 209l0.00195312 -24.001c0 -26.667 5.16699 -43.667 15.5 -51s27.833 -11 52.5 -11h22c39.333 0 69.166 -10.667 89.499 -32s30.5 -50.666 30.5 -87.999v-149h-129v99c0 19.333 -6.33301 32 -19 38s-35 9 -67 9c-54.667 0 -93.667 12.5 -117 37.5s-35 64.5 -35 118.5
v40c0 64 23.167 133.5 69.5 208.5s98.166 137.5 155.499 187.5h-187v114h352v-107c-155.333 -142.667 -233 -272.667 -233 -390z" />
    <glyph glyph-name="eta" unicode="&#x3b7;" horiz-adv-x="515" 
d="M212 481c35.333 43.333 74.999 65 118.999 65c40 0 72.333 -13 97 -39s37 -62.667 37 -110v-584h-158v568c0 36.667 -15.667 55 -47 55c-32 0 -48 -16.667 -48 -50v-386h-159v395c0 18 -2.33301 29.333 -7 34s-12.667 7 -24 7v98c26.667 5.33301 47.334 8 62.001 8
c71.333 0 114 -20.333 128 -61z" />
    <glyph glyph-name="theta" unicode="&#x3b8;" horiz-adv-x="479" 
d="M442 553v-390c0 -61.333 -15.833 -106.5 -47.5 -135.5s-82.167 -43.5 -151.5 -43.5c-138 0 -207 56.333 -207 169v382c0 62 15 108 45 138s82.667 45 158 45c135.333 0 203 -55 203 -165zM285 157v170h-92v-178c0 -9.33301 0.5 -17 1.5 -23s5.16699 -12.333 12.5 -19
s18 -10 32 -10c30.667 0 46 20 46 60zM193 550v-124h92v127c0 8 -0.333008 14.5 -1 19.5s-2.16699 11.167 -4.5 18.5s-7 12.833 -14 16.5s-15.833 5.5 -26.5 5.5c-30.667 0 -46 -21 -46 -63z" />
    <glyph glyph-name="iota" unicode="&#x3b9;" horiz-adv-x="264" 
d="M204 531v-374c0 -22.667 2.33301 -37.167 7 -43.5s14.667 -9.5 30 -9.5v-105c-16.667 -0.666992 -32.667 -1 -48 -1c-54.667 0 -93 10.5 -115 31.5s-33 60.167 -33 117.5v384h159z" />
    <glyph glyph-name="kappa" unicode="&#x3ba;" 
d="M417 370l-70 -84l151 -286h-178l-117 251v-251h-158v531h158v-209l88 109c19.333 23.333 34.666 40.833 45.999 52.5s26 22.5 44 32.5s36.667 15 56 15h50v-118c-23.333 0 -46.666 -14.333 -69.999 -43z" />
    <glyph glyph-name="lambda" unicode="&#x3bb;" horiz-adv-x="436" 
d="M261 629l126.002 -497.999c2.66699 -11.333 6.16699 -18.833 10.5 -22.5s10.166 -5.5 17.499 -5.5c4.66699 0 9 0.333008 13 1v-105c-20 -3.33301 -44 -5 -72 -5c-34 0 -59.333 7.66699 -76 23s-29 45.666 -37 90.999l-32 175l-58 -283h-156l160 506l-14 68
c-4 21.333 -14.333 32 -31 32c-12.667 0 -24.667 -1.66699 -36 -5v108c27.333 6 52.666 9 75.999 9c58.667 0 95 -29.667 109 -89z" />
    <glyph glyph-name="uni03BC" unicode="&#x3bc;" 
d="M477 0h-176l-5 58c-6.66699 -24 -14.667 -40.667 -24 -50s-22 -14 -38 -14c-14 0 -25.333 4.66699 -34 14v-195h-158v718h158v-374c0 -32.667 15.667 -49 47 -49c32.667 0 49 18 49 54v369h158v-448c0 -22.667 1.33301 -39 4 -49s9 -21.333 19 -34z" />
    <glyph glyph-name="nu" unicode="&#x3bd;" horiz-adv-x="447" 
d="M419 423l-95 -423.001h-212l-102 531h155l56 -421l48 313c4 28.667 6 48.334 6 59.001c0 16 -2 32.333 -6 49h152c4 -19.333 6 -35.666 6 -48.999c0 -14.667 -2.66699 -34.334 -8 -59.001z" />
    <glyph glyph-name="xi" unicode="&#x3be;" horiz-adv-x="432" 
d="M403 -146l-128.999 -0.000976562v99c0 19.333 -6.33301 32 -19 38s-35 9 -67 9c-54.667 0 -93.667 12.5 -117 37.5s-35 64.5 -35 118.5v107c0 28.667 8.5 53.5 25.5 74.5s42.5 35.5 76.5 43.5c-30.667 5.33301 -51.334 16.5 -62.001 33.5s-16 39.5 -16 67.5v31
c0 16.667 4.83301 34 14.5 52s26.834 30.667 51.501 38h-76v103h362v-111h-96c-36 0 -62 -6 -78 -18s-24 -30.333 -24 -55v-17c0 -24 4.33301 -41.167 13 -51.5s25.667 -15.5 51 -15.5h86v-116h-86c-29.333 0 -50.833 -4.83301 -64.5 -14.5s-20.5 -31.5 -20.5 -65.5v-57
c0 -26.667 5.16699 -43.667 15.5 -51s27.833 -11 52.5 -11h22c39.333 0 69.166 -10.667 89.499 -32s30.5 -50.666 30.5 -87.999v-149z" />
    <glyph glyph-name="omicron" unicode="&#x3bf;" horiz-adv-x="479" 
d="M442 380v-217c0 -61.333 -15.833 -106.5 -47.5 -135.5s-82.167 -43.5 -151.5 -43.5c-138 0 -207 56.333 -207 169v209c0 62 15 108 45 138s82.667 45 158 45c135.333 0 203 -55 203 -165zM285 157v219c0 8 -0.333008 14.5 -1 19.5s-2.16699 11.167 -4.5 18.5
s-7 12.833 -14 16.5s-15.833 5.5 -26.5 5.5c-30.667 0 -46 -21 -46 -63v-224c0 -9.33301 0.5 -17 1.5 -23s5.16699 -12.333 12.5 -19s18 -10 32 -10c30.667 0 46 20 46 60z" />
    <glyph glyph-name="pi" unicode="&#x3c0;" horiz-adv-x="554" 
d="M74 429l-38 -0.000976562v102h476v-102h-35v-272c0 -27.333 3.16699 -44.666 9.5 -51.999s19.5 -11 39.5 -11v-95c-12 0 -24.333 -0.166992 -37 -0.5s-19.667 -0.5 -21 -0.5c-55.333 0 -94 10.667 -116 32s-33 60.333 -33 117v282h-85v-429h-160v429z" />
    <glyph glyph-name="rho" unicode="&#x3c1;" horiz-adv-x="490" 
d="M195 377v-212c0 -44 17 -66 51 -66s51 22 51 66v210c0 40.667 -16.667 61 -50 61c-34.667 0 -52 -19.667 -52 -59zM455 380l-0.000976562 -216.003c0 -61.333 -10.333 -106.333 -31 -135s-54.667 -43 -102 -43c-14 0 -27.167 1.33301 -39.5 4
s-22.5 5.83398 -30.5 9.50098s-15.667 8.33398 -23 14.001s-12.666 10.334 -15.999 14.001s-7 8 -11 13s-6.33301 7.83301 -7 8.5v-236h-159v549c0 62 15.5 108 46.5 138s85.5 45 163.5 45c139.333 0 209 -55 209 -165z" />
    <glyph glyph-name="sigma1" unicode="&#x3c2;" horiz-adv-x="465" 
d="M274 -146l0.000976562 98.999c0 31.333 -20.333 47 -61 47h-7c-113.333 0 -170 52 -170 156v212c0 32 3.16699 58.5 9.5 79.5s19.5 39.833 39.5 56.5c33.333 27.333 83.666 41 150.999 41c65.333 0 115.5 -12.833 150.5 -38.5s52.5 -61.167 52.5 -106.5v-72h-158v60
c0 33.333 -13.667 50 -41 50c-29.333 0 -45 -16.667 -47 -50v-203c0 -26.667 5.33301 -43.667 16 -51s28.334 -11 53.001 -11h21c39.333 0 69.166 -10.667 89.499 -32s30.5 -50.666 30.5 -87.999v-149h-129z" />
    <glyph glyph-name="sigma" unicode="&#x3c3;" horiz-adv-x="479" 
d="M471 430h-83c36 -18 54 -52.667 54 -104v-163c0 -61.333 -15.833 -106.5 -47.5 -135.5s-82.167 -43.5 -151.5 -43.5c-138 0 -207 56.333 -207 169v195c0 62 15 108 45 138s82.667 45 158 45h232v-101zM239 430c-30.667 0 -46 -22.333 -46 -67v-214
c0 -9.33301 0.5 -17 1.5 -23s5.16699 -12.333 12.5 -19s18 -10 32 -10c30.667 0 46 20 46 60v209c0 42.667 -15.333 64 -46 64z" />
    <glyph glyph-name="tau" unicode="&#x3c4;" horiz-adv-x="343" 
d="M92 427h-46c-12 0 -26.667 -2.66699 -44 -8v103c18.667 6 40 9 64 9h275v-104h-91v-271c0 -21.333 4.33301 -35 13 -41s28 -9 58 -9v-106h-90c-52.667 0 -89 10.167 -109 30.5s-30 53.833 -30 100.5v296z" />
    <glyph glyph-name="upsilon" unicode="&#x3c5;" 
d="M456 531v-368c0 -60.667 -16.333 -105.667 -49 -135s-83.667 -44 -153 -44c-140 0 -210 56.333 -210 169v378h158v-382c0 -34.667 16 -52 48 -52s48 20 48 60v374h158z" />
    <glyph glyph-name="phi" unicode="&#x3c6;" horiz-adv-x="699" 
d="M430 434v-339c31.333 0.666992 51.333 7.5 60 20.5s13 37.5 13 73.5v151c0 36 -4.33301 60.5 -13 73.5s-28.667 19.833 -60 20.5zM269 95v339c-31.333 -0.666992 -51.333 -7.5 -60 -20.5s-13 -37.5 -13 -73.5v-151c0 -36 4.33301 -60.5 13 -73.5s28.667 -19.833 60 -20.5
zM269 543v139.996h161v-140c24.667 -0.666992 46.834 -2.5 66.501 -5.5s37 -6.5 52 -10.5s28.167 -9.5 39.5 -16.5s20.833 -13.833 28.5 -20.5s14.167 -15.334 19.5 -26.001s9.33301 -20 12 -28s4.66699 -18.667 6 -32s2.16602 -24.5 2.49902 -33.5s0.5 -20.833 0.5 -35.5
v-141c0 -14.667 -0.166992 -26.5 -0.5 -35.5s-1.16602 -20.167 -2.49902 -33.5s-3.33301 -24 -6 -32s-6.66699 -17.333 -12 -28s-11.833 -19.334 -19.5 -26.001s-17.167 -13.5 -28.5 -20.5s-24.5 -12.5 -39.5 -16.5s-32.333 -7.5 -52 -10.5s-41.834 -4.83301 -66.501 -5.5
v-173h-161v173c-31.333 0.666992 -59 3.33398 -83 8.00098s-44 10.167 -60 16.5s-29.5 15.333 -40.5 27s-19.333 22.334 -25 32.001s-9.83398 22.834 -12.501 39.501s-4.33398 30.5 -5.00098 41.5s-1 26.5 -1 46.5v135c0 20 0.333008 35.5 1 46.5
s2.33398 24.833 5.00098 41.5s6.83398 29.834 12.501 39.501s14 20.334 25 32.001s24.5 20.667 40.5 27s36 11.833 60 16.5s51.667 7.33398 83 8.00098z" />
    <glyph glyph-name="chi" unicode="&#x3c7;" horiz-adv-x="449" 
d="M449 -89l-0.000976562 -104.001c-24 -4 -48 -6 -72 -6c-32.667 0 -57.334 7 -74.001 21s-28.667 40.667 -36 80l-35 183l-58 -272h-164l125 385l-78 219c-4.66699 12.667 -12.667 19 -24 19c-1.33301 0 -6.66602 -0.666992 -15.999 -2v100
c28.667 5.33301 50.334 8 65.001 8c14 0 26.167 -0.833008 36.5 -2.5s21.333 -5.16699 33 -10.5s21.5 -14.166 29.5 -26.499s14 -27.833 18 -46.5l33 -159l44 234h162l-114 -333l87 -268c4 -13.333 12.333 -20 25 -20c4.66699 0 9 0.333008 13 1z" />
    <glyph glyph-name="psi" unicode="&#x3c8;" horiz-adv-x="699" 
d="M657 531v-339.004c0 -25.333 -1 -46.333 -3 -63s-7.16699 -34.667 -15.5 -54s-20.333 -34.666 -36 -45.999s-38 -21.166 -67 -29.499s-64.167 -12.833 -105.5 -13.5v-173h-161v173c-41.333 0.666992 -76.5 5.16699 -105.5 13.5s-51.333 18.333 -67 30
s-27.667 27.334 -36 47.001s-13.5 37.834 -15.5 54.501s-3 38 -3 64v336h157v-344c0 -34.667 4.33301 -58 13 -70s27.667 -18.667 57 -20v586h161v-586c28.667 1.33301 47.5 8 56.5 20s13.5 35.333 13.5 70v344h157z" />
    <glyph glyph-name="omega" unicode="&#x3c9;" horiz-adv-x="701" 
d="M665 157c0 -56.667 -13.6689 -99.667 -41.002 -129s-71.666 -44 -132.999 -44c-88.667 0 -135.667 35 -141 105c-5.33301 -70 -53.333 -105 -144 -105c-59.333 0 -102.5 14.667 -129.5 44s-40.5 72.333 -40.5 129v212c0 53.333 15.667 93.666 47 120.999
s72.333 41 123 41h65v-101h-16c-41.333 0 -62 -15.333 -62 -46v-226c0 -13.333 0.666992 -23.833 2 -31.5s4.83301 -14.5 10.5 -20.5s13.834 -9 24.501 -9c16.667 0 27.5 5 32.5 15s7.5 25.333 7.5 46v197h160v-197c0 -18 3.33301 -32.667 10 -44s15.667 -17 27 -17
c26.667 0 40 20.333 40 61v226c0 30.667 -22 46 -66 46h-12v101h66c50.667 0 91.667 -13.667 123 -41s47 -67.666 47 -120.999v-212z" />
    <glyph glyph-name="iotadieresis" unicode="&#x3ca;" horiz-adv-x="264" 
d="M309 609h-142v124h142v-124zM88 609h-144v124h144v-124zM204 531v-374c0 -22.667 2.33301 -37.167 7 -43.5s14.667 -9.5 30 -9.5v-105c-16.667 -0.666992 -32.667 -1 -48 -1c-54.667 0 -93 10.5 -115 31.5s-33 60.167 -33 117.5v384h159z" />
    <glyph glyph-name="upsilondieresis" unicode="&#x3cb;" 
d="M435 609h-142v124h142v-124zM214 609h-144v124h144v-124zM456 531v-368c0 -60.667 -16.333 -105.667 -49 -135s-83.667 -44 -153 -44c-140 0 -210 56.333 -210 169v378h158v-382c0 -34.667 16 -52 48 -52s48 20 48 60v374h158z" />
    <glyph glyph-name="omicrontonos" unicode="&#x3cc;" horiz-adv-x="479" 
d="M442 380v-217c0 -61.333 -15.833 -106.5 -47.5 -135.5s-82.167 -43.5 -151.5 -43.5c-138 0 -207 56.333 -207 169v209c0 62 15 108 45 138s82.667 45 158 45c135.333 0 203 -55 203 -165zM285 157v219c0 8 -0.333008 14.5 -1 19.5s-2.16699 11.167 -4.5 18.5
s-7 12.833 -14 16.5s-15.833 5.5 -26.5 5.5c-30.667 0 -46 -21 -46 -63v-224c0 -9.33301 0.5 -17 1.5 -23s5.16699 -12.333 12.5 -19s18 -10 32 -10c30.667 0 46 20 46 60zM427 735l-137 -125h-118l87 125h168z" />
    <glyph glyph-name="upsilontonos" unicode="&#x3cd;" 
d="M456 531v-368c0 -60.667 -16.333 -105.667 -49 -135s-83.667 -44 -153 -44c-140 0 -210 56.333 -210 169v378h158v-382c0 -34.667 16 -52 48 -52s48 20 48 60v374h158zM416 735l-137 -125h-118l87 125h168z" />
    <glyph glyph-name="omegatonos" unicode="&#x3ce;" horiz-adv-x="701" 
d="M665 157c0 -56.667 -13.6689 -99.667 -41.002 -129s-71.666 -44 -132.999 -44c-88.667 0 -135.667 35 -141 105c-5.33301 -70 -53.333 -105 -144 -105c-59.333 0 -102.5 14.667 -129.5 44s-40.5 72.333 -40.5 129v212c0 53.333 15.667 93.666 47 120.999
s72.333 41 123 41h65v-101h-16c-41.333 0 -62 -15.333 -62 -46v-226c0 -13.333 0.666992 -23.833 2 -31.5s4.83301 -14.5 10.5 -20.5s13.834 -9 24.501 -9c16.667 0 27.5 5 32.5 15s7.5 25.333 7.5 46v197h160v-197c0 -18 3.33301 -32.667 10 -44s15.667 -17 27 -17
c26.667 0 40 20.333 40 61v226c0 30.667 -22 46 -66 46h-12v101h66c50.667 0 91.667 -13.667 123 -41s47 -67.666 47 -120.999v-212zM561.998 735l-137 -125h-118l87 125h168z" />
    <glyph glyph-name="afii10023" unicode="&#x401;" horiz-adv-x="437" 
d="M416 0h-365v706h365v-124h-194v-163h183v-124h-183v-170h194v-125zM391 785h-134v113h134v-113zM200 785h-136v113h136v-113z" />
    <glyph glyph-name="afii10051" unicode="&#x402;" horiz-adv-x="622" 
d="M419 267c0 22 -3.66699 37.167 -11 45.5s-19.666 12.5 -36.999 12.5c-18 0 -33 -4.33301 -45 -13v-312h-173v583h-140v123h454v-123h-141v-157c27.333 16 61 24 101 24c53.333 0 93.666 -10.833 120.999 -32.5s41 -61.167 41 -118.5v-136
c0 -55.333 -11.333 -96.333 -34 -123s-66 -40 -130 -40h-62v122h10c18.667 0 31 4.16699 37 12.5s9 22.5 9 42.5v90z" />
    <glyph glyph-name="afii10052" unicode="&#x403;" horiz-adv-x="396" 
d="M396 585h-175v-585h-172v706h347v-121zM389 910l-151 -142h-106l94 142h163z" />
    <glyph glyph-name="afii10053" unicode="&#x404;" horiz-adv-x="521" 
d="M210 295v-113.998c0 -25.333 3.5 -43.333 10.5 -54s22.5 -16 46.5 -16c22 0 36.667 5.33301 44 16s11 28.667 11 54v78h172v-53c0 -80 -16.667 -135.833 -50 -167.5s-95.333 -47.5 -186 -47.5c-82 0 -138.833 14.667 -170.5 44s-47.5 72.666 -47.5 129.999v370
c0 122.667 74.667 184 224 184c82 0 140.167 -15.833 174.5 -47.5s51.5 -78.834 51.5 -141.501v-75h-168v83c0 21.333 -4.5 36.333 -13.5 45s-24.167 13 -45.5 13c-20.667 0 -34.667 -5.33301 -42 -16s-11 -26.667 -11 -48v-113h183v-124h-183z" />
    <glyph glyph-name="afii10054" unicode="&#x405;" horiz-adv-x="479" 
d="M446 489l-161.002 -0.000976562v50c0 20.667 -3 35.667 -9 45s-19 14 -39 14c-28 0 -42 -17.333 -42 -52v-26c0 -23.333 10.667 -42.333 32 -57l145 -101c37.333 -25.333 61.833 -48.666 73.5 -69.999s17.5 -56 17.5 -104c0 -14.667 -0.5 -27.667 -1.5 -39
s-3.16699 -24.333 -6.5 -39s-8 -27.167 -14 -37.5s-14.5 -21 -25.5 -32s-24.167 -20 -39.5 -27s-34.666 -12.667 -57.999 -17s-49.333 -6.5 -78 -6.5c-105.333 0 -172.666 26.333 -201.999 79c-12.667 24 -19 62.333 -19 115v42h169v-56c0 -37.333 16.667 -56 50 -56
c36 0 54 16.333 54 49c0 28.667 -3 47.834 -9 57.501s-24.333 25.5 -55 47.5l-102 74c-3.33301 2.66699 -9.66602 7.16699 -18.999 13.5s-15.833 10.833 -19.5 13.5s-9.16699 7.16699 -16.5 13.5s-12.333 11.833 -15 16.5l-11.5 19.5c-5 8.33301 -8.33301 16.833 -10 25.5
s-3.33398 19 -5.00098 31s-2.5 25.333 -2.5 40c0 75.333 15.833 128.166 47.5 158.499s89.167 45.5 172.5 45.5c36.667 0 67.667 -3.33301 93 -10s44.833 -15 58.5 -25s24.167 -24.167 31.5 -42.5s11.833 -35.5 13.5 -51.5s2.5 -37.333 2.5 -64v-37z" />
    <glyph glyph-name="afii10055" unicode="&#x406;" horiz-adv-x="271" 
d="M220 0h-171v706h171v-706z" />
    <glyph glyph-name="afii10056" unicode="&#x407;" horiz-adv-x="271" 
d="M220 0h-171v706h171v-706zM288 785h-134v113h134v-113zM117 785h-136v113h136v-113z" />
    <glyph glyph-name="afii10057" unicode="&#x408;" horiz-adv-x="333" 
d="M121 706h171v-543c0 -55.333 -11.333 -96.333 -34 -123s-66 -40 -130 -40h-112v122h59c18.667 0 31 4.16699 37 12.5s9 22.5 9 42.5v529z" />
    <glyph glyph-name="afii10058" unicode="&#x409;" horiz-adv-x="822" 
d="M88 706l432.999 -0.000976562v-258h134c56.667 0 95.167 -12.667 115.5 -38s30.5 -60 30.5 -104v-168c0 -50.667 -12.833 -86.334 -38.5 -107.001s-61.167 -31 -106.5 -31h-306v581h-92v-375c0 -47.333 -2.66699 -84.666 -8 -111.999s-15.833 -48 -31.5 -62
s-33.167 -22.833 -52.5 -26.5s-47.666 -5.5 -84.999 -5.5h-71v125h26c22 0 36.167 5.33301 42.5 16s9.5 32.334 9.5 65.001v500zM520.999 327.999l-0.000976562 -204.001h64c17.333 0 30.333 3.33301 39 10s13.667 13.834 15 21.501s2 19.5 2 35.5v90
c0 18.667 -4.66699 31.167 -14 37.5s-23.666 9.5 -42.999 9.5h-63z" />
    <glyph glyph-name="afii10059" unicode="&#x40a;" horiz-adv-x="812" 
d="M340 706l171 0.000976562v-274h134c56.667 0 95.167 -12.667 115.5 -38s30.5 -60 30.5 -104v-152c0 -50.667 -12.833 -86.334 -38.5 -107.001s-61.167 -31 -106.5 -31h-306v312h-119v-312h-170v706h170v-275h119v275zM511 312.001l-0.000976562 -188.001h64
c17.333 0 30.333 3.33301 39 10s13.667 13.834 15 21.501s2 19.5 2 35.5v74c0 18.667 -4.66699 31.167 -14 37.5s-23.666 9.5 -42.999 9.5h-63z" />
    <glyph glyph-name="afii10060" unicode="&#x40b;" horiz-adv-x="622" 
d="M589 0h-170v267c0 22 -3.66699 37.167 -11 45.5s-19.666 12.5 -36.999 12.5c-18 0 -33 -4.33301 -45 -13v-312h-173v583h-140v123h454v-123h-141v-157c27.333 16 61 24 101 24c53.333 0 93.666 -10.833 120.999 -32.5s41 -61.167 41 -118.5v-299z" />
    <glyph glyph-name="afii10061" unicode="&#x40c;" horiz-adv-x="570" 
d="M51 706l170 -0.000976562v-285h54c18.667 0 31.5 3.83301 38.5 11.5s10.5 26.5 10.5 56.5v76c0 94 43.667 141 131 141h73v-123c-12.667 0 -21.334 -4.33301 -26.001 -13s-7 -23 -7 -43v-60c0 -32.667 -5 -56.167 -15 -70.5s-27 -26.166 -51 -35.499
c28.667 -7.33301 48.5 -18.833 59.5 -34.5s16.5 -41.167 16.5 -76.5v-61c0 -28.667 2.33301 -47 7 -55s15.334 -12 32.001 -12v-122h-69c-94 0 -141 45.667 -141 137v88c0 31.333 -4 51 -12 59s-23.667 12 -47 12h-54v-296h-170v706zM466 909.999l-151 -142h-106l94 142h163
z" />
    <glyph glyph-name="afii10062" unicode="&#x40e;" horiz-adv-x="519" 
d="M349 706l164.002 -0.000976562l-160 -509c-10.667 -34 -19.5 -60.833 -26.5 -80.5s-15.333 -37.667 -25 -54s-18.167 -28 -25.5 -35s-18.5 -13 -33.5 -18s-29.333 -7.83301 -43 -8.5s-33.5 -1 -59.5 -1h-31v125h41c13.333 0 24.166 2.83301 32.499 8.5
s13.666 11.334 15.999 17.001s5.5 15.167 9.5 28.5l-204 527h173l100 -326zM267.002 830.999c17.333 0 30.166 3.66699 38.499 11s12.5 20 12.5 38h105c0 -46 -11.667 -79.833 -35 -101.5s-63.666 -32.5 -120.999 -32.5c-56.667 0 -96.667 10.833 -120 32.5
s-35 55.5 -35 101.5h105c0 -32.667 16.667 -49 50 -49z" />
    <glyph glyph-name="afii10145" unicode="&#x40f;" horiz-adv-x="562" 
d="M204 0h-153v706h171v-581h119v581h170v-706h-155v-140h-152v140z" />
    <glyph glyph-name="afii10017" unicode="&#x410;" horiz-adv-x="521" 
d="M518 0h-167l-24 161h-131l-25 -161h-167l143 706h228zM310 280l-47 314l-48 -314h95z" />
    <glyph glyph-name="afii10018" unicode="&#x411;" horiz-adv-x="533" 
d="M465 585l-245 0.000976562v-137h134c56.667 0 95.167 -12.667 115.5 -38s30.5 -60 30.5 -104v-168c0 -50.667 -12.833 -86.334 -38.5 -107.001s-61.167 -31 -106.5 -31h-305v706h415v-121zM220 328.001l-0.000976562 -204.001h64c17.333 0 30.333 3.33301 39 10
s13.667 13.834 15 21.501s2 19.5 2 35.5v90c0 18.667 -4.66699 31.167 -14 37.5s-23.666 9.5 -42.999 9.5h-63z" />
    <glyph glyph-name="afii10019" unicode="&#x412;" horiz-adv-x="521" 
d="M51 706l252 -0.00195312c56.667 0 100.167 -12 130.5 -36s45.5 -58 45.5 -102v-48c0 -45.333 -7.16699 -78.166 -21.5 -98.499s-38.833 -36.166 -73.5 -47.499c40 -10 67.333 -26.333 82 -49s22 -56 22 -100v-32c0 -42 -4.33301 -76.5 -13 -103.5
s-21.834 -46.667 -39.501 -59s-35.667 -20.5 -54 -24.5s-41.166 -6 -68.499 -6h-262v706zM211 580.998v-151h70c20 0 32.833 5.66699 38.5 17s8.5 31.333 8.5 60s-3.5 48.167 -10.5 58.5s-20.833 15.5 -41.5 15.5h-65zM211 305.998l0.000976562 -179.001h66
c23.333 0 38.166 6 44.499 18s9.5 34.667 9.5 68c0 36.667 -3 61.334 -9 74.001s-21 19 -45 19h-66z" />
    <glyph glyph-name="afii10020" unicode="&#x413;" horiz-adv-x="396" 
d="M396 585h-175v-585h-172v706h347v-121z" />
    <glyph glyph-name="afii10021" unicode="&#x414;" horiz-adv-x="628" 
d="M466 0h-304v-140h-152v265c60 0 90 43.667 90 131v450h433v-581h85v-265h-152v140zM270 256c0 -64 -10.667 -107.667 -32 -131h124v456h-92v-325z" />
    <glyph glyph-name="afii10022" unicode="&#x415;" horiz-adv-x="437" 
d="M416 0h-365v706h365v-124h-194v-163h183v-124h-183v-170h194v-125z" />
    <glyph glyph-name="afii10024" unicode="&#x416;" horiz-adv-x="848" 
d="M339 706h170v-285h44c18.667 0 31.5 3.83301 38.5 11.5s10.5 26.5 10.5 56.5v76c0 94 43.667 141 131 141h73v-123c-12.667 0 -21.334 -4.33301 -26.001 -13s-7 -23 -7 -43v-60c0 -32.667 -5 -56.167 -15 -70.5s-27 -26.166 -51 -35.499
c28.667 -7.33301 48.5 -18.833 59.5 -34.5s16.5 -41.167 16.5 -76.5v-61c0 -28.667 2.33301 -47 7 -55s15.334 -12 32.001 -12v-122h-69c-94 0 -141 45.667 -141 137v88c0 31.333 -4 51 -12 59s-23.667 12 -47 12h-44v-296h-170v296h-44c-23.333 0 -39 -4 -47 -12
s-12 -27.667 -12 -59v-88c0 -91.333 -47 -137 -141 -137h-69v122c16.667 0 27.334 4 32.001 12s7 26.333 7 55v61c0 35.333 5.5 60.833 16.5 76.5s30.833 27.167 59.5 34.5c-24 9.33301 -41 21.166 -51 35.499s-15 37.833 -15 70.5v60c0 20 -2.33301 34.333 -7 43
s-13.334 13 -26.001 13v123h73c87.333 0 131 -47 131 -141v-76c0 -30 3.5 -48.833 10.5 -56.5s19.833 -11.5 38.5 -11.5h44v285z" />
    <glyph glyph-name="afii10025" unicode="&#x417;" horiz-adv-x="520" 
d="M27 455l0.00195312 74.9971c0 62.667 17.167 109.834 51.5 141.501s92.5 47.5 174.5 47.5c149.333 0 224 -61.333 224 -184v-26c0 -45.333 -7.16699 -78.166 -21.5 -98.499s-38.833 -36.166 -73.5 -47.499c39.333 -10 65.5 -26.167 78.5 -48.5s19.5 -55.5 19.5 -99.5v-42
c0 -58 -16.5 -102.833 -49.5 -134.5s-90.167 -47.5 -171.5 -47.5c-84.667 0 -144.334 16 -179.001 48s-52 87.667 -52 167v53h172v-78c0 -46.667 20.667 -70 62 -70c40.667 0 61 22.667 61 68v42c0 24.667 -3.83301 43.167 -11.5 55.5s-21.834 18.5 -42.501 18.5h-135v124
h132c16.667 0 27.667 5.83301 33 17.5s8 31.5 8 59.5v39c0 20 -3.83301 35.167 -11.5 45.5s-21.5 15.5 -41.5 15.5c-21.333 0 -36.5 -4.33301 -45.5 -13s-13.5 -23.667 -13.5 -45v-83h-168z" />
    <glyph glyph-name="afii10026" unicode="&#x418;" horiz-adv-x="572" 
d="M521 0h-171v371l-129 -311v-60h-170v706h170v-371l129 311v60h171v-706z" />
    <glyph glyph-name="afii10027" unicode="&#x419;" horiz-adv-x="572" 
d="M521 0h-171v371l-129 -311v-60h-170v706h170v-371l129 311v60h171v-706zM286 831c17.333 0 30.166 3.66699 38.499 11s12.5 20 12.5 38h105c0 -46 -11.667 -79.833 -35 -101.5s-63.666 -32.5 -120.999 -32.5c-56.667 0 -96.667 10.833 -120 32.5s-35 55.5 -35 101.5h105
c0 -32.667 16.667 -49 50 -49z" />
    <glyph glyph-name="afii10028" unicode="&#x41a;" horiz-adv-x="570" 
d="M51 706l170 -0.000976562v-285h54c18.667 0 31.5 3.83301 38.5 11.5s10.5 26.5 10.5 56.5v76c0 94 43.667 141 131 141h73v-123c-12.667 0 -21.334 -4.33301 -26.001 -13s-7 -23 -7 -43v-60c0 -32.667 -5 -56.167 -15 -70.5s-27 -26.166 -51 -35.499
c28.667 -7.33301 48.5 -18.833 59.5 -34.5s16.5 -41.167 16.5 -76.5v-61c0 -28.667 2.33301 -47 7 -55s15.334 -12 32.001 -12v-122h-69c-94 0 -141 45.667 -141 137v88c0 31.333 -4 51 -12 59s-23.667 12 -47 12h-54v-296h-170v706z" />
    <glyph glyph-name="afii10029" unicode="&#x41b;" horiz-adv-x="572" 
d="M521 706l-0.000976562 -706.002h-171v581h-92v-375c0 -47.333 -2.66699 -84.666 -8 -111.999s-15.833 -48 -31.5 -62s-33.167 -22.833 -52.5 -26.5s-47.666 -5.5 -84.999 -5.5h-71v125h26c22 0 36.167 5.33301 42.5 16s9.5 32.334 9.5 65.001v500h433z" />
    <glyph glyph-name="afii10030" unicode="&#x41c;" horiz-adv-x="771" 
d="M721 0h-152v508l-109 -508h-150l-109 508v-508h-149v706h228l105 -518l105 518h231v-706z" />
    <glyph glyph-name="afii10031" unicode="&#x41d;" horiz-adv-x="562" 
d="M511 0h-171v296h-119v-296h-170v706h170v-285h119v285h171v-706z" />
    <glyph glyph-name="afii10032" unicode="&#x41e;" horiz-adv-x="542" 
d="M499 500v-279c0 -25.333 -0.833008 -46.5 -2.5 -63.5s-6.66699 -37 -15 -60s-20 -41.5 -35 -55.5s-37.167 -26 -66.5 -36s-64.666 -15 -105.999 -15c-78.667 0 -137.334 16.333 -176.001 49s-58 88 -58 166v305c0 73.333 19.167 126.5 57.5 159.5s95.833 49.5 172.5 49.5
c80.667 0 139 -17.5 175 -52.5s54 -90.833 54 -167.5zM211 537v-362c0 -10.667 0.333008 -18.5 1 -23.5s2.66699 -10.833 6 -17.5s9.33301 -11.5 18 -14.5s20 -4.5 34 -4.5c22 0 37.333 4.66699 46 14s13 24.666 13 45.999v361c0 22.667 -4.5 38 -13.5 46
s-25.167 12 -48.5 12c-20.667 0 -35.167 -4.16699 -43.5 -12.5s-12.5 -23.166 -12.5 -44.499z" />
    <glyph glyph-name="afii10033" unicode="&#x41f;" horiz-adv-x="562" 
d="M511 0h-171v581h-119v-581h-170v706h460v-706z" />
    <glyph glyph-name="afii10034" unicode="&#x420;" horiz-adv-x="521" 
d="M50 706l304 0.000976562c56.667 0 95.167 -12.667 115.5 -38s30.5 -60 30.5 -104v-168c0 -50.667 -12.833 -86.334 -38.5 -107.001s-61.167 -31 -106.5 -31h-135v-258h-170v706zM220 586.001l-0.000976562 -204.001h64c17.333 0 30.333 3.33301 39 10
s13.667 13.834 15 21.501s2 19.5 2 35.5v90c0 18.667 -4.66699 31.167 -14 37.5s-23.666 9.5 -42.999 9.5h-63z" />
    <glyph glyph-name="afii10035" unicode="&#x421;" horiz-adv-x="521" 
d="M494 269v-62.998c0 -80 -16.667 -135.833 -50 -167.5s-95.333 -47.5 -186 -47.5c-82 0 -138.833 14.667 -170.5 44s-47.5 72.666 -47.5 129.999v370c0 122.667 74.667 184 224 184c82 0 140.167 -15.833 174.5 -47.5s51.5 -78.834 51.5 -141.501v-85h-168v93
c0 21.333 -4.5 36.333 -13.5 45s-24.167 13 -45.5 13c-20.667 0 -34.667 -5.33301 -42 -16s-11 -26.667 -11 -48v-351c0 -25.333 3.5 -43.333 10.5 -54s22.5 -16 46.5 -16c22 0 36.667 5.33301 44 16s11 28.667 11 54v88h172z" />
    <glyph glyph-name="afii10036" unicode="&#x422;" horiz-adv-x="479" 
d="M467 583h-141v-583h-173v583h-140v123h454v-123z" />
    <glyph glyph-name="afii10037" unicode="&#x423;" horiz-adv-x="519" 
d="M349 706l164.002 -0.000976562l-160 -509c-10.667 -34 -19.5 -60.833 -26.5 -80.5s-15.333 -37.667 -25 -54s-18.167 -28 -25.5 -35s-18.5 -13 -33.5 -18s-29.333 -7.83301 -43 -8.5s-33.5 -1 -59.5 -1h-31v125h41c13.333 0 24.166 2.83301 32.499 8.5
s13.666 11.334 15.999 17.001s5.5 15.167 9.5 28.5l-204 527h173l100 -326z" />
    <glyph glyph-name="afii10038" unicode="&#x424;" horiz-adv-x="730" 
d="M280 720h170v-99h85c116 0 174 -59 174 -177v-165c0 -70 -16 -118.5 -48 -145.5s-81.333 -40.5 -148 -40.5h-63v-103h-170v103h-63c-66.667 0 -116 13.5 -148 40.5s-48 75.5 -48 145.5v165c0 118 58 177 174 177h85v99zM280 218v281.998h-50
c-20 0 -33.333 -3.66699 -40 -11s-10 -20.666 -10 -39.999v-174c0 -21.333 3.16699 -36.166 9.5 -44.499s19.833 -12.5 40.5 -12.5h50zM450 499.998v-281.998h50c20.667 0 34.167 4.16699 40.5 12.5s9.5 23.166 9.5 44.499v174c0 19.333 -3.33301 32.666 -10 39.999
s-20 11 -40 11h-50z" />
    <glyph glyph-name="afii10039" unicode="&#x425;" horiz-adv-x="479" 
d="M479 0h-174l-64 270l-65 -270h-172l122 374l-127 332h172l70 -227l68 227h170l-125 -332z" />
    <glyph glyph-name="afii10040" unicode="&#x426;" horiz-adv-x="606" 
d="M444 0h-393v706h171v-581h119v581h170v-581h85v-265h-152v140z" />
    <glyph glyph-name="afii10041" unicode="&#x427;" horiz-adv-x="518" 
d="M33 706h170v-267c0 -22 3.66699 -37.167 11 -45.5s19.666 -12.5 36.999 -12.5c18 0 33 4.33301 45 13v312h171v-706h-171v280c-27.333 -16 -61 -24 -101 -24c-53.333 0 -93.666 10.833 -120.999 32.5s-41 61.167 -41 118.5v299z" />
    <glyph glyph-name="afii10042" unicode="&#x428;" horiz-adv-x="791" 
d="M740 0h-689v706h171v-581h89v581h170v-581h89v581h170v-706z" />
    <glyph glyph-name="afii10043" unicode="&#x429;" horiz-adv-x="835" 
d="M673 0h-622v706h171v-581h89v581h170v-581h89v581h170v-581h85v-265h-152v140z" />
    <glyph glyph-name="afii10044" unicode="&#x42a;" horiz-adv-x="610" 
d="M309 706v-257.999h134c56.667 0 95.167 -12.667 115.5 -38s30.5 -60 30.5 -104v-168c0 -50.667 -12.833 -86.334 -38.5 -107.001s-61.167 -31 -106.5 -31h-305v583h-129v123h299zM309 328.001l-0.000976562 -204.001h64c17.333 0 30.333 3.33301 39 10
s13.667 13.834 15 21.501s2 19.5 2 35.5v90c0 18.667 -4.66699 31.167 -14 37.5s-23.666 9.5 -42.999 9.5h-63z" />
    <glyph glyph-name="afii10045" unicode="&#x42b;" horiz-adv-x="776" 
d="M51 706l170 0.000976562v-258h134c56.667 0 95.167 -12.667 115.5 -38s30.5 -60 30.5 -104v-168c0 -50.667 -12.833 -86.334 -38.5 -107.001s-61.167 -31 -106.5 -31h-305v706zM221 328.001l-0.000976562 -204.001h64c17.333 0 30.333 3.33301 39 10
s13.667 13.834 15 21.501s2 19.5 2 35.5v90c0 18.667 -4.66699 31.167 -14 37.5s-23.666 9.5 -42.999 9.5h-63zM724.999 0h-171v706h171v-706z" />
    <glyph glyph-name="afii10046" unicode="&#x42c;" horiz-adv-x="522" 
d="M51 706l170 0.000976562v-258h134c56.667 0 95.167 -12.667 115.5 -38s30.5 -60 30.5 -104v-168c0 -50.667 -12.833 -86.334 -38.5 -107.001s-61.167 -31 -106.5 -31h-305v706zM221 328.001l-0.000976562 -204.001h64c17.333 0 30.333 3.33301 39 10
s13.667 13.834 15 21.501s2 19.5 2 35.5v90c0 18.667 -4.66699 31.167 -14 37.5s-23.666 9.5 -42.999 9.5h-63z" />
    <glyph glyph-name="afii10047" unicode="&#x42d;" horiz-adv-x="521" 
d="M311 181v113.998h-183v124h183v113c0 21.333 -3.66699 37.333 -11 48s-21.333 16 -42 16c-21.333 0 -36.5 -4.33301 -45.5 -13s-13.5 -23.667 -13.5 -45v-83h-168v75c0 62.667 17.167 109.834 51.5 141.501s92.5 47.5 174.5 47.5c149.333 0 224 -61.333 224 -184v-370
c0 -57.333 -15.833 -100.666 -47.5 -129.999s-88.5 -44 -170.5 -44c-90.667 0 -152.667 15.833 -186 47.5s-50 87.5 -50 167.5v53h172v-78c0 -25.333 3.66699 -43.333 11 -54s22 -16 44 -16c24 0 39.5 5.33301 46.5 16s10.5 28.667 10.5 54z" />
    <glyph glyph-name="afii10048" unicode="&#x42e;" horiz-adv-x="790" 
d="M747 500v-279c0 -25.333 -0.833008 -46.5 -2.5 -63.5s-6.66699 -37 -15 -60s-20 -41.5 -35 -55.5s-37.167 -26 -66.5 -36s-64.666 -15 -105.999 -15c-78.667 0 -137.334 16.333 -176.001 49s-58 88 -58 166v90h-67v-296h-170v706h170v-285h67v90
c0 73.333 19.167 126.5 57.5 159.5s95.833 49.5 172.5 49.5c80.667 0 139 -17.5 175 -52.5s54 -90.833 54 -167.5zM459 537v-362c0 -10.667 0.333008 -18.5 1 -23.5s2.66699 -10.833 6 -17.5s9.33301 -11.5 18 -14.5s20 -4.5 34 -4.5c22 0 37.333 4.66699 46 14
s13 24.666 13 45.999v361c0 22.667 -4.5 38 -13.5 46s-25.167 12 -48.5 12c-20.667 0 -35.167 -4.16699 -43.5 -12.5s-12.5 -23.166 -12.5 -44.499z" />
    <glyph glyph-name="afii10049" unicode="&#x42f;" horiz-adv-x="532" 
d="M293 301c-22.667 0 -37.834 -4.16699 -45.501 -12.5s-11.5 -27.833 -11.5 -58.5v-93c0 -91.333 -47 -137 -141 -137h-69v122c16.667 0 27.334 4 32.001 12s7 26.333 7 55v25c0 35.333 5.66699 60.833 17 76.5s31.333 27.167 60 34.5c-32.667 16 -55 36.833 -67 62.5
s-18 65.5 -18 119.5c0 76 12.5 128.167 37.5 156.5s73.5 42.5 145.5 42.5h241v-706h-160v301h-28zM321 422v162h-52c-20 0 -35 -3.5 -45 -10.5s-15 -19.833 -15 -38.5v-40c0 -28 4.16699 -47.167 12.5 -57.5s23.833 -15.5 46.5 -15.5h53z" />
    <glyph glyph-name="afii10065" unicode="&#x430;" 
d="M473 0l-182.002 0.000976562v45c-3.33301 -2 -9.66602 -6.83301 -18.999 -14.5s-16.666 -13.334 -21.999 -17.001s-13 -8.16699 -23 -13.5s-20.667 -9.16602 -32 -11.499s-23.666 -3.5 -36.999 -3.5c-84.667 0 -127 46.333 -127 139c0 45.333 7 80.5 21 105.5
s39 44.5 75 58.5c92 36 146.667 58.333 164 67v32c0 17.333 -3.33301 30.166 -10 38.499s-19.334 12.5 -38.001 12.5c-29.333 0 -44 -18.667 -44 -56v-27h-153v26c0 56 15 97.5 45 124.5s80.333 40.5 151 40.5c64.667 0 115.5 -11.5 152.5 -34.5s55.5 -63.833 55.5 -122.5
v-306c0 -24 1.5 -40.833 4.5 -50.5s9.16699 -20.5 18.5 -32.5zM290.998 147.001v119.999l-49 -26c-21.333 -11.333 -34.5 -22.166 -39.5 -32.499s-7.5 -26.833 -7.5 -49.5v-14c0 -13.333 0.666992 -23.5 2 -30.5s5 -13.333 11 -19s15 -8.5 27 -8.5c37.333 0 56 20 56 60z
" />
    <glyph glyph-name="afii10066" unicode="&#x431;" horiz-adv-x="479" 
d="M442 333v-170.002c0 -61.333 -15.833 -106.5 -47.5 -135.5s-82.167 -43.5 -151.5 -43.5c-138 0 -207 56.333 -207 169v186c0 30.667 0.5 54.667 1.5 72s3.33301 37.833 7 61.5s9.5 42.834 17.5 57.501s18.833 30.167 32.5 46.5s31.5 30.833 53.5 43.5
s48 24.334 78 35.001c24 8.66699 40.667 16.5 50 23.5s14 16.833 14 29.5h135c0 -44.667 -9.16699 -77.667 -27.5 -99s-44.833 -38 -79.5 -50l-52 -18c-41.333 -14 -71.833 -28.5 -91.5 -43.5s-29.5 -35.833 -29.5 -62.5c29.333 42 74 63 134 63c46 0 84.667 -13 116 -39
s47 -68 47 -126zM285 156.998v172c0 8 -0.333008 14.5 -1 19.5s-2.16699 11.167 -4.5 18.5s-7 12.833 -14 16.5s-15.833 5.5 -26.5 5.5c-30.667 0 -46 -21 -46 -63v-177c0 -9.33301 0.5 -17 1.5 -23s5.16699 -12.333 12.5 -19s18 -10 32 -10c30.667 0 46 20 46 60z" />
    <glyph glyph-name="afii10067" unicode="&#x432;" horiz-adv-x="494" 
d="M45 531l216 0.00195312c63.333 0 111.833 -9.66699 145.5 -29s50.5 -53.666 50.5 -102.999c0 -65.333 -25.667 -106 -77 -122c26 -6.66699 47.167 -19.334 63.5 -38.001s24.5 -48.667 24.5 -90c0 -26.667 -3.83301 -49.167 -11.5 -67.5s-17.5 -32.833 -29.5 -43.5
s-28.833 -18.834 -50.5 -24.501s-43 -9.33398 -64 -11.001s-47.833 -2.5 -80.5 -2.5h-187v531zM204 432.002v-113h43c34 0 51 15.333 51 46v23c0 29.333 -17 44 -51 44h-43zM204 220.002v-121.001h49c20.667 0 35.167 3.83301 43.5 11.5s12.5 19.834 12.5 36.501v26
c0 31.333 -18 47 -54 47h-51z" />
    <glyph glyph-name="afii10068" unicode="&#x433;" horiz-adv-x="374" 
d="M204 0h-159v531h319v-99h-160v-432z" />
    <glyph glyph-name="afii10069" unicode="&#x434;" horiz-adv-x="557" 
d="M414 0h-271v-138h-133v237c49.333 0 74 38.667 74 116v316h393v-432h70v-237h-133v138zM244 215c0 -54.667 -9 -93.333 -27 -116h101v332h-74v-216z" />
    <glyph glyph-name="afii10070" unicode="&#x435;" horiz-adv-x="479" 
d="M446 176v-36.002c0 -103.333 -67.667 -155 -203 -155c-42 0 -77 4.83301 -105 14.5s-49.167 24 -63.5 43s-24.166 39.167 -29.499 60.5s-8 47 -8 77v159c0 74 14.5 127 43.5 159s82.5 48 160.5 48c29.333 0 55 -2.33301 77 -7s42.667 -12.667 62 -24
s34.166 -28.166 44.499 -50.499s15.5 -50.166 15.5 -83.499v-151h-242v-87c0 -34 15 -51 45 -51c17.333 0 30 4.16699 38 12.5s12 21.833 12 40.5v31h153zM198 330.998h92v55c0 38.667 -14.667 58 -44 58c-32 0 -48 -19.333 -48 -58v-55z" />
    <glyph glyph-name="afii10072" unicode="&#x436;" horiz-adv-x="744" 
d="M292 531h160.002v-213h24c18 0 30.333 2.83301 37 8.5s10 19.834 10 42.501v56c0 70.667 41 106 123 106h68v-99c-12.667 0 -21 -3.33301 -25 -10s-6 -17.667 -6 -33v-40c0 -24 -4.66699 -41.5 -14 -52.5s-25.333 -19.833 -48 -26.5
c24.667 -4.66699 41.167 -14.334 49.5 -29.001s12.5 -36.667 12.5 -66v-25c0 -22 2.33301 -36 7 -42s16 -9 34 -9v-99h-79c-41.333 0 -72 9 -92 27s-30 41 -30 69v70c0 23.333 -3.83301 38 -11.5 44s-22.834 9 -45.501 9h-14v-219h-160v219h-14
c-22.667 0 -37.834 -3 -45.501 -9s-11.5 -20.667 -11.5 -44v-70c0 -28 -10 -51 -30 -69s-50.667 -27 -92 -27h-79v99c18 0 29.333 3 34 9s7 20 7 42v25c0 29.333 4.16699 51.333 12.5 66s24.833 24.334 49.5 29.001c-22.667 6.66699 -38.667 15.5 -48 26.5
s-14 28.5 -14 52.5v40c0 15.333 -2 26.333 -6 33s-12.333 10 -25 10v99h68c82 0 123 -35.333 123 -106v-56c0 -22.667 3.33301 -36.834 10 -42.501s19 -8.5 37 -8.5h24v213z" />
    <glyph glyph-name="afii10073" unicode="&#x437;" horiz-adv-x="473" 
d="M36 343l0.000976562 56.9961c0 45.333 17.5 80.833 52.5 106.5s85.167 38.5 150.5 38.5c67.333 0 117.666 -13.667 150.999 -41c32.667 -27.333 49 -68.666 49 -123.999c0 -30 -6.66699 -54.667 -20 -74s-32.333 -31.333 -57 -36c28 -6.66699 49.167 -19.167 63.5 -37.5
s21.5 -48.166 21.5 -89.499c0 -31.333 -5.33301 -57.666 -16 -78.999s-26.167 -37.5 -46.5 -48.5s-42 -18.833 -65 -23.5s-49.5 -7 -79.5 -7c-135.333 0 -203 47.333 -203 142v55h158v-50c0 -29.333 15.667 -44 47 -44c14 0 24.667 3.16699 32 9.5s11.5 12.333 12.5 18
s1.5 12.834 1.5 21.501v29c0 31.333 -19 47 -57 47h-85v99h88c30.667 0 46 15.333 46 46v30c0 33.333 -15 50 -45 50c-27.333 0 -41 -16.667 -41 -50v-45h-158z" />
    <glyph glyph-name="afii10074" unicode="&#x438;" horiz-adv-x="513" 
d="M204 0h-159v531h159v-270l105 197v73h159v-531h-159v276l-105 -197v-79z" />
    <glyph glyph-name="afii10075" unicode="&#x439;" horiz-adv-x="513" 
d="M204 0h-159v531h159v-270l105 197v73h159v-531h-159v276l-105 -197v-79zM256 651c26 0 39 16.667 39 50h103c0 -45.333 -10.167 -78.5 -30.5 -99.5s-57.5 -31.5 -111.5 -31.5s-91.167 10.5 -111.5 31.5s-30.5 54.167 -30.5 99.5h103c0 -33.333 13 -50 39 -50z" />
    <glyph glyph-name="afii10076" unicode="&#x43a;" horiz-adv-x="507" 
d="M45 531h160.001v-213h34c18 0 30.333 2.83301 37 8.5s10 19.834 10 42.501v56c0 70.667 41 106 123 106h68v-99c-12.667 0 -21 -3.33301 -25 -10s-6 -17.667 -6 -33v-40c0 -24 -4.66699 -41.5 -14 -52.5s-25.333 -19.833 -48 -26.5
c24.667 -4.66699 41.167 -14.334 49.5 -29.001s12.5 -36.667 12.5 -66v-25c0 -22 2.33301 -36 7 -42s16 -9 34 -9v-99h-79c-41.333 0 -72 9 -92 27s-30 41 -30 69v70c0 23.333 -3.83301 38 -11.5 44s-22.834 9 -45.501 9h-24v-219h-160v531z" />
    <glyph glyph-name="afii10077" unicode="&#x43b;" horiz-adv-x="522" 
d="M477 531v-531h-159v431h-74v-247c0 -74.667 -11.5 -124 -34.5 -148s-67.167 -36 -132.5 -36h-67v99h25c18.667 0 31.5 5.66699 38.5 17s10.5 31 10.5 59v356h393z" />
    <glyph glyph-name="afii10078" unicode="&#x43c;" horiz-adv-x="690" 
d="M645 0h-141v362l-93 -362h-135l-92 362v-362h-139v531h209l90 -374l89 374h212v-531z" />
    <glyph glyph-name="afii10079" unicode="&#x43d;" horiz-adv-x="503" 
d="M204 0h-159v531h159v-213h95v213h159v-531h-159v219h-95v-219z" />
    <glyph glyph-name="afii10080" unicode="&#x43e;" horiz-adv-x="479" 
d="M442 380v-217c0 -61.333 -15.833 -106.5 -47.5 -135.5s-82.167 -43.5 -151.5 -43.5c-138 0 -207 56.333 -207 169v209c0 62 15 108 45 138s82.667 45 158 45c135.333 0 203 -55 203 -165zM285 157v219c0 8 -0.333008 14.5 -1 19.5s-2.16699 11.167 -4.5 18.5
s-7 12.833 -14 16.5s-15.833 5.5 -26.5 5.5c-30.667 0 -46 -21 -46 -63v-224c0 -9.33301 0.5 -17 1.5 -23s5.16699 -12.333 12.5 -19s18 -10 32 -10c30.667 0 46 20 46 60z" />
    <glyph glyph-name="afii10081" unicode="&#x43f;" horiz-adv-x="503" 
d="M204 0h-159v531h413v-531h-159v432h-95v-432z" />
    <glyph glyph-name="afii10082" unicode="&#x440;" 
d="M46 531l159.001 -0.00292969v-56c12 16 22.167 28.333 30.5 37s21.166 16.5 38.499 23.5s38 10.5 62 10.5c32.667 0 59.167 -7.66699 79.5 -23s33.666 -32.833 39.999 -52.5s9.5 -41.5 9.5 -65.5v-241c0 -61.333 -10.333 -106.333 -31 -135s-54.667 -43 -102 -43
c-14 0 -27.167 1.33301 -39.5 4s-22.5 5.83398 -30.5 9.50098s-15.667 8.33398 -23 14.001s-12.666 10.334 -15.999 14.001s-7 8 -11 13s-6.33301 7.83301 -7 8.5v-236h-159v718zM205.001 368.997v-204c0 -44 17 -66 51 -66s51 22 51 66v202c0 40.667 -16.667 61 -50 61
c-34.667 0 -52 -19.667 -52 -59z" />
    <glyph glyph-name="afii10083" unicode="&#x441;" horiz-adv-x="465" 
d="M439 187l0.000976562 -59.998c0 -10 -0.833008 -19.833 -2.5 -29.5s-6.16699 -21.834 -13.5 -36.501s-17.5 -27.167 -30.5 -37.5s-32.167 -19.333 -57.5 -27s-55 -11.5 -89 -11.5c-30 0 -56.667 2.33301 -80 7s-45.333 12.5 -66 23.5s-36.5 27.167 -47.5 48.5
s-16.5 47.666 -16.5 78.999v225c0 32 3.16699 58.5 9.5 79.5s19.5 39.833 39.5 56.5c33.333 27.333 83.666 41 150.999 41c65.333 0 115.5 -12.833 150.5 -38.5s52.5 -61.167 52.5 -106.5v-72h-158v60c0 33.333 -13.667 50 -41 50c-30 0 -45 -16.667 -45 -50v-251
c0 -32.667 15.333 -49 46 -49c26.667 0 40 14.667 40 44v55h158z" />
    <glyph glyph-name="afii10084" unicode="&#x442;" horiz-adv-x="439" 
d="M299 0h-159v432h-140v99h439v-99h-140v-432z" />
    <glyph glyph-name="afii10085" unicode="&#x443;" horiz-adv-x="437" 
d="M436 531l-127 -545.999l-10.5 -43c-2.33301 -9.33301 -6.33301 -21.5 -12 -36.5s-11.667 -26.167 -18 -33.5s-15 -15.833 -26 -25.5s-23.5 -16.5 -37.5 -20.5s-31.167 -7.66699 -51.5 -11s-43.5 -5 -69.5 -5h-77v103h70c12.667 0 23 1.16699 31 3.5
s13.833 6.66602 17.5 12.999s6 11.5 7 15.5s2.16699 10.667 3.5 20l-138 566h156l64 -417l59 417h159z" />
    <glyph glyph-name="afii10086" unicode="&#x444;" horiz-adv-x="720" 
d="M280 706h159v-175h58c124 0 186 -59 186 -177v-177c0 -118 -62 -177 -186 -177h-58v-169h-159v169h-59c-123.333 0 -185 59 -185 177v177c0 118 61.667 177 185 177h59v175zM280 99l-0.000976562 333h-30c-20 0 -34 -7 -42 -21s-12 -36.667 -12 -68v-164
c0 -30 3.83301 -50.833 11.5 -62.5s21.834 -17.5 42.501 -17.5h30zM438.999 432v-333h28c20.667 0 35.167 5.83301 43.5 17.5s12.5 32.5 12.5 62.5v164c0 31.333 -4.16699 54 -12.5 68s-22.833 21 -43.5 21h-28z" />
    <glyph glyph-name="afii10087" unicode="&#x445;" horiz-adv-x="437" 
d="M437 0h-166l-50 163l-58 -163h-164l125 276l-118 255h166l49 -156l44 156h162l-114 -255z" />
    <glyph glyph-name="afii10088" unicode="&#x446;" horiz-adv-x="538" 
d="M395 0h-350v531h159v-432h95v432h159v-432h70v-237h-133v138z" />
    </font>
</defs>
</svg>
